<svg width="652" height="419" viewBox="0 0 652 419" fill="none" xmlns="http://www.w3.org/2000/svg">
<g clip-path="url(#clip0_3_43)" filter="url(#filter0_n_3_43)">
<rect width="652" height="419" fill="#001F3F"/>
<g filter="url(#filter1_f_3_43)">
<rect width="652" height="419" fill="url(#paint0_linear_3_43)"/>
</g>
<g filter="url(#filter2_g_3_43)">
<mask id="path-2-outside-1_3_43" maskUnits="userSpaceOnUse" x="125" y="158" width="396" height="99" fill="black">
<rect fill="white" x="125" y="158" width="396" height="99"/>
<path d="M165.677 251.72C165.25 251.72 164.866 251.592 164.525 251.336C164.184 251.08 164.013 250.525 164.013 249.672L162.733 171.592C162.733 170.995 162.52 170.696 162.093 170.696C161.752 170.696 161.496 170.952 161.325 171.464L142.509 241.992C141.912 244.381 141.869 246.216 142.381 247.496C142.978 248.691 144.301 249.459 146.349 249.8L147.885 250.056C148.909 250.141 149.421 250.611 149.421 251.464C149.421 252.488 148.61 253 146.989 253H128.941C127.661 253 127.021 252.573 127.021 251.72C127.021 250.781 127.704 250.227 129.069 250.056L130.861 249.8C133.165 249.459 134.872 248.691 135.981 247.496C137.09 246.216 137.944 244.381 138.541 241.992L157.869 169.288C158.296 167.496 158.296 166.301 157.869 165.704C157.442 165.107 156.29 164.637 154.413 164.296L152.237 163.912C150.872 163.656 150.189 163.101 150.189 162.248C150.189 161.309 150.957 160.84 152.493 160.84H167.853C170.328 160.84 171.565 162.12 171.565 164.68L172.333 228.296C172.333 228.893 172.504 229.235 172.845 229.32C173.272 229.32 173.613 229.064 173.869 228.552L204.845 164.04C205.869 161.907 207.49 160.84 209.709 160.84H225.197C226.221 160.84 226.733 161.267 226.733 162.12C226.733 162.973 226.008 163.528 224.557 163.784L221.485 164.296C219.608 164.637 218.328 165.107 217.645 165.704C216.962 166.301 216.408 167.496 215.981 169.288L201.133 244.552C200.792 246.344 200.792 247.539 201.133 248.136C201.56 248.733 202.626 249.203 204.333 249.544L206.509 249.928C207.362 250.013 207.917 250.227 208.173 250.568C208.429 250.824 208.557 251.123 208.557 251.464C208.557 252.488 207.789 253 206.253 253H183.469C182.274 253 181.677 252.573 181.677 251.72C181.677 250.867 182.36 250.312 183.725 250.056L186.797 249.544C188.674 249.203 189.954 248.733 190.637 248.136C191.405 247.539 191.96 246.344 192.301 244.552L206.765 171.976C206.936 171.379 206.808 171.037 206.381 170.952C205.954 170.781 205.613 170.952 205.357 171.464L167.981 249.672C167.64 250.525 167.256 251.08 166.829 251.336C166.488 251.592 166.104 251.72 165.677 251.72ZM232.882 254.152C229.81 254.152 227.421 252.829 225.714 250.184C224.007 247.539 223.154 243.656 223.154 238.536C223.154 233.672 223.837 228.808 225.202 223.944C226.567 218.995 228.445 214.301 230.834 209.864C233.223 205.427 235.911 201.501 238.898 198.088C241.97 194.675 245.17 191.987 248.498 190.024C251.911 187.976 255.282 186.952 258.61 186.952C260.231 186.952 261.767 187.293 263.218 187.976C264.669 188.573 265.863 189.555 266.802 190.92C267.314 191.688 267.826 192.072 268.338 192.072C268.85 192.072 269.362 191.688 269.874 190.92C270.813 189.555 271.581 188.701 272.178 188.36C272.775 187.933 273.33 187.72 273.842 187.72C274.951 187.72 275.378 188.317 275.122 189.512L263.73 238.536C262.45 244.083 263.303 246.856 266.29 246.856C268.253 246.856 270.002 245.533 271.538 242.888C273.159 240.243 274.781 236.147 276.402 230.6C276.658 229.661 277.213 229.192 278.066 229.192C278.663 229.192 279.047 229.448 279.218 229.96C279.389 230.472 279.389 231.069 279.218 231.752C277.597 239.773 275.421 245.533 272.69 249.032C269.959 252.445 266.674 254.152 262.834 254.152C259.506 254.152 257.117 252.744 255.666 249.928C254.301 247.112 254.173 243.272 255.282 238.408L256.946 231.368C257.117 230.771 256.989 230.429 256.562 230.344C256.221 230.259 255.922 230.472 255.666 230.984C250.973 239.603 246.791 245.619 243.122 249.032C239.538 252.445 236.125 254.152 232.882 254.152ZM236.082 247.624C238.13 247.624 240.391 246.387 242.866 243.912C245.341 241.437 247.773 238.237 250.162 234.312C252.637 230.387 254.898 226.163 256.946 221.64C258.994 217.117 260.615 212.765 261.81 208.584C263.09 204.403 263.73 200.861 263.73 197.96C263.73 192.755 261.895 190.152 258.226 190.152C256.007 190.152 253.661 191.176 251.186 193.224C248.711 195.187 246.322 197.875 244.018 201.288C241.799 204.701 239.751 208.584 237.874 212.936C236.082 217.203 234.631 221.683 233.522 226.376C232.413 230.984 231.858 235.507 231.858 239.944C231.858 242.931 232.199 244.979 232.882 246.088C233.65 247.112 234.717 247.624 236.082 247.624ZM294.147 253C292.952 253 292.483 252.445 292.739 251.336L304.899 200.264C305.326 198.387 305.368 196.936 305.027 195.912C304.771 194.803 304.003 194.248 302.723 194.248C301.187 194.248 299.48 195.4 297.603 197.704C295.811 199.923 293.763 204.189 291.459 210.504C291.118 211.613 290.52 212.168 289.667 212.168C288.387 212.168 288.046 211.4 288.643 209.864C290.52 203.976 292.483 199.368 294.531 196.04C296.664 192.712 298.798 190.365 300.931 189C303.064 187.635 305.027 186.952 306.819 186.952C309.635 186.952 311.64 188.019 312.835 190.152C314.03 192.2 314.072 195.613 312.963 200.392L311.555 206.408C311.47 207.005 311.598 207.347 311.939 207.432C312.28 207.517 312.579 207.304 312.835 206.792C316.078 199.368 319.022 194.205 321.667 191.304C324.312 188.403 327.342 186.952 330.755 186.952C333.059 186.952 334.766 187.592 335.875 188.872C337.07 190.067 337.667 191.731 337.667 193.864C337.667 195.997 337.155 197.704 336.131 198.984C335.107 200.264 333.784 200.904 332.163 200.904C330.798 200.904 329.816 200.563 329.219 199.88C328.622 199.197 328.152 198.429 327.811 197.576C327.555 196.637 327.256 195.827 326.915 195.144C326.574 194.461 326.019 194.12 325.251 194.12C323.971 194.12 322.307 195.741 320.259 198.984C318.211 202.227 315.992 206.621 313.603 212.168C311.299 217.629 309.038 223.773 306.819 230.6C304.686 237.427 302.808 244.424 301.187 251.592C300.931 252.531 300.334 253 299.395 253H294.147ZM345.112 253C343.917 253 343.448 252.445 343.704 251.336L355.864 200.264C356.291 198.387 356.333 196.936 355.992 195.912C355.736 194.803 354.968 194.248 353.688 194.248C352.152 194.248 350.445 195.4 348.568 197.704C346.776 199.923 344.728 204.189 342.424 210.504C342.083 211.613 341.485 212.168 340.632 212.168C339.352 212.168 339.011 211.4 339.608 209.864C341.485 203.976 343.448 199.368 345.496 196.04C347.629 192.712 349.763 190.365 351.896 189C354.029 187.635 355.992 186.952 357.784 186.952C360.6 186.952 362.605 188.019 363.8 190.152C364.995 192.2 365.037 195.613 363.928 200.392L362.52 206.408C362.435 207.005 362.563 207.347 362.904 207.432C363.245 207.517 363.544 207.304 363.8 206.792C367.043 199.368 369.987 194.205 372.632 191.304C375.277 188.403 378.307 186.952 381.72 186.952C384.024 186.952 385.731 187.592 386.84 188.872C388.035 190.067 388.632 191.731 388.632 193.864C388.632 195.997 388.12 197.704 387.096 198.984C386.072 200.264 384.749 200.904 383.128 200.904C381.763 200.904 380.781 200.563 380.184 199.88C379.587 199.197 379.117 198.429 378.776 197.576C378.52 196.637 378.221 195.827 377.88 195.144C377.539 194.461 376.984 194.12 376.216 194.12C374.936 194.12 373.272 195.741 371.224 198.984C369.176 202.227 366.957 206.621 364.568 212.168C362.264 217.629 360.003 223.773 357.784 230.6C355.651 237.427 353.773 244.424 352.152 251.592C351.896 252.531 351.299 253 350.36 253H345.112ZM405.347 254.152C400.056 254.152 395.875 251.976 392.803 247.624C389.731 243.187 388.195 237.213 388.195 229.704C388.195 224.157 389.091 218.824 390.883 213.704C392.675 208.584 395.022 204.019 397.923 200.008C400.91 195.997 404.195 192.84 407.779 190.536C411.448 188.147 415.118 186.952 418.787 186.952C424.078 186.952 428.259 189.128 431.331 193.48C434.403 197.832 435.939 203.805 435.939 211.4C435.939 216.947 435.043 222.28 433.251 227.4C431.459 232.52 429.07 237.085 426.083 241.096C423.182 245.107 419.896 248.307 416.227 250.696C412.643 253 409.016 254.152 405.347 254.152ZM405.091 251.08C407.822 251.08 410.467 249.757 413.027 247.112C415.672 244.467 418.062 240.968 420.195 236.616C422.328 232.264 424.035 227.443 425.315 222.152C426.595 216.776 427.235 211.4 427.235 206.024C427.235 195.357 424.462 190.024 418.915 190.024C416.27 190.024 413.624 191.347 410.979 193.992C408.334 196.552 405.944 200.008 403.811 204.36C401.763 208.712 400.099 213.576 398.819 218.952C397.539 224.243 396.899 229.576 396.899 234.952C396.899 245.704 399.63 251.08 405.091 251.08ZM460.011 254.152C456.512 254.152 453.824 252.787 451.947 250.056C450.07 247.325 449.728 243.613 450.923 238.92L461.163 200.264C462.272 196.253 461.59 194.248 459.115 194.248C457.323 194.248 455.531 195.528 453.739 198.088C452.032 200.648 450.155 204.829 448.107 210.632C447.766 211.656 447.168 212.168 446.315 212.168C445.888 212.168 445.547 211.997 445.291 211.656C445.035 211.229 444.992 210.717 445.163 210.12C450.112 194.675 456.299 186.952 463.723 186.952C466.624 186.952 468.587 188.147 469.611 190.536C470.635 192.925 470.592 196.211 469.483 200.392L458.731 241.224C457.963 244.125 457.92 246.259 458.603 247.624C459.286 248.989 460.31 249.672 461.675 249.672C465.856 249.672 470.507 244.552 475.627 234.312C480.832 223.987 485.398 208.925 489.323 189.128C489.579 188.189 490.176 187.72 491.115 187.72H496.107C497.302 187.72 497.771 188.275 497.515 189.384L487.275 241.224C486.678 244.04 486.72 246.173 487.403 247.624C488.171 248.989 489.366 249.672 490.987 249.672C493.462 249.672 495.979 248.477 498.539 246.088C501.099 243.699 503.403 240.584 505.451 236.744C507.584 232.904 509.291 228.68 510.571 224.072C511.851 219.464 512.491 214.941 512.491 210.504C512.491 206.92 512.192 204.104 511.595 202.056C511.083 199.923 510.528 198.131 509.931 196.68C509.334 195.229 509.035 193.651 509.035 191.944C509.035 188.616 510.486 186.952 513.387 186.952C515.435 186.952 516.758 188.104 517.355 190.408C517.952 192.627 518.251 195.997 518.251 200.52C518.251 207.005 517.44 213.448 515.819 219.848C514.283 226.163 512.15 231.923 509.419 237.128C506.774 242.248 503.702 246.387 500.203 249.544C496.79 252.616 493.163 254.152 489.323 254.152C485.654 254.152 482.838 252.744 480.875 249.928C478.912 247.027 478.486 242.845 479.595 237.384C479.766 236.787 479.638 236.445 479.211 236.36C478.87 236.275 478.571 236.488 478.315 237C475.926 241.779 473.238 245.832 470.251 249.16C467.264 252.488 463.851 254.152 460.011 254.152Z"/>
</mask>
<path d="M165.677 251.72C165.25 251.72 164.866 251.592 164.525 251.336C164.184 251.08 164.013 250.525 164.013 249.672L162.733 171.592C162.733 170.995 162.52 170.696 162.093 170.696C161.752 170.696 161.496 170.952 161.325 171.464L142.509 241.992C141.912 244.381 141.869 246.216 142.381 247.496C142.978 248.691 144.301 249.459 146.349 249.8L147.885 250.056C148.909 250.141 149.421 250.611 149.421 251.464C149.421 252.488 148.61 253 146.989 253H128.941C127.661 253 127.021 252.573 127.021 251.72C127.021 250.781 127.704 250.227 129.069 250.056L130.861 249.8C133.165 249.459 134.872 248.691 135.981 247.496C137.09 246.216 137.944 244.381 138.541 241.992L157.869 169.288C158.296 167.496 158.296 166.301 157.869 165.704C157.442 165.107 156.29 164.637 154.413 164.296L152.237 163.912C150.872 163.656 150.189 163.101 150.189 162.248C150.189 161.309 150.957 160.84 152.493 160.84H167.853C170.328 160.84 171.565 162.12 171.565 164.68L172.333 228.296C172.333 228.893 172.504 229.235 172.845 229.32C173.272 229.32 173.613 229.064 173.869 228.552L204.845 164.04C205.869 161.907 207.49 160.84 209.709 160.84H225.197C226.221 160.84 226.733 161.267 226.733 162.12C226.733 162.973 226.008 163.528 224.557 163.784L221.485 164.296C219.608 164.637 218.328 165.107 217.645 165.704C216.962 166.301 216.408 167.496 215.981 169.288L201.133 244.552C200.792 246.344 200.792 247.539 201.133 248.136C201.56 248.733 202.626 249.203 204.333 249.544L206.509 249.928C207.362 250.013 207.917 250.227 208.173 250.568C208.429 250.824 208.557 251.123 208.557 251.464C208.557 252.488 207.789 253 206.253 253H183.469C182.274 253 181.677 252.573 181.677 251.72C181.677 250.867 182.36 250.312 183.725 250.056L186.797 249.544C188.674 249.203 189.954 248.733 190.637 248.136C191.405 247.539 191.96 246.344 192.301 244.552L206.765 171.976C206.936 171.379 206.808 171.037 206.381 170.952C205.954 170.781 205.613 170.952 205.357 171.464L167.981 249.672C167.64 250.525 167.256 251.08 166.829 251.336C166.488 251.592 166.104 251.72 165.677 251.72ZM232.882 254.152C229.81 254.152 227.421 252.829 225.714 250.184C224.007 247.539 223.154 243.656 223.154 238.536C223.154 233.672 223.837 228.808 225.202 223.944C226.567 218.995 228.445 214.301 230.834 209.864C233.223 205.427 235.911 201.501 238.898 198.088C241.97 194.675 245.17 191.987 248.498 190.024C251.911 187.976 255.282 186.952 258.61 186.952C260.231 186.952 261.767 187.293 263.218 187.976C264.669 188.573 265.863 189.555 266.802 190.92C267.314 191.688 267.826 192.072 268.338 192.072C268.85 192.072 269.362 191.688 269.874 190.92C270.813 189.555 271.581 188.701 272.178 188.36C272.775 187.933 273.33 187.72 273.842 187.72C274.951 187.72 275.378 188.317 275.122 189.512L263.73 238.536C262.45 244.083 263.303 246.856 266.29 246.856C268.253 246.856 270.002 245.533 271.538 242.888C273.159 240.243 274.781 236.147 276.402 230.6C276.658 229.661 277.213 229.192 278.066 229.192C278.663 229.192 279.047 229.448 279.218 229.96C279.389 230.472 279.389 231.069 279.218 231.752C277.597 239.773 275.421 245.533 272.69 249.032C269.959 252.445 266.674 254.152 262.834 254.152C259.506 254.152 257.117 252.744 255.666 249.928C254.301 247.112 254.173 243.272 255.282 238.408L256.946 231.368C257.117 230.771 256.989 230.429 256.562 230.344C256.221 230.259 255.922 230.472 255.666 230.984C250.973 239.603 246.791 245.619 243.122 249.032C239.538 252.445 236.125 254.152 232.882 254.152ZM236.082 247.624C238.13 247.624 240.391 246.387 242.866 243.912C245.341 241.437 247.773 238.237 250.162 234.312C252.637 230.387 254.898 226.163 256.946 221.64C258.994 217.117 260.615 212.765 261.81 208.584C263.09 204.403 263.73 200.861 263.73 197.96C263.73 192.755 261.895 190.152 258.226 190.152C256.007 190.152 253.661 191.176 251.186 193.224C248.711 195.187 246.322 197.875 244.018 201.288C241.799 204.701 239.751 208.584 237.874 212.936C236.082 217.203 234.631 221.683 233.522 226.376C232.413 230.984 231.858 235.507 231.858 239.944C231.858 242.931 232.199 244.979 232.882 246.088C233.65 247.112 234.717 247.624 236.082 247.624ZM294.147 253C292.952 253 292.483 252.445 292.739 251.336L304.899 200.264C305.326 198.387 305.368 196.936 305.027 195.912C304.771 194.803 304.003 194.248 302.723 194.248C301.187 194.248 299.48 195.4 297.603 197.704C295.811 199.923 293.763 204.189 291.459 210.504C291.118 211.613 290.52 212.168 289.667 212.168C288.387 212.168 288.046 211.4 288.643 209.864C290.52 203.976 292.483 199.368 294.531 196.04C296.664 192.712 298.798 190.365 300.931 189C303.064 187.635 305.027 186.952 306.819 186.952C309.635 186.952 311.64 188.019 312.835 190.152C314.03 192.2 314.072 195.613 312.963 200.392L311.555 206.408C311.47 207.005 311.598 207.347 311.939 207.432C312.28 207.517 312.579 207.304 312.835 206.792C316.078 199.368 319.022 194.205 321.667 191.304C324.312 188.403 327.342 186.952 330.755 186.952C333.059 186.952 334.766 187.592 335.875 188.872C337.07 190.067 337.667 191.731 337.667 193.864C337.667 195.997 337.155 197.704 336.131 198.984C335.107 200.264 333.784 200.904 332.163 200.904C330.798 200.904 329.816 200.563 329.219 199.88C328.622 199.197 328.152 198.429 327.811 197.576C327.555 196.637 327.256 195.827 326.915 195.144C326.574 194.461 326.019 194.12 325.251 194.12C323.971 194.12 322.307 195.741 320.259 198.984C318.211 202.227 315.992 206.621 313.603 212.168C311.299 217.629 309.038 223.773 306.819 230.6C304.686 237.427 302.808 244.424 301.187 251.592C300.931 252.531 300.334 253 299.395 253H294.147ZM345.112 253C343.917 253 343.448 252.445 343.704 251.336L355.864 200.264C356.291 198.387 356.333 196.936 355.992 195.912C355.736 194.803 354.968 194.248 353.688 194.248C352.152 194.248 350.445 195.4 348.568 197.704C346.776 199.923 344.728 204.189 342.424 210.504C342.083 211.613 341.485 212.168 340.632 212.168C339.352 212.168 339.011 211.4 339.608 209.864C341.485 203.976 343.448 199.368 345.496 196.04C347.629 192.712 349.763 190.365 351.896 189C354.029 187.635 355.992 186.952 357.784 186.952C360.6 186.952 362.605 188.019 363.8 190.152C364.995 192.2 365.037 195.613 363.928 200.392L362.52 206.408C362.435 207.005 362.563 207.347 362.904 207.432C363.245 207.517 363.544 207.304 363.8 206.792C367.043 199.368 369.987 194.205 372.632 191.304C375.277 188.403 378.307 186.952 381.72 186.952C384.024 186.952 385.731 187.592 386.84 188.872C388.035 190.067 388.632 191.731 388.632 193.864C388.632 195.997 388.12 197.704 387.096 198.984C386.072 200.264 384.749 200.904 383.128 200.904C381.763 200.904 380.781 200.563 380.184 199.88C379.587 199.197 379.117 198.429 378.776 197.576C378.52 196.637 378.221 195.827 377.88 195.144C377.539 194.461 376.984 194.12 376.216 194.12C374.936 194.12 373.272 195.741 371.224 198.984C369.176 202.227 366.957 206.621 364.568 212.168C362.264 217.629 360.003 223.773 357.784 230.6C355.651 237.427 353.773 244.424 352.152 251.592C351.896 252.531 351.299 253 350.36 253H345.112ZM405.347 254.152C400.056 254.152 395.875 251.976 392.803 247.624C389.731 243.187 388.195 237.213 388.195 229.704C388.195 224.157 389.091 218.824 390.883 213.704C392.675 208.584 395.022 204.019 397.923 200.008C400.91 195.997 404.195 192.84 407.779 190.536C411.448 188.147 415.118 186.952 418.787 186.952C424.078 186.952 428.259 189.128 431.331 193.48C434.403 197.832 435.939 203.805 435.939 211.4C435.939 216.947 435.043 222.28 433.251 227.4C431.459 232.52 429.07 237.085 426.083 241.096C423.182 245.107 419.896 248.307 416.227 250.696C412.643 253 409.016 254.152 405.347 254.152ZM405.091 251.08C407.822 251.08 410.467 249.757 413.027 247.112C415.672 244.467 418.062 240.968 420.195 236.616C422.328 232.264 424.035 227.443 425.315 222.152C426.595 216.776 427.235 211.4 427.235 206.024C427.235 195.357 424.462 190.024 418.915 190.024C416.27 190.024 413.624 191.347 410.979 193.992C408.334 196.552 405.944 200.008 403.811 204.36C401.763 208.712 400.099 213.576 398.819 218.952C397.539 224.243 396.899 229.576 396.899 234.952C396.899 245.704 399.63 251.08 405.091 251.08ZM460.011 254.152C456.512 254.152 453.824 252.787 451.947 250.056C450.07 247.325 449.728 243.613 450.923 238.92L461.163 200.264C462.272 196.253 461.59 194.248 459.115 194.248C457.323 194.248 455.531 195.528 453.739 198.088C452.032 200.648 450.155 204.829 448.107 210.632C447.766 211.656 447.168 212.168 446.315 212.168C445.888 212.168 445.547 211.997 445.291 211.656C445.035 211.229 444.992 210.717 445.163 210.12C450.112 194.675 456.299 186.952 463.723 186.952C466.624 186.952 468.587 188.147 469.611 190.536C470.635 192.925 470.592 196.211 469.483 200.392L458.731 241.224C457.963 244.125 457.92 246.259 458.603 247.624C459.286 248.989 460.31 249.672 461.675 249.672C465.856 249.672 470.507 244.552 475.627 234.312C480.832 223.987 485.398 208.925 489.323 189.128C489.579 188.189 490.176 187.72 491.115 187.72H496.107C497.302 187.72 497.771 188.275 497.515 189.384L487.275 241.224C486.678 244.04 486.72 246.173 487.403 247.624C488.171 248.989 489.366 249.672 490.987 249.672C493.462 249.672 495.979 248.477 498.539 246.088C501.099 243.699 503.403 240.584 505.451 236.744C507.584 232.904 509.291 228.68 510.571 224.072C511.851 219.464 512.491 214.941 512.491 210.504C512.491 206.92 512.192 204.104 511.595 202.056C511.083 199.923 510.528 198.131 509.931 196.68C509.334 195.229 509.035 193.651 509.035 191.944C509.035 188.616 510.486 186.952 513.387 186.952C515.435 186.952 516.758 188.104 517.355 190.408C517.952 192.627 518.251 195.997 518.251 200.52C518.251 207.005 517.44 213.448 515.819 219.848C514.283 226.163 512.15 231.923 509.419 237.128C506.774 242.248 503.702 246.387 500.203 249.544C496.79 252.616 493.163 254.152 489.323 254.152C485.654 254.152 482.838 252.744 480.875 249.928C478.912 247.027 478.486 242.845 479.595 237.384C479.766 236.787 479.638 236.445 479.211 236.36C478.87 236.275 478.571 236.488 478.315 237C475.926 241.779 473.238 245.832 470.251 249.16C467.264 252.488 463.851 254.152 460.011 254.152Z" fill="white"/>
<path d="M164.525 251.336L163.325 252.936L163.325 252.936L164.525 251.336ZM164.013 249.672H166.013V249.656L166.013 249.639L164.013 249.672ZM162.733 171.592H160.733V171.608L160.733 171.625L162.733 171.592ZM161.325 171.464L159.428 170.832L159.408 170.889L159.393 170.948L161.325 171.464ZM142.509 241.992L140.577 241.476L140.573 241.492L140.569 241.507L142.509 241.992ZM142.381 247.496L140.524 248.239L140.555 248.316L140.592 248.39L142.381 247.496ZM146.349 249.8L146.02 251.773L146.349 249.8ZM147.885 250.056L147.556 252.029L147.637 252.042L147.719 252.049L147.885 250.056ZM129.069 250.056L129.317 252.041L129.334 252.038L129.352 252.036L129.069 250.056ZM130.861 249.8L131.144 251.78L131.154 251.778L130.861 249.8ZM135.981 247.496L137.447 248.857L137.47 248.832L137.492 248.806L135.981 247.496ZM138.541 241.992L136.608 241.478L136.604 241.493L136.601 241.507L138.541 241.992ZM157.869 169.288L159.802 169.802L159.809 169.777L159.815 169.751L157.869 169.288ZM157.869 165.704L159.496 164.542L159.496 164.542L157.869 165.704ZM154.413 164.296L154.771 162.328L154.761 162.326L154.413 164.296ZM152.237 163.912L151.868 165.878L151.879 165.88L151.889 165.882L152.237 163.912ZM171.565 164.68H169.565V164.692L169.565 164.704L171.565 164.68ZM172.333 228.296H174.333V228.284L174.333 228.272L172.333 228.296ZM172.845 229.32L172.36 231.26L172.599 231.32H172.845V229.32ZM173.869 228.552L175.658 229.446L175.665 229.432L175.672 229.418L173.869 228.552ZM204.845 164.04L206.648 164.906L206.648 164.905L204.845 164.04ZM224.557 163.784L224.886 165.757L224.895 165.755L224.905 165.754L224.557 163.784ZM221.485 164.296L221.156 162.323L221.142 162.326L221.127 162.328L221.485 164.296ZM217.645 165.704L216.328 164.199L216.328 164.199L217.645 165.704ZM215.981 169.288L214.035 168.825L214.026 168.863L214.019 168.901L215.981 169.288ZM201.133 244.552L199.171 244.165L199.168 244.178L201.133 244.552ZM201.133 248.136L199.397 249.128L199.447 249.216L199.506 249.298L201.133 248.136ZM204.333 249.544L203.941 251.505L203.963 251.51L203.985 251.514L204.333 249.544ZM206.509 249.928L206.161 251.898L206.235 251.911L206.31 251.918L206.509 249.928ZM208.173 250.568L206.573 251.768L206.658 251.882L206.759 251.982L208.173 250.568ZM183.725 250.056L183.396 248.083L183.376 248.087L183.356 248.09L183.725 250.056ZM186.797 249.544L187.126 251.517L187.14 251.514L187.155 251.512L186.797 249.544ZM190.637 248.136L189.409 246.557L189.363 246.593L189.32 246.631L190.637 248.136ZM192.301 244.552L190.34 244.161L190.338 244.169L190.336 244.178L192.301 244.552ZM206.765 171.976L204.842 171.427L204.82 171.505L204.804 171.585L206.765 171.976ZM206.381 170.952L205.638 172.809L205.809 172.877L205.989 172.913L206.381 170.952ZM205.357 171.464L203.568 170.57L203.56 170.586L203.552 170.602L205.357 171.464ZM167.981 249.672L166.176 248.81L166.148 248.869L166.124 248.929L167.981 249.672ZM166.829 251.336L165.8 249.621L165.712 249.674L165.629 249.736L166.829 251.336ZM165.677 251.72V249.72C165.671 249.72 165.671 249.72 165.677 249.72C165.683 249.721 165.692 249.723 165.701 249.727C165.711 249.73 165.719 249.734 165.725 249.736C165.73 249.739 165.73 249.74 165.725 249.736L164.525 251.336L163.325 252.936C164.013 253.452 164.818 253.72 165.677 253.72V251.72ZM164.525 251.336L165.725 249.736C165.995 249.939 166.058 250.156 166.053 250.14C166.051 250.136 166.041 250.098 166.03 250.015C166.021 249.933 166.013 249.82 166.013 249.672H164.013H162.013C162.013 250.214 162.065 250.782 162.229 251.316C162.395 251.855 162.713 252.477 163.325 252.936L164.525 251.336ZM164.013 249.672L166.013 249.639L164.733 171.559L162.733 171.592L160.733 171.625L162.013 249.705L164.013 249.672ZM162.733 171.592H164.733C164.733 171.116 164.659 170.399 164.2 169.758C163.654 168.992 162.832 168.696 162.093 168.696V170.696V172.696C161.967 172.696 161.761 172.674 161.527 172.564C161.282 172.45 161.084 172.277 160.946 172.082C160.701 171.739 160.733 171.471 160.733 171.592H162.733ZM162.093 170.696V168.696C160.423 168.696 159.685 170.058 159.428 170.832L161.325 171.464L163.222 172.096C163.254 172.002 163.232 172.13 163.059 172.302C162.964 172.398 162.825 172.503 162.641 172.582C162.454 172.662 162.265 172.696 162.093 172.696V170.696ZM161.325 171.464L159.393 170.948L140.577 241.476L142.509 241.992L144.441 242.508L163.257 171.98L161.325 171.464ZM142.509 241.992L140.569 241.507C139.94 244.022 139.775 246.365 140.524 248.239L142.381 247.496L144.238 246.753C143.963 246.067 143.883 244.74 144.449 242.477L142.509 241.992ZM142.381 247.496L140.592 248.39C141.607 250.42 143.7 251.386 146.02 251.773L146.349 249.8L146.678 247.827C144.902 247.531 144.35 246.962 144.17 246.602L142.381 247.496ZM146.349 249.8L146.02 251.773L147.556 252.029L147.885 250.056L148.214 248.083L146.678 247.827L146.349 249.8ZM147.885 250.056L147.719 252.049C147.992 252.072 147.88 252.125 147.686 251.946C147.582 251.851 147.505 251.733 147.46 251.618C147.419 251.511 147.421 251.449 147.421 251.464H149.421H151.421C151.421 250.615 151.15 249.695 150.388 248.998C149.682 248.35 148.802 248.125 148.051 248.063L147.885 250.056ZM149.421 251.464H147.421C147.421 251.453 147.425 251.346 147.5 251.202C147.579 251.054 147.683 250.964 147.745 250.925C147.793 250.895 147.778 250.918 147.641 250.947C147.506 250.975 147.295 251 146.989 251V253V255C147.946 255 149.004 254.861 149.881 254.307C150.912 253.656 151.421 252.606 151.421 251.464H149.421ZM146.989 253V251H128.941V253V255H146.989V253ZM128.941 253V251C128.726 251 128.597 250.981 128.535 250.968C128.472 250.954 128.517 250.953 128.61 251.016C128.718 251.087 128.843 251.211 128.93 251.386C129.013 251.552 129.021 251.682 129.021 251.72H127.021H125.021C125.021 252.729 125.447 253.714 126.392 254.344C127.193 254.878 128.142 255 128.941 255V253ZM127.021 251.72H129.021C129.021 251.731 129.018 251.81 128.968 251.92C128.916 252.033 128.845 252.111 128.794 252.152C128.751 252.187 128.751 252.173 128.841 252.141C128.93 252.109 129.083 252.07 129.317 252.041L129.069 250.056L128.821 248.071C127.959 248.179 127.024 248.436 126.272 249.048C125.428 249.733 125.021 250.695 125.021 251.72H127.021ZM129.069 250.056L129.352 252.036L131.144 251.78L130.861 249.8L130.578 247.82L128.786 248.076L129.069 250.056ZM130.861 249.8L131.154 251.778C133.72 251.398 135.919 250.501 137.447 248.857L135.981 247.496L134.515 246.135C133.824 246.88 132.61 247.519 130.568 247.822L130.861 249.8ZM135.981 247.496L137.492 248.806C138.879 247.205 139.84 245.043 140.481 242.477L138.541 241.992L136.601 241.507C136.047 243.72 135.301 245.227 134.47 246.186L135.981 247.496ZM138.541 241.992L140.474 242.506L159.802 169.802L157.869 169.288L155.936 168.774L136.608 241.478L138.541 241.992ZM157.869 169.288L159.815 169.751C160.047 168.776 160.189 167.861 160.189 167.048C160.189 166.273 160.061 165.333 159.496 164.542L157.869 165.704L156.242 166.866C156.103 166.673 156.189 166.628 156.189 167.048C156.189 167.429 156.118 168.008 155.923 168.825L157.869 169.288ZM157.869 165.704L159.496 164.542C158.959 163.789 158.15 163.341 157.44 163.052C156.687 162.745 155.782 162.512 154.771 162.328L154.413 164.296L154.055 166.264C154.922 166.421 155.531 166.593 155.93 166.756C156.372 166.936 156.353 167.022 156.242 166.866L157.869 165.704ZM154.413 164.296L154.761 162.326L152.585 161.942L152.237 163.912L151.889 165.882L154.065 166.266L154.413 164.296ZM152.237 163.912L152.606 161.946C152.359 161.9 152.188 161.848 152.077 161.804C151.965 161.76 151.94 161.734 151.962 161.752C151.99 161.775 152.059 161.841 152.117 161.959C152.175 162.079 152.189 162.187 152.189 162.248H150.189H148.189C148.189 163.298 148.648 164.213 149.44 164.856C150.147 165.431 151.03 165.72 151.868 165.878L152.237 163.912ZM150.189 162.248H152.189C152.189 162.291 152.178 162.425 152.089 162.59C151.997 162.758 151.878 162.856 151.808 162.899C151.751 162.933 151.758 162.913 151.884 162.888C152.008 162.863 152.205 162.84 152.493 162.84V160.84V158.84C151.586 158.84 150.571 158.967 149.722 159.485C148.713 160.102 148.189 161.118 148.189 162.248H150.189ZM152.493 160.84V162.84H167.853V160.84V158.84H152.493V160.84ZM167.853 160.84V162.84C168.764 162.84 169.085 163.072 169.199 163.19C169.325 163.321 169.565 163.692 169.565 164.68H171.565H173.565C173.565 163.108 173.186 161.559 172.075 160.41C170.952 159.248 169.416 158.84 167.853 158.84V160.84ZM171.565 164.68L169.565 164.704L170.333 228.32L172.333 228.296L174.333 228.272L173.565 164.656L171.565 164.68ZM172.333 228.296H170.333C170.333 228.747 170.391 229.333 170.672 229.894C170.994 230.537 171.571 231.063 172.36 231.26L172.845 229.32L173.33 227.38C173.52 227.427 173.721 227.521 173.901 227.672C174.078 227.819 174.187 227.98 174.25 228.106C174.36 228.326 174.333 228.442 174.333 228.296H172.333ZM172.845 229.32V231.32C174.29 231.32 175.198 230.366 175.658 229.446L173.869 228.552L172.08 227.658C172.046 227.726 172.073 227.639 172.221 227.528C172.298 227.47 172.398 227.414 172.517 227.375C172.635 227.335 172.748 227.32 172.845 227.32V229.32ZM173.869 228.552L175.672 229.418L206.648 164.906L204.845 164.04L203.042 163.174L172.066 227.686L173.869 228.552ZM204.845 164.04L206.648 164.905C207.037 164.094 207.481 163.605 207.928 163.311C208.368 163.022 208.933 162.84 209.709 162.84V160.84V158.84C208.267 158.84 206.912 159.192 205.73 159.969C204.555 160.742 203.677 161.852 203.042 163.175L204.845 164.04ZM209.709 160.84V162.84H225.197V160.84V158.84H209.709V160.84ZM225.197 160.84V162.84C225.481 162.84 225.321 162.907 225.069 162.696C224.933 162.583 224.835 162.44 224.78 162.303C224.73 162.178 224.733 162.103 224.733 162.12H226.733H228.733C228.733 161.279 228.463 160.319 227.629 159.624C226.865 158.987 225.937 158.84 225.197 158.84V160.84ZM226.733 162.12H224.733C224.733 162.04 224.753 161.917 224.819 161.788C224.883 161.663 224.956 161.601 224.974 161.587C224.986 161.578 224.945 161.612 224.811 161.662C224.678 161.711 224.483 161.766 224.209 161.814L224.557 163.784L224.905 165.754C225.773 165.6 226.677 165.321 227.404 164.765C228.221 164.14 228.733 163.218 228.733 162.12H226.733ZM224.557 163.784L224.228 161.811L221.156 162.323L221.485 164.296L221.814 166.269L224.886 165.757L224.557 163.784ZM221.485 164.296L221.127 162.328C219.207 162.677 217.45 163.217 216.328 164.199L217.645 165.704L218.962 167.209C219.205 166.996 220.008 166.597 221.843 166.264L221.485 164.296ZM217.645 165.704L216.328 164.199C215.144 165.235 214.476 166.972 214.035 168.825L215.981 169.288L217.927 169.751C218.339 168.02 218.781 167.368 218.962 167.209L217.645 165.704ZM215.981 169.288L214.019 168.901L199.171 244.165L201.133 244.552L203.095 244.939L217.943 169.675L215.981 169.288ZM201.133 244.552L199.168 244.178C198.985 245.14 198.877 246.022 198.877 246.792C198.877 247.514 198.969 248.38 199.397 249.128L201.133 248.136L202.869 247.144C202.956 247.295 202.877 247.264 202.877 246.792C202.877 246.367 202.94 245.756 203.098 244.926L201.133 244.552ZM201.133 248.136L199.506 249.298C200.017 250.014 200.761 250.464 201.448 250.767C202.161 251.081 203.008 251.319 203.941 251.505L204.333 249.544L204.725 247.583C203.952 247.428 203.411 247.261 203.058 247.105C202.679 246.938 202.676 246.855 202.76 246.974L201.133 248.136ZM204.333 249.544L203.985 251.514L206.161 251.898L206.509 249.928L206.857 247.958L204.681 247.574L204.333 249.544ZM206.509 249.928L206.31 251.918C206.464 251.933 206.585 251.953 206.678 251.972C206.772 251.992 206.825 252.01 206.847 252.019C206.906 252.041 206.743 251.994 206.573 251.768L208.173 250.568L209.773 249.368C208.969 248.296 207.625 248.03 206.708 247.938L206.509 249.928ZM208.173 250.568L206.759 251.982C206.727 251.951 206.67 251.882 206.623 251.772C206.575 251.66 206.557 251.55 206.557 251.464H208.557H210.557C210.557 250.558 210.193 249.76 209.587 249.154L208.173 250.568ZM208.557 251.464H206.557C206.557 251.469 206.557 251.376 206.624 251.242C206.695 251.099 206.796 251.002 206.872 250.952C206.933 250.911 206.938 250.927 206.827 250.952C206.717 250.976 206.532 251 206.253 251V253V255C207.18 255 208.225 254.857 209.09 254.28C210.099 253.608 210.557 252.559 210.557 251.464H208.557ZM206.253 253V251H183.469V253V255H206.253V253ZM183.469 253V251C183.283 251 183.183 250.983 183.148 250.974C183.114 250.966 183.18 250.976 183.287 251.053C183.407 251.138 183.524 251.269 183.601 251.434C183.673 251.588 183.677 251.701 183.677 251.72H181.677H179.677C179.677 252.672 180.048 253.654 180.963 254.307C181.754 254.872 182.694 255 183.469 255V253ZM181.677 251.72H183.677C183.677 251.781 183.663 251.889 183.605 252.009C183.547 252.127 183.478 252.193 183.45 252.216C183.428 252.234 183.453 252.208 183.565 252.164C183.676 252.12 183.847 252.068 184.094 252.022L183.725 250.056L183.356 248.09C182.518 248.248 181.635 248.537 180.928 249.112C180.136 249.755 179.677 250.67 179.677 251.72H181.677ZM183.725 250.056L184.054 252.029L187.126 251.517L186.797 249.544L186.468 247.571L183.396 248.083L183.725 250.056ZM186.797 249.544L187.155 251.512C189.075 251.163 190.832 250.623 191.954 249.641L190.637 248.136L189.32 246.631C189.077 246.844 188.274 247.243 186.439 247.576L186.797 249.544ZM190.637 248.136L191.865 249.715C193.234 248.649 193.903 246.828 194.266 244.926L192.301 244.552L190.336 244.178C190.016 245.86 189.576 246.428 189.409 246.557L190.637 248.136ZM192.301 244.552L194.262 244.943L208.726 172.367L206.765 171.976L204.804 171.585L190.34 244.161L192.301 244.552ZM206.765 171.976L208.688 172.525C208.816 172.076 208.957 171.337 208.67 170.57C208.313 169.618 207.511 169.138 206.773 168.991L206.381 170.952L205.989 172.913C205.866 172.889 205.651 172.823 205.426 172.649C205.186 172.465 205.018 172.223 204.924 171.974C204.765 171.548 204.884 171.279 204.842 171.427L206.765 171.976ZM206.381 170.952L207.124 169.095C206.498 168.845 205.696 168.771 204.911 169.163C204.202 169.517 203.798 170.11 203.568 170.57L205.357 171.464L207.146 172.358C207.172 172.306 207.066 172.557 206.699 172.741C206.505 172.838 206.289 172.888 206.077 172.888C205.874 172.888 205.722 172.843 205.638 172.809L206.381 170.952ZM205.357 171.464L203.552 170.602L166.176 248.81L167.981 249.672L169.786 250.534L207.162 172.326L205.357 171.464ZM167.981 249.672L166.124 248.929C165.991 249.263 165.875 249.471 165.793 249.59C165.708 249.712 165.699 249.682 165.8 249.621L166.829 251.336L167.858 253.051C168.864 252.447 169.454 251.375 169.838 250.415L167.981 249.672ZM166.829 251.336L165.629 249.736C165.624 249.74 165.624 249.739 165.629 249.736C165.635 249.734 165.643 249.73 165.653 249.727C165.662 249.723 165.671 249.721 165.677 249.72C165.683 249.72 165.683 249.72 165.677 249.72V251.72V253.72C166.536 253.72 167.341 253.452 168.029 252.936L166.829 251.336ZM225.714 250.184L224.033 251.268L225.714 250.184ZM225.202 223.944L227.128 224.485L227.13 224.476L225.202 223.944ZM230.834 209.864L232.595 210.812L230.834 209.864ZM238.898 198.088L237.411 196.75L237.402 196.76L237.393 196.771L238.898 198.088ZM248.498 190.024L249.514 191.747L249.52 191.743L249.527 191.739L248.498 190.024ZM263.218 187.976L262.366 189.786L262.411 189.807L262.456 189.825L263.218 187.976ZM266.802 190.92L268.466 189.811L268.458 189.799L268.45 189.787L266.802 190.92ZM269.874 190.92L268.226 189.787L268.218 189.799L268.21 189.811L269.874 190.92ZM272.178 188.36L273.17 190.096L273.258 190.046L273.34 189.987L272.178 188.36ZM275.122 189.512L277.07 189.965L277.074 189.948L277.078 189.931L275.122 189.512ZM263.73 238.536L261.782 238.083L261.781 238.086L263.73 238.536ZM271.538 242.888L269.833 241.843L269.82 241.863L269.808 241.884L271.538 242.888ZM276.402 230.6L278.322 231.161L278.327 231.144L278.332 231.126L276.402 230.6ZM279.218 229.96L281.115 229.328V229.328L279.218 229.96ZM279.218 231.752L277.278 231.267L277.267 231.311L277.258 231.356L279.218 231.752ZM272.69 249.032L274.252 250.281L274.259 250.272L274.267 250.263L272.69 249.032ZM255.666 249.928L253.866 250.801L253.877 250.822L253.888 250.844L255.666 249.928ZM255.282 238.408L253.336 237.948L253.334 237.956L253.332 237.963L255.282 238.408ZM256.946 231.368L255.023 230.819L255.01 230.863L255 230.908L256.946 231.368ZM256.562 230.344L256.077 232.284L256.123 232.296L256.17 232.305L256.562 230.344ZM255.666 230.984L257.422 231.94L257.439 231.91L257.455 231.878L255.666 230.984ZM243.122 249.032L241.76 247.568L241.751 247.576L241.743 247.584L243.122 249.032ZM250.162 234.312L248.47 233.245L248.462 233.259L248.454 233.272L250.162 234.312ZM256.946 221.64L255.124 220.815L256.946 221.64ZM261.81 208.584L259.898 207.999L259.892 208.017L259.887 208.035L261.81 208.584ZM251.186 193.224L252.429 194.791L252.445 194.778L252.461 194.765L251.186 193.224ZM244.018 201.288L242.36 200.169L242.351 200.183L242.341 200.198L244.018 201.288ZM237.874 212.936L236.038 212.144L236.034 212.153L236.03 212.162L237.874 212.936ZM233.522 226.376L235.466 226.844L235.468 226.836L233.522 226.376ZM232.882 246.088L231.179 247.136L231.227 247.214L231.282 247.288L232.882 246.088ZM232.882 254.152V252.152C230.509 252.152 228.744 251.191 227.395 249.1L225.714 250.184L224.033 251.268C226.097 254.467 229.11 256.152 232.882 256.152V254.152ZM225.714 250.184L227.395 249.1C225.989 246.922 225.154 243.489 225.154 238.536H223.154H221.154C221.154 243.823 222.025 248.156 224.033 251.268L225.714 250.184ZM223.154 238.536H225.154C225.154 233.862 225.81 229.179 227.128 224.485L225.202 223.944L223.276 223.403C221.864 228.437 221.154 233.482 221.154 238.536H223.154ZM225.202 223.944L227.13 224.476C228.456 219.668 230.278 215.115 232.595 210.812L230.834 209.864L229.073 208.916C226.611 213.488 224.678 218.321 223.274 223.412L225.202 223.944ZM230.834 209.864L232.595 210.812C234.921 206.493 237.526 202.694 240.403 199.405L238.898 198.088L237.393 196.771C234.297 200.309 231.526 204.361 229.073 208.916L230.834 209.864ZM238.898 198.088L240.385 199.426C243.345 196.136 246.391 193.588 249.514 191.747L248.498 190.024L247.482 188.301C243.949 190.385 240.595 193.213 237.411 196.75L238.898 198.088ZM248.498 190.024L249.527 191.739C252.691 189.841 255.71 188.952 258.61 188.952V186.952V184.952C254.854 184.952 251.132 186.111 247.469 188.309L248.498 190.024ZM258.61 186.952V188.952C259.94 188.952 261.185 189.23 262.366 189.786L263.218 187.976L264.07 186.166C262.349 185.357 260.522 184.952 258.61 184.952V186.952ZM263.218 187.976L262.456 189.825C263.528 190.266 264.422 190.989 265.154 192.053L266.802 190.92L268.45 189.787C267.305 188.121 265.809 186.88 263.979 186.127L263.218 187.976ZM266.802 190.92L265.138 192.029C265.73 192.918 266.764 194.072 268.338 194.072V192.072V190.072C268.466 190.072 268.575 190.097 268.656 190.127C268.734 190.156 268.771 190.185 268.77 190.184C268.768 190.183 268.737 190.159 268.681 190.095C268.625 190.032 268.552 189.94 268.466 189.811L266.802 190.92ZM268.338 192.072V194.072C269.912 194.072 270.946 192.918 271.538 192.029L269.874 190.92L268.21 189.811C268.124 189.94 268.051 190.032 267.995 190.095C267.939 190.159 267.908 190.183 267.906 190.184C267.905 190.185 267.942 190.156 268.02 190.127C268.101 190.097 268.21 190.072 268.338 190.072V192.072ZM269.874 190.92L271.522 192.053C271.962 191.414 272.334 190.934 272.641 190.594C272.793 190.425 272.917 190.303 273.015 190.217C273.063 190.175 273.101 190.145 273.129 190.125C273.157 190.104 273.17 190.096 273.17 190.096L272.178 188.36L271.186 186.624C270.15 187.215 269.159 188.429 268.226 189.787L269.874 190.92ZM272.178 188.36L273.34 189.987C273.74 189.702 273.892 189.72 273.842 189.72V187.72V185.72C272.768 185.72 271.811 186.165 271.016 186.733L272.178 188.36ZM273.842 187.72V189.72C273.952 189.72 273.925 189.736 273.821 189.696C273.696 189.647 273.513 189.536 273.367 189.33C273.227 189.135 273.2 188.965 273.195 188.918C273.191 188.88 273.202 188.928 273.166 189.093L275.122 189.512L277.078 189.931C277.248 189.134 277.324 187.989 276.621 187.006C275.87 185.953 274.698 185.72 273.842 185.72V187.72ZM275.122 189.512L273.174 189.059L261.782 238.083L263.73 238.536L265.678 238.989L277.07 189.965L275.122 189.512ZM263.73 238.536L261.781 238.086C261.125 240.931 260.909 243.449 261.498 245.364C261.81 246.378 262.373 247.303 263.279 247.957C264.18 248.608 265.233 248.856 266.29 248.856V246.856V244.856C265.853 244.856 265.68 244.757 265.621 244.715C265.567 244.676 265.436 244.561 265.322 244.188C265.058 243.33 265.055 241.688 265.679 238.986L263.73 238.536ZM266.29 246.856V248.856C269.307 248.856 271.587 246.786 273.268 243.892L271.538 242.888L269.808 241.884C268.417 244.281 267.198 244.856 266.29 244.856V246.856ZM271.538 242.888L273.243 243.933C275.005 241.058 276.686 236.758 278.322 231.161L276.402 230.6L274.482 230.039C272.876 235.535 271.314 239.427 269.833 241.843L271.538 242.888ZM276.402 230.6L278.332 231.126C278.389 230.917 278.422 230.969 278.302 231.071C278.242 231.121 278.175 231.157 278.114 231.177C278.059 231.196 278.036 231.192 278.066 231.192V229.192V227.192C277.253 227.192 276.418 227.425 275.718 228.017C275.043 228.588 274.671 229.344 274.472 230.074L276.402 230.6ZM278.066 229.192V231.192C278.085 231.192 277.913 231.195 277.693 231.048C277.454 230.889 277.351 230.684 277.321 230.592L279.218 229.96L281.115 229.328C280.914 228.724 280.534 228.135 279.911 227.72C279.307 227.317 278.644 227.192 278.066 227.192V229.192ZM279.218 229.96L277.321 230.592C277.34 230.649 277.384 230.843 277.278 231.267L279.218 231.752L281.158 232.237C281.394 231.296 281.438 230.295 281.115 229.328L279.218 229.96ZM279.218 231.752L277.258 231.356C275.654 239.288 273.553 244.676 271.113 247.801L272.69 249.032L274.267 250.263C277.288 246.391 279.539 240.258 281.178 232.148L279.218 231.752ZM272.69 249.032L271.128 247.783C268.718 250.796 265.977 252.152 262.834 252.152V254.152V256.152C267.371 256.152 271.201 254.095 274.252 250.281L272.69 249.032ZM262.834 254.152V252.152C261.455 252.152 260.392 251.862 259.561 251.373C258.736 250.887 258.022 250.133 257.444 249.012L255.666 249.928L253.888 250.844C254.761 252.539 255.966 253.897 257.531 254.819C259.089 255.738 260.885 256.152 262.834 256.152V254.152ZM255.666 249.928L257.466 249.055C256.386 246.829 256.168 243.52 257.232 238.853L255.282 238.408L253.332 237.963C252.178 243.024 252.215 247.395 253.866 250.801L255.666 249.928ZM255.282 238.408L257.228 238.868L258.892 231.828L256.946 231.368L255 230.908L253.336 237.948L255.282 238.408ZM256.946 231.368L258.869 231.917C258.997 231.468 259.138 230.729 258.851 229.962C258.494 229.01 257.692 228.53 256.954 228.383L256.562 230.344L256.17 232.305C256.047 232.281 255.832 232.215 255.607 232.041C255.367 231.857 255.199 231.615 255.105 231.366C254.946 230.94 255.065 230.671 255.023 230.819L256.946 231.368ZM256.562 230.344L257.047 228.404C256.28 228.212 255.522 228.382 254.92 228.813C254.397 229.186 254.077 229.69 253.877 230.09L255.666 230.984L257.455 231.878C257.511 231.766 257.469 231.907 257.244 232.067C257.118 232.158 256.936 232.251 256.706 232.297C256.474 232.344 256.256 232.329 256.077 232.284L256.562 230.344ZM255.666 230.984L253.91 230.028C249.24 238.602 245.184 244.382 241.76 247.568L243.122 249.032L244.484 250.496C248.399 246.855 252.705 240.603 257.422 231.94L255.666 230.984ZM243.122 249.032L241.743 247.584C238.34 250.824 235.397 252.152 232.882 252.152V254.152V256.152C236.852 256.152 240.736 254.066 244.501 250.48L243.122 249.032ZM236.082 247.624V249.624C238.931 249.624 241.679 247.927 244.28 245.326L242.866 243.912L241.452 242.498C239.104 244.846 237.329 245.624 236.082 245.624V247.624ZM242.866 243.912L244.28 245.326C246.896 242.71 249.422 239.374 251.87 235.352L250.162 234.312L248.454 233.272C246.123 237.101 243.785 240.164 241.452 242.498L242.866 243.912ZM250.162 234.312L251.854 235.379C254.381 231.371 256.685 227.065 258.768 222.465L256.946 221.64L255.124 220.815C253.111 225.26 250.893 229.403 248.47 233.245L250.162 234.312ZM256.946 221.64L258.768 222.465C260.851 217.865 262.508 213.421 263.733 209.133L261.81 208.584L259.887 208.035C258.723 212.11 257.137 216.369 255.124 220.815L256.946 221.64ZM261.81 208.584L263.722 209.169C265.034 204.884 265.73 201.133 265.73 197.96H263.73H261.73C261.73 200.59 261.146 203.921 259.898 207.999L261.81 208.584ZM263.73 197.96H265.73C265.73 195.183 265.252 192.743 263.989 190.952C262.635 189.032 260.597 188.152 258.226 188.152V190.152V192.152C259.524 192.152 260.238 192.573 260.719 193.256C261.291 194.067 261.73 195.531 261.73 197.96H263.73ZM258.226 190.152V188.152C255.372 188.152 252.588 189.468 249.911 191.683L251.186 193.224L252.461 194.765C254.734 192.884 256.642 192.152 258.226 192.152V190.152ZM251.186 193.224L249.943 191.657C247.268 193.779 244.746 196.635 242.36 200.169L244.018 201.288L245.676 202.407C247.898 199.115 250.155 196.595 252.429 194.791L251.186 193.224ZM244.018 201.288L242.341 200.198C240.052 203.72 237.953 207.705 236.038 212.144L237.874 212.936L239.71 213.728C241.55 209.463 243.547 205.683 245.695 202.378L244.018 201.288ZM237.874 212.936L236.03 212.162C234.194 216.534 232.709 221.12 231.576 225.916L233.522 226.376L235.468 226.836C236.553 222.246 237.97 217.871 239.718 213.71L237.874 212.936ZM233.522 226.376L231.578 225.908C230.434 230.659 229.858 235.339 229.858 239.944H231.858H233.858C233.858 235.675 234.392 231.309 235.466 226.844L233.522 226.376ZM231.858 239.944H229.858C229.858 241.504 229.946 242.88 230.141 244.049C230.332 245.194 230.645 246.27 231.179 247.136L232.882 246.088L234.585 245.04C234.436 244.797 234.237 244.294 234.087 243.391C233.94 242.512 233.858 241.371 233.858 239.944H231.858ZM232.882 246.088L231.282 247.288C232.456 248.853 234.136 249.624 236.082 249.624V247.624V245.624C235.297 245.624 234.844 245.371 234.482 244.888L232.882 246.088ZM292.739 251.336L290.793 250.873L290.79 250.886L292.739 251.336ZM304.899 200.264L306.845 200.727L306.847 200.717L306.849 200.707L304.899 200.264ZM305.027 195.912L303.078 196.362L303.1 196.454L303.13 196.544L305.027 195.912ZM297.603 197.704L296.053 196.441L296.047 196.447L297.603 197.704ZM291.459 210.504L289.58 209.818L289.563 209.867L289.547 209.916L291.459 210.504ZM288.643 209.864L290.507 210.589L290.53 210.531L290.548 210.472L288.643 209.864ZM294.531 196.04L292.847 194.961L292.837 194.976L292.828 194.992L294.531 196.04ZM300.931 189L302.009 190.685L300.931 189ZM312.835 190.152L311.09 191.129L311.099 191.145L311.107 191.16L312.835 190.152ZM312.963 200.392L314.91 200.848L314.911 200.844L312.963 200.392ZM311.555 206.408L309.608 205.952L309.588 206.038L309.575 206.125L311.555 206.408ZM311.939 207.432L311.454 209.372H311.454L311.939 207.432ZM312.835 206.792L314.624 207.686L314.647 207.64L314.668 207.593L312.835 206.792ZM321.667 191.304L323.145 192.652L321.667 191.304ZM335.875 188.872L334.364 190.182L334.41 190.236L334.461 190.286L335.875 188.872ZM336.131 198.984L334.569 197.735L336.131 198.984ZM329.219 199.88L330.724 198.563H330.724L329.219 199.88ZM327.811 197.576L325.881 198.102L325.912 198.213L325.954 198.319L327.811 197.576ZM326.915 195.144L328.704 194.25V194.25L326.915 195.144ZM320.259 198.984L318.568 197.916L320.259 198.984ZM313.603 212.168L311.766 211.377L311.763 211.384L311.76 211.391L313.603 212.168ZM306.819 230.6L304.917 229.982L304.913 229.993L304.91 230.003L306.819 230.6ZM301.187 251.592L303.117 252.118L303.128 252.076L303.138 252.033L301.187 251.592ZM294.147 253V251C293.991 251 293.965 250.98 294.019 250.999C294.087 251.021 294.261 251.098 294.426 251.292C294.594 251.491 294.652 251.696 294.667 251.81C294.679 251.904 294.659 251.909 294.688 251.786L292.739 251.336L290.79 250.886C290.602 251.701 290.542 252.894 291.372 253.876C292.174 254.824 293.331 255 294.147 255V253ZM292.739 251.336L294.685 251.799L306.845 200.727L304.899 200.264L302.953 199.801L290.793 250.873L292.739 251.336ZM304.899 200.264L306.849 200.707C307.302 198.715 307.44 196.828 306.924 195.28L305.027 195.912L303.13 196.544C303.296 197.044 303.349 198.058 302.949 199.821L304.899 200.264ZM305.027 195.912L306.976 195.462C306.762 194.536 306.282 193.658 305.43 193.043C304.604 192.446 303.638 192.248 302.723 192.248V194.248V196.248C303.088 196.248 303.146 196.327 303.088 196.285C303.06 196.265 303.041 196.241 303.036 196.232C303.033 196.228 303.055 196.262 303.078 196.362L305.027 195.912ZM302.723 194.248V192.248C300.214 192.248 297.986 194.067 296.053 196.441L297.603 197.704L299.153 198.967C300.974 196.733 302.16 196.248 302.723 196.248V194.248ZM297.603 197.704L296.047 196.447C294.026 198.95 291.885 203.502 289.58 209.818L291.459 210.504L293.338 211.19C295.641 204.877 297.596 200.895 299.159 198.961L297.603 197.704ZM291.459 210.504L289.547 209.916C289.496 210.084 289.447 210.19 289.413 210.249C289.38 210.308 289.369 210.31 289.394 210.286C289.423 210.26 289.475 210.223 289.545 210.196C289.613 210.17 289.66 210.168 289.667 210.168V212.168V214.168C290.572 214.168 291.429 213.856 292.116 213.218C292.758 212.621 293.138 211.848 293.371 211.092L291.459 210.504ZM289.667 212.168V210.168C289.526 210.168 289.585 210.144 289.739 210.217C289.824 210.257 289.932 210.324 290.037 210.43C290.144 210.537 290.225 210.659 290.279 210.78C290.382 211.012 290.352 211.156 290.359 211.093C290.365 211.033 290.396 210.873 290.507 210.589L288.643 209.864L286.779 209.139C286.45 209.985 286.104 211.237 286.623 212.404C287.27 213.859 288.705 214.168 289.667 214.168V212.168ZM288.643 209.864L290.548 210.472C292.402 204.66 294.306 200.222 296.234 197.088L294.531 196.04L292.828 194.992C290.66 198.514 288.639 203.292 286.738 209.256L288.643 209.864ZM294.531 196.04L296.215 197.119C298.271 193.912 300.217 191.831 302.009 190.685L300.931 189L299.853 187.315C297.378 188.899 295.058 191.512 292.847 194.961L294.531 196.04ZM300.931 189L302.009 190.685C303.948 189.444 305.536 188.952 306.819 188.952V186.952V184.952C304.518 184.952 302.181 185.826 299.853 187.315L300.931 189ZM306.819 186.952V188.952C309.043 188.952 310.309 189.735 311.09 191.129L312.835 190.152L314.58 189.175C312.971 186.302 310.227 184.952 306.819 184.952V186.952ZM312.835 190.152L311.107 191.16C311.471 191.782 311.744 192.769 311.763 194.273C311.782 195.766 311.547 197.645 311.015 199.94L312.963 200.392L314.911 200.844C315.488 198.36 315.787 196.143 315.763 194.223C315.739 192.313 315.394 190.57 314.563 189.144L312.835 190.152ZM312.963 200.392L311.016 199.936L309.608 205.952L311.555 206.408L313.502 206.864L314.91 200.848L312.963 200.392ZM311.555 206.408L309.575 206.125C309.512 206.563 309.479 207.187 309.714 207.814C309.999 208.574 310.618 209.163 311.454 209.372L311.939 207.432L312.424 205.492C312.623 205.542 312.857 205.648 313.068 205.84C313.278 206.03 313.397 206.242 313.46 206.41C313.567 206.696 313.512 206.85 313.535 206.691L311.555 206.408ZM311.939 207.432L311.454 209.372C312.221 209.564 312.979 209.394 313.581 208.963C314.104 208.59 314.424 208.086 314.624 207.686L312.835 206.792L311.046 205.898C310.99 206.01 311.032 205.869 311.257 205.709C311.383 205.618 311.565 205.525 311.795 205.479C312.027 205.432 312.245 205.447 312.424 205.492L311.939 207.432ZM312.835 206.792L314.668 207.593C317.896 200.203 320.733 195.297 323.145 192.652L321.667 191.304L320.189 189.956C317.31 193.114 314.26 198.533 311.002 205.991L312.835 206.792ZM321.667 191.304L323.145 192.652C325.474 190.097 327.991 188.952 330.755 188.952V186.952V184.952C326.692 184.952 323.151 186.708 320.189 189.956L321.667 191.304ZM330.755 186.952V188.952C332.698 188.952 333.757 189.482 334.364 190.182L335.875 188.872L337.386 187.562C335.774 185.702 333.42 184.952 330.755 184.952V186.952ZM335.875 188.872L334.461 190.286C335.188 191.013 335.667 192.114 335.667 193.864H337.667H339.667C339.667 191.347 338.951 189.12 337.289 187.458L335.875 188.872ZM337.667 193.864H335.667C335.667 195.681 335.234 196.904 334.569 197.735L336.131 198.984L337.693 200.233C339.076 198.504 339.667 196.313 339.667 193.864H337.667ZM336.131 198.984L334.569 197.735C333.92 198.546 333.169 198.904 332.163 198.904V200.904V202.904C334.4 202.904 336.294 201.982 337.693 200.233L336.131 198.984ZM332.163 200.904V198.904C331.081 198.904 330.784 198.631 330.724 198.563L329.219 199.88L327.714 201.197C328.849 202.494 330.515 202.904 332.163 202.904V200.904ZM329.219 199.88L330.724 198.563C330.278 198.053 329.926 197.479 329.668 196.833L327.811 197.576L325.954 198.319C326.378 199.379 326.966 200.342 327.714 201.197L329.219 199.88ZM327.811 197.576L329.741 197.05C329.459 196.017 329.118 195.077 328.704 194.25L326.915 195.144L325.126 196.038C325.395 196.576 325.651 197.258 325.881 198.102L327.811 197.576ZM326.915 195.144L328.704 194.25C328.396 193.633 327.937 193.07 327.291 192.673C326.646 192.276 325.938 192.12 325.251 192.12V194.12V196.12C325.295 196.12 325.304 196.125 325.287 196.121C325.269 196.116 325.234 196.104 325.195 196.079C325.155 196.055 325.128 196.029 325.114 196.013C325.101 195.998 325.108 196.002 325.126 196.038L326.915 195.144ZM325.251 194.12V192.12C323.802 192.12 322.577 192.998 321.647 193.904C320.654 194.871 319.629 196.236 318.568 197.916L320.259 198.984L321.95 200.052C322.937 198.489 323.768 197.422 324.439 196.768C325.173 196.053 325.42 196.12 325.251 196.12V194.12ZM320.259 198.984L318.568 197.916C316.442 201.282 314.176 205.782 311.766 211.377L313.603 212.168L315.44 212.959C317.808 207.461 319.98 203.171 321.95 200.052L320.259 198.984ZM313.603 212.168L311.76 211.391C309.43 216.914 307.15 223.112 304.917 229.982L306.819 230.6L308.721 231.218C310.926 224.435 313.168 218.345 315.446 212.945L313.603 212.168ZM306.819 230.6L304.91 230.003C302.76 236.883 300.869 243.932 299.236 251.151L301.187 251.592L303.138 252.033C304.748 244.916 306.611 237.971 308.728 231.197L306.819 230.6ZM301.187 251.592L299.257 251.066C299.234 251.153 299.215 251.18 299.221 251.171C299.228 251.159 299.256 251.119 299.311 251.075C299.367 251.032 299.42 251.009 299.451 250.999C299.477 250.991 299.464 251 299.395 251V253V255C300.204 255 301.055 254.792 301.783 254.221C302.503 253.654 302.907 252.885 303.117 252.118L301.187 251.592ZM299.395 253V251H294.147V253V255H299.395V253ZM343.704 251.336L341.758 250.873L341.755 250.886L343.704 251.336ZM355.864 200.264L357.81 200.727L357.812 200.717L357.814 200.707L355.864 200.264ZM355.992 195.912L354.043 196.362L354.065 196.454L354.095 196.544L355.992 195.912ZM348.568 197.704L347.018 196.441L347.012 196.447L348.568 197.704ZM342.424 210.504L340.545 209.818L340.528 209.867L340.512 209.916L342.424 210.504ZM339.608 209.864L341.472 210.589L341.495 210.531L341.513 210.472L339.608 209.864ZM345.496 196.04L343.812 194.961L343.802 194.976L343.793 194.992L345.496 196.04ZM351.896 189L352.974 190.685L351.896 189ZM363.8 190.152L362.055 191.129L362.064 191.145L362.072 191.16L363.8 190.152ZM363.928 200.392L365.875 200.848L365.876 200.844L363.928 200.392ZM362.52 206.408L360.573 205.952L360.553 206.038L360.54 206.125L362.52 206.408ZM362.904 207.432L362.419 209.372H362.419L362.904 207.432ZM363.8 206.792L365.589 207.686L365.612 207.64L365.633 207.593L363.8 206.792ZM372.632 191.304L374.11 192.652L372.632 191.304ZM386.84 188.872L385.329 190.182L385.375 190.236L385.426 190.286L386.84 188.872ZM387.096 198.984L385.534 197.735L387.096 198.984ZM380.184 199.88L381.689 198.563L380.184 199.88ZM378.776 197.576L376.846 198.102L376.877 198.213L376.919 198.319L378.776 197.576ZM377.88 195.144L379.669 194.25V194.25L377.88 195.144ZM371.224 198.984L369.533 197.916L371.224 198.984ZM364.568 212.168L362.731 211.377L362.728 211.384L362.725 211.391L364.568 212.168ZM357.784 230.6L355.882 229.982L355.878 229.993L355.875 230.003L357.784 230.6ZM352.152 251.592L354.082 252.118L354.093 252.076L354.103 252.033L352.152 251.592ZM345.112 253V251C344.956 251 344.93 250.98 344.984 250.999C345.052 251.021 345.226 251.098 345.391 251.292C345.559 251.491 345.617 251.696 345.632 251.81C345.644 251.904 345.624 251.909 345.653 251.786L343.704 251.336L341.755 250.886C341.567 251.701 341.507 252.894 342.337 253.876C343.139 254.824 344.296 255 345.112 255V253ZM343.704 251.336L345.65 251.799L357.81 200.727L355.864 200.264L353.918 199.801L341.758 250.873L343.704 251.336ZM355.864 200.264L357.814 200.707C358.267 198.715 358.405 196.828 357.889 195.28L355.992 195.912L354.095 196.544C354.261 197.044 354.314 198.058 353.914 199.821L355.864 200.264ZM355.992 195.912L357.941 195.462C357.727 194.536 357.247 193.658 356.395 193.043C355.569 192.446 354.603 192.248 353.688 192.248V194.248V196.248C354.053 196.248 354.111 196.327 354.053 196.285C354.025 196.265 354.006 196.241 354.001 196.232C353.998 196.228 354.02 196.262 354.043 196.362L355.992 195.912ZM353.688 194.248V192.248C351.179 192.248 348.951 194.067 347.018 196.441L348.568 197.704L350.118 198.967C351.939 196.733 353.125 196.248 353.688 196.248V194.248ZM348.568 197.704L347.012 196.447C344.991 198.95 342.85 203.502 340.545 209.818L342.424 210.504L344.303 211.19C346.606 204.877 348.561 200.895 350.124 198.961L348.568 197.704ZM342.424 210.504L340.512 209.916C340.461 210.084 340.412 210.19 340.378 210.249C340.345 210.308 340.334 210.31 340.359 210.286C340.388 210.26 340.44 210.223 340.51 210.196C340.578 210.17 340.625 210.168 340.632 210.168V212.168V214.168C341.537 214.168 342.394 213.856 343.081 213.218C343.723 212.621 344.103 211.848 344.336 211.092L342.424 210.504ZM340.632 212.168V210.168C340.491 210.168 340.55 210.144 340.704 210.217C340.789 210.257 340.897 210.324 341.002 210.43C341.109 210.537 341.19 210.659 341.244 210.78C341.347 211.012 341.317 211.156 341.324 211.093C341.33 211.033 341.361 210.873 341.472 210.589L339.608 209.864L337.744 209.139C337.415 209.985 337.07 211.237 337.588 212.404C338.235 213.859 339.67 214.168 340.632 214.168V212.168ZM339.608 209.864L341.513 210.472C343.367 204.66 345.271 200.222 347.199 197.088L345.496 196.04L343.793 194.992C341.625 198.514 339.604 203.292 337.703 209.256L339.608 209.864ZM345.496 196.04L347.18 197.119C349.236 193.912 351.182 191.831 352.974 190.685L351.896 189L350.818 187.315C348.343 188.899 346.023 191.512 343.812 194.961L345.496 196.04ZM351.896 189L352.974 190.685C354.913 189.444 356.501 188.952 357.784 188.952V186.952V184.952C355.483 184.952 353.146 185.826 350.818 187.315L351.896 189ZM357.784 186.952V188.952C360.008 188.952 361.274 189.735 362.055 191.129L363.8 190.152L365.545 189.175C363.936 186.302 361.192 184.952 357.784 184.952V186.952ZM363.8 190.152L362.072 191.16C362.436 191.782 362.709 192.769 362.728 194.273C362.747 195.766 362.512 197.645 361.98 199.94L363.928 200.392L365.876 200.844C366.453 198.36 366.752 196.143 366.728 194.223C366.704 192.313 366.359 190.57 365.528 189.144L363.8 190.152ZM363.928 200.392L361.981 199.936L360.573 205.952L362.52 206.408L364.467 206.864L365.875 200.848L363.928 200.392ZM362.52 206.408L360.54 206.125C360.478 206.563 360.444 207.187 360.679 207.814C360.964 208.574 361.583 209.163 362.419 209.372L362.904 207.432L363.389 205.492C363.588 205.542 363.822 205.648 364.033 205.84C364.243 206.03 364.362 206.242 364.425 206.41C364.532 206.696 364.477 206.85 364.5 206.691L362.52 206.408ZM362.904 207.432L362.419 209.372C363.186 209.564 363.944 209.394 364.546 208.963C365.069 208.59 365.389 208.086 365.589 207.686L363.8 206.792L362.011 205.898C361.955 206.01 361.997 205.869 362.222 205.709C362.348 205.618 362.53 205.525 362.76 205.479C362.992 205.432 363.21 205.447 363.389 205.492L362.904 207.432ZM363.8 206.792L365.633 207.593C368.861 200.203 371.698 195.297 374.11 192.652L372.632 191.304L371.154 189.956C368.275 193.114 365.225 198.533 361.967 205.991L363.8 206.792ZM372.632 191.304L374.11 192.652C376.439 190.097 378.956 188.952 381.72 188.952V186.952V184.952C377.657 184.952 374.116 186.708 371.154 189.956L372.632 191.304ZM381.72 186.952V188.952C383.663 188.952 384.722 189.482 385.329 190.182L386.84 188.872L388.351 187.562C386.739 185.702 384.385 184.952 381.72 184.952V186.952ZM386.84 188.872L385.426 190.286C386.153 191.013 386.632 192.114 386.632 193.864H388.632H390.632C390.632 191.347 389.916 189.12 388.254 187.458L386.84 188.872ZM388.632 193.864H386.632C386.632 195.681 386.199 196.904 385.534 197.735L387.096 198.984L388.658 200.233C390.041 198.504 390.632 196.313 390.632 193.864H388.632ZM387.096 198.984L385.534 197.735C384.885 198.546 384.134 198.904 383.128 198.904V200.904V202.904C385.365 202.904 387.259 201.982 388.658 200.233L387.096 198.984ZM383.128 200.904V198.904C382.046 198.904 381.749 198.631 381.689 198.563L380.184 199.88L378.679 201.197C379.814 202.494 381.48 202.904 383.128 202.904V200.904ZM380.184 199.88L381.689 198.563C381.243 198.053 380.891 197.479 380.633 196.833L378.776 197.576L376.919 198.319C377.343 199.379 377.931 200.342 378.679 201.197L380.184 199.88ZM378.776 197.576L380.706 197.05C380.424 196.017 380.083 195.077 379.669 194.25L377.88 195.144L376.091 196.038C376.36 196.576 376.616 197.258 376.846 198.102L378.776 197.576ZM377.88 195.144L379.669 194.25C379.361 193.633 378.902 193.07 378.256 192.673C377.611 192.276 376.903 192.12 376.216 192.12V194.12V196.12C376.26 196.12 376.269 196.125 376.252 196.121C376.234 196.116 376.199 196.104 376.16 196.079C376.12 196.055 376.093 196.029 376.079 196.013C376.066 195.998 376.073 196.002 376.091 196.038L377.88 195.144ZM376.216 194.12V192.12C374.767 192.12 373.542 192.998 372.612 193.904C371.619 194.871 370.594 196.236 369.533 197.916L371.224 198.984L372.915 200.052C373.902 198.489 374.733 197.422 375.404 196.768C376.138 196.053 376.385 196.12 376.216 196.12V194.12ZM371.224 198.984L369.533 197.916C367.407 201.282 365.141 205.782 362.731 211.377L364.568 212.168L366.405 212.959C368.773 207.461 370.945 203.171 372.915 200.052L371.224 198.984ZM364.568 212.168L362.725 211.391C360.395 216.914 358.115 223.112 355.882 229.982L357.784 230.6L359.686 231.218C361.891 224.435 364.133 218.345 366.411 212.945L364.568 212.168ZM357.784 230.6L355.875 230.003C353.725 236.883 351.834 243.932 350.201 251.151L352.152 251.592L354.103 252.033C355.713 244.916 357.576 237.971 359.693 231.197L357.784 230.6ZM352.152 251.592L350.222 251.066C350.199 251.153 350.18 251.18 350.186 251.171C350.193 251.159 350.221 251.119 350.276 251.075C350.332 251.032 350.385 251.009 350.416 250.999C350.442 250.991 350.429 251 350.36 251V253V255C351.169 255 352.02 254.792 352.748 254.221C353.468 253.654 353.872 252.885 354.082 252.118L352.152 251.592ZM350.36 253V251H345.112V253V255H350.36V253ZM392.803 247.624L391.159 248.762L391.164 248.77L391.169 248.777L392.803 247.624ZM390.883 213.704L388.995 213.043L390.883 213.704ZM397.923 200.008L396.319 198.813L396.311 198.825L396.303 198.836L397.923 200.008ZM407.779 190.536L408.861 192.218L408.87 192.212L407.779 190.536ZM431.331 193.48L432.965 192.327L431.331 193.48ZM433.251 227.4L435.139 228.061L433.251 227.4ZM426.083 241.096L424.479 239.901L424.471 239.913L424.463 239.924L426.083 241.096ZM416.227 250.696L417.309 252.378L417.318 252.372L416.227 250.696ZM413.027 247.112L411.613 245.698L411.601 245.709L411.59 245.721L413.027 247.112ZM425.315 222.152L427.259 222.622L427.261 222.615L425.315 222.152ZM410.979 193.992L412.37 195.429L412.382 195.418L412.393 195.406L410.979 193.992ZM403.811 204.36L402.015 203.48L402.008 203.494L402.001 203.508L403.811 204.36ZM398.819 218.952L400.763 219.422L400.765 219.415L398.819 218.952ZM405.347 254.152V252.152C400.712 252.152 397.137 250.296 394.437 246.471L392.803 247.624L391.169 248.777C394.613 253.656 399.401 256.152 405.347 256.152V254.152ZM392.803 247.624L394.447 246.486C391.682 242.49 390.195 236.961 390.195 229.704H388.195H386.195C386.195 237.466 387.781 243.883 391.159 248.762L392.803 247.624ZM388.195 229.704H390.195C390.195 224.377 391.055 219.268 392.771 214.365L390.883 213.704L388.995 213.043C387.127 218.38 386.195 223.937 386.195 229.704H388.195ZM390.883 213.704L392.771 214.365C394.505 209.41 396.766 205.02 399.543 201.18L397.923 200.008L396.303 198.836C393.278 203.017 390.845 207.758 388.995 213.043L390.883 213.704ZM397.923 200.008L399.527 201.203C402.395 197.352 405.51 194.372 408.861 192.218L407.779 190.536L406.698 188.854C402.88 191.308 399.425 194.643 396.319 198.813L397.923 200.008ZM407.779 190.536L408.87 192.212C412.279 189.993 415.575 188.952 418.787 188.952V186.952V184.952C414.661 184.952 410.618 186.301 406.688 188.86L407.779 190.536ZM418.787 186.952V188.952C423.423 188.952 426.997 190.808 429.697 194.633L431.331 193.48L432.965 192.327C429.521 187.448 424.733 184.952 418.787 184.952V186.952ZM431.331 193.48L429.697 194.633C432.449 198.532 433.939 204.049 433.939 211.4H435.939H437.939C437.939 203.562 436.357 197.132 432.965 192.327L431.331 193.48ZM435.939 211.4H433.939C433.939 216.727 433.079 221.836 431.363 226.739L433.251 227.4L435.139 228.061C437.007 222.724 437.939 217.167 437.939 211.4H435.939ZM433.251 227.4L431.363 226.739C429.633 231.684 427.335 236.067 424.479 239.901L426.083 241.096L427.687 242.291C430.805 238.104 433.285 233.356 435.139 228.061L433.251 227.4ZM426.083 241.096L424.463 239.924C421.687 243.761 418.574 246.781 415.136 249.02L416.227 250.696L417.318 252.372C421.219 249.832 424.677 246.452 427.703 242.268L426.083 241.096ZM416.227 250.696L415.146 249.014C411.831 251.144 408.574 252.152 405.347 252.152V254.152V256.152C409.458 256.152 413.455 254.856 417.309 252.378L416.227 250.696ZM405.091 251.08V253.08C408.532 253.08 411.663 251.397 414.464 248.503L413.027 247.112L411.59 245.721C409.271 248.117 407.112 249.08 405.091 249.08V251.08ZM413.027 247.112L414.441 248.526C417.281 245.687 419.788 241.991 421.991 237.496L420.195 236.616L418.399 235.736C416.336 239.945 414.064 243.246 411.613 245.698L413.027 247.112ZM420.195 236.616L421.991 237.496C424.196 232.999 425.949 228.038 427.259 222.622L425.315 222.152L423.371 221.682C422.121 226.848 420.461 231.529 418.399 235.736L420.195 236.616ZM425.315 222.152L427.261 222.615C428.576 217.092 429.235 211.56 429.235 206.024H427.235H425.235C425.235 211.24 424.614 216.46 423.369 221.689L425.315 222.152ZM427.235 206.024H429.235C429.235 200.582 428.539 196.196 426.929 193.101C426.11 191.525 425.026 190.232 423.634 189.34C422.234 188.442 420.636 188.024 418.915 188.024V190.024V192.024C419.967 192.024 420.796 192.272 421.476 192.708C422.164 193.149 422.814 193.857 423.381 194.947C424.545 197.186 425.235 200.799 425.235 206.024H427.235ZM418.915 190.024V188.024C415.552 188.024 412.428 189.714 409.565 192.578L410.979 193.992L412.393 195.406C414.821 192.979 416.987 192.024 418.915 192.024V190.024ZM410.979 193.992L409.588 192.555C406.733 195.317 404.22 198.982 402.015 203.48L403.811 204.36L405.607 205.24C407.669 201.034 409.934 197.787 412.37 195.429L410.979 193.992ZM403.811 204.36L402.001 203.508C399.887 208.002 398.181 212.998 396.873 218.489L398.819 218.952L400.765 219.415C402.017 214.154 403.639 209.422 405.621 205.212L403.811 204.36ZM398.819 218.952L396.875 218.482C395.558 223.924 394.899 229.416 394.899 234.952H396.899H398.899C398.899 229.736 399.52 224.561 400.763 219.422L398.819 218.952ZM396.899 234.952H394.899C394.899 240.433 395.584 244.844 397.164 247.954C397.968 249.537 399.034 250.841 400.41 251.744C401.796 252.654 403.382 253.08 405.091 253.08V251.08V249.08C404.069 249.08 403.266 248.834 402.604 248.4C401.932 247.959 401.291 247.247 400.73 246.142C399.579 243.876 398.899 240.223 398.899 234.952H396.899ZM451.947 250.056L453.595 248.923L451.947 250.056ZM450.923 238.92L448.99 238.408L448.987 238.417L448.985 238.427L450.923 238.92ZM461.163 200.264L459.235 199.731L459.232 199.741L459.23 199.752L461.163 200.264ZM453.739 198.088L452.101 196.941L452.088 196.96L452.075 196.979L453.739 198.088ZM448.107 210.632L446.221 209.966L446.215 209.983L446.21 210L448.107 210.632ZM445.291 211.656L443.576 212.685L443.629 212.773L443.691 212.856L445.291 211.656ZM445.163 210.12L443.258 209.51L443.249 209.54L443.24 209.571L445.163 210.12ZM469.611 190.536L471.449 189.748L469.611 190.536ZM469.483 200.392L467.55 199.879L467.549 199.883L469.483 200.392ZM458.731 241.224L460.664 241.736L460.665 241.733L458.731 241.224ZM458.603 247.624L456.814 248.518L458.603 247.624ZM475.627 234.312L473.841 233.412L473.838 233.418L475.627 234.312ZM489.323 189.128L487.393 188.602L487.375 188.67L487.361 188.739L489.323 189.128ZM497.515 189.384L495.566 188.934L495.559 188.965L495.553 188.996L497.515 189.384ZM487.275 241.224L489.231 241.639L489.234 241.625L489.237 241.612L487.275 241.224ZM487.403 247.624L485.593 248.476L485.624 248.541L485.66 248.605L487.403 247.624ZM505.451 236.744L503.703 235.773L503.694 235.788L503.686 235.803L505.451 236.744ZM510.571 224.072L508.644 223.537L510.571 224.072ZM511.595 202.056L509.65 202.523L509.661 202.57L509.675 202.616L511.595 202.056ZM509.931 196.68L508.082 197.441V197.441L509.931 196.68ZM517.355 190.408L515.419 190.91L515.421 190.919L515.424 190.928L517.355 190.408ZM515.819 219.848L513.88 219.357L513.878 219.366L513.876 219.375L515.819 219.848ZM509.419 237.128L507.648 236.199L507.642 236.21L509.419 237.128ZM500.203 249.544L501.541 251.031L501.543 251.029L500.203 249.544ZM480.875 249.928L479.218 251.049L479.226 251.06L479.234 251.072L480.875 249.928ZM479.595 237.384L477.672 236.835L477.651 236.91L477.635 236.986L479.595 237.384ZM479.211 236.36L478.726 238.3L478.772 238.312L478.819 238.321L479.211 236.36ZM478.315 237L476.526 236.106V236.106L478.315 237ZM470.251 249.16L471.74 250.496L470.251 249.16ZM460.011 254.152V252.152C457.127 252.152 455.075 251.076 453.595 248.923L451.947 250.056L450.299 251.189C452.573 254.497 455.897 256.152 460.011 256.152V254.152ZM451.947 250.056L453.595 248.923C452.172 246.853 451.742 243.811 452.861 239.413L450.923 238.92L448.985 238.427C447.715 243.416 447.968 247.798 450.299 251.189L451.947 250.056ZM450.923 238.92L452.856 239.432L463.096 200.776L461.163 200.264L459.23 199.752L448.99 238.408L450.923 238.92ZM461.163 200.264L463.091 200.797C463.666 198.717 463.922 196.711 463.376 195.107C463.079 194.235 462.537 193.463 461.707 192.936C460.904 192.425 459.993 192.248 459.115 192.248V194.248V196.248C459.474 196.248 459.577 196.321 459.563 196.312C459.522 196.287 459.545 196.266 459.59 196.397C459.726 196.798 459.769 197.801 459.235 199.731L461.163 200.264ZM459.115 194.248V192.248C456.307 192.248 453.993 194.237 452.101 196.941L453.739 198.088L455.377 199.235C457.069 196.819 458.339 196.248 459.115 196.248V194.248ZM453.739 198.088L452.075 196.979C450.224 199.754 448.281 204.13 446.221 209.966L448.107 210.632L449.993 211.298C452.029 205.528 453.84 201.542 455.403 199.197L453.739 198.088ZM448.107 210.632L446.21 210C446.163 210.139 446.121 210.221 446.096 210.261C446.073 210.3 446.071 210.292 446.101 210.265C446.135 210.237 446.184 210.206 446.241 210.186C446.296 210.167 446.326 210.168 446.315 210.168V212.168V214.168C447.176 214.168 448.012 213.896 448.705 213.303C449.363 212.739 449.76 211.997 450.004 211.264L448.107 210.632ZM446.315 212.168V210.168C446.375 210.168 446.495 210.182 446.633 210.251C446.772 210.32 446.855 210.408 446.891 210.456L445.291 211.656L443.691 212.856C444.325 213.701 445.259 214.168 446.315 214.168V212.168ZM445.291 211.656L447.006 210.627C447.021 210.652 447.035 210.682 447.045 210.714C447.055 210.745 447.059 210.771 447.06 210.786C447.063 210.815 447.054 210.783 447.086 210.669L445.163 210.12L443.24 209.571C442.958 210.559 442.968 211.671 443.576 212.685L445.291 211.656ZM445.163 210.12L447.068 210.73C449.509 203.111 452.202 197.582 455.076 193.994C457.925 190.438 460.806 188.952 463.723 188.952V186.952V184.952C459.216 184.952 455.292 187.327 451.954 191.494C448.641 195.629 445.766 201.684 443.258 209.51L445.163 210.12ZM463.723 186.952V188.952C464.902 188.952 465.736 189.194 466.331 189.556C466.911 189.91 467.402 190.459 467.773 191.324L469.611 190.536L471.449 189.748C470.796 188.223 469.793 186.981 468.411 186.14C467.044 185.307 465.445 184.952 463.723 184.952V186.952ZM469.611 190.536L467.773 191.324C468.537 193.108 468.614 195.867 467.55 199.879L469.483 200.392L471.416 200.905C472.57 196.554 472.733 192.743 471.449 189.748L469.611 190.536ZM469.483 200.392L467.549 199.883L456.797 240.715L458.731 241.224L460.665 241.733L471.417 200.901L469.483 200.392ZM458.731 241.224L456.798 240.712C456.009 243.693 455.783 246.457 456.814 248.518L458.603 247.624L460.392 246.73C460.057 246.061 459.917 244.558 460.664 241.736L458.731 241.224ZM458.603 247.624L456.814 248.518C457.274 249.438 457.91 250.248 458.774 250.824C459.65 251.408 460.642 251.672 461.675 251.672V249.672V247.672C461.342 247.672 461.14 247.595 460.992 247.496C460.832 247.389 460.615 247.175 460.392 246.73L458.603 247.624ZM461.675 249.672V251.672C464.607 251.672 467.314 249.891 469.779 247.177C472.282 244.422 474.82 240.398 477.416 235.206L475.627 234.312L473.838 233.418C471.314 238.466 468.967 242.122 466.819 244.487C464.634 246.893 462.924 247.672 461.675 247.672V249.672ZM475.627 234.312L477.413 235.212C482.739 224.648 487.346 209.381 491.285 189.517L489.323 189.128L487.361 188.739C483.449 208.47 478.926 223.325 473.841 233.412L475.627 234.312ZM489.323 189.128L491.253 189.654C491.276 189.567 491.295 189.54 491.289 189.549C491.282 189.561 491.254 189.601 491.199 189.645C491.143 189.688 491.09 189.711 491.059 189.721C491.033 189.729 491.046 189.72 491.115 189.72V187.72V185.72C490.306 185.72 489.455 185.928 488.727 186.499C488.007 187.066 487.603 187.835 487.393 188.602L489.323 189.128ZM491.115 187.72V189.72H496.107V187.72V185.72H491.115V187.72ZM496.107 187.72V189.72C496.263 189.72 496.289 189.74 496.235 189.721C496.167 189.699 495.993 189.622 495.828 189.428C495.66 189.229 495.602 189.024 495.587 188.91C495.575 188.816 495.595 188.811 495.566 188.934L497.515 189.384L499.464 189.834C499.652 189.019 499.712 187.826 498.882 186.844C498.08 185.896 496.923 185.72 496.107 185.72V187.72ZM497.515 189.384L495.553 188.996L485.313 240.836L487.275 241.224L489.237 241.612L499.477 189.772L497.515 189.384ZM487.275 241.224L485.319 240.809C484.694 243.752 484.627 246.422 485.593 248.476L487.403 247.624L489.213 246.772C488.814 245.925 488.661 244.328 489.231 241.639L487.275 241.224ZM487.403 247.624L485.66 248.605C486.797 250.626 488.674 251.672 490.987 251.672V249.672V247.672C490.057 247.672 489.545 247.352 489.146 246.643L487.403 247.624ZM490.987 249.672V251.672C494.145 251.672 497.127 250.142 499.904 247.55L498.539 246.088L497.174 244.626C494.831 246.813 492.778 247.672 490.987 247.672V249.672ZM498.539 246.088L499.904 247.55C502.658 244.979 505.088 241.674 507.216 237.685L505.451 236.744L503.686 235.803C501.718 239.494 499.54 242.418 497.174 244.626L498.539 246.088ZM505.451 236.744L507.199 237.715C509.416 233.726 511.18 229.354 512.498 224.607L510.571 224.072L508.644 223.537C507.402 228.006 505.753 232.082 503.703 235.773L505.451 236.744ZM510.571 224.072L512.498 224.607C513.823 219.838 514.491 215.136 514.491 210.504H512.491H510.491C510.491 214.747 509.879 219.09 508.644 223.537L510.571 224.072ZM512.491 210.504H514.491C514.491 206.84 514.189 203.808 513.515 201.496L511.595 202.056L509.675 202.616C510.195 204.4 510.491 207 510.491 210.504H512.491ZM511.595 202.056L513.54 201.589C513.012 199.392 512.429 197.494 511.78 195.918L509.931 196.68L508.082 197.441C508.628 198.767 509.154 200.454 509.65 202.523L511.595 202.056ZM509.931 196.68L511.78 195.918C511.291 194.73 511.035 193.413 511.035 191.944H509.035H507.035C507.035 193.889 507.376 195.729 508.082 197.441L509.931 196.68ZM509.035 191.944H511.035C511.035 190.526 511.35 189.836 511.631 189.514C511.865 189.245 512.321 188.952 513.387 188.952V186.952V184.952C511.551 184.952 509.831 185.491 508.615 186.886C507.445 188.228 507.035 190.034 507.035 191.944H509.035ZM513.387 186.952V188.952C514.014 188.952 514.364 189.117 514.601 189.324C514.867 189.556 515.186 190.012 515.419 190.91L517.355 190.408L519.291 189.906C518.926 188.5 518.285 187.228 517.229 186.308C516.143 185.363 514.808 184.952 513.387 184.952V186.952ZM517.355 190.408L515.424 190.928C515.95 192.883 516.251 196.038 516.251 200.52H518.251H520.251C520.251 195.957 519.954 192.37 519.286 189.888L517.355 190.408ZM518.251 200.52H516.251C516.251 206.837 515.462 213.114 513.88 219.357L515.819 219.848L517.758 220.339C519.419 213.782 520.251 207.174 520.251 200.52H518.251ZM515.819 219.848L513.876 219.375C512.374 225.548 510.295 231.152 507.648 236.199L509.419 237.128L511.19 238.057C514.004 232.693 516.192 226.777 517.762 220.321L515.819 219.848ZM509.419 237.128L507.642 236.21C505.083 241.162 502.148 245.094 498.863 248.059L500.203 249.544L501.543 251.029C505.255 247.679 508.464 243.334 511.196 238.046L509.419 237.128ZM500.203 249.544L498.865 248.057C495.743 250.867 492.576 252.152 489.323 252.152V254.152V256.152C493.75 256.152 497.836 254.365 501.541 251.031L500.203 249.544ZM489.323 254.152V252.152C486.255 252.152 484.075 251.022 482.516 248.784L480.875 249.928L479.234 251.072C481.6 254.466 485.053 256.152 489.323 256.152V254.152ZM480.875 249.928L482.532 248.807C481.007 246.553 480.491 243.018 481.555 237.782L479.595 237.384L477.635 236.986C476.48 242.673 476.818 247.5 479.218 251.049L480.875 249.928ZM479.595 237.384L481.518 237.933C481.646 237.484 481.787 236.745 481.5 235.978C481.143 235.026 480.341 234.546 479.603 234.399L479.211 236.36L478.819 238.321C478.696 238.297 478.481 238.231 478.256 238.057C478.016 237.873 477.848 237.631 477.754 237.382C477.595 236.956 477.714 236.687 477.672 236.835L479.595 237.384ZM479.211 236.36L479.696 234.42C478.929 234.228 478.171 234.398 477.569 234.829C477.046 235.202 476.726 235.706 476.526 236.106L478.315 237L480.104 237.894C480.16 237.782 480.118 237.923 479.893 238.083C479.767 238.174 479.585 238.267 479.355 238.313C479.123 238.36 478.905 238.345 478.726 238.3L479.211 236.36ZM478.315 237L476.526 236.106C474.202 240.754 471.609 244.652 468.763 247.824L470.251 249.16L471.74 250.496C474.866 247.012 477.65 242.803 480.104 237.894L478.315 237ZM470.251 249.16L468.763 247.824C466.087 250.806 463.188 252.152 460.011 252.152V254.152V256.152C464.514 256.152 468.442 254.17 471.74 250.496L470.251 249.16Z" fill="url(#paint1_linear_3_43)" mask="url(#path-2-outside-1_3_43)"/>
</g>
</g>
<defs>
<filter id="filter0_n_3_43" x="0" y="0" width="652" height="419" filterUnits="userSpaceOnUse" color-interpolation-filters="sRGB">
<feFlood flood-opacity="0" result="BackgroundImageFix"/>
<feBlend mode="normal" in="SourceGraphic" in2="BackgroundImageFix" result="shape"/>
<feTurbulence type="fractalNoise" baseFrequency="1 1" stitchTiles="stitch" numOctaves="3" result="noise" seed="9067" />
<feColorMatrix in="noise" type="luminanceToAlpha" result="alphaNoise" />
<feComponentTransfer in="alphaNoise" result="coloredNoise1">
<feFuncA type="discrete" tableValues="0 0 0 0 0 0 0 0 0 0 0 0 1 1 1 1 1 1 1 1 1 1 1 1 1 1 1 1 1 1 1 1 1 1 1 1 1 1 0 0 0 0 0 0 0 0 0 0 0 0 0 0 0 0 0 0 0 0 0 0 0 0 0 0 0 0 0 0 0 0 0 0 0 0 0 0 0 0 0 0 0 0 0 0 0 0 0 0 0 0 0 0 0 0 0 0 0 0 0 0 "/>
</feComponentTransfer>
<feComposite operator="in" in2="shape" in="coloredNoise1" result="noise1Clipped" />
<feComponentTransfer in="alphaNoise" result="coloredNoise2">
<feFuncA type="discrete" tableValues="0 0 0 0 0 0 0 0 0 0 0 0 0 0 0 0 0 0 0 0 0 0 0 0 0 0 0 0 0 0 0 0 0 0 0 0 0 0 0 0 0 0 0 0 0 0 0 0 0 0 0 0 0 0 0 0 0 0 0 0 0 0 1 1 1 1 1 1 1 1 1 1 1 1 1 1 1 1 1 1 1 1 1 1 1 1 1 1 0 0 0 0 0 0 0 0 0 0 0 0 "/>
</feComponentTransfer>
<feComposite operator="in" in2="shape" in="coloredNoise2" result="noise2Clipped" />
<feFlood flood-color="rgba(0, 0, 0, 0.25)" result="color1Flood" />
<feComposite operator="in" in2="noise1Clipped" in="color1Flood" result="color1" />
<feFlood flood-color="rgba(255, 255, 255, 0)" result="color2Flood" />
<feComposite operator="in" in2="noise2Clipped" in="color2Flood" result="color2" />
<feMerge result="effect1_noise_3_43">
<feMergeNode in="shape" />
<feMergeNode in="color1" />
<feMergeNode in="color2" />
</feMerge>
</filter>
<filter id="filter1_f_3_43" x="-30" y="-30" width="712" height="479" filterUnits="userSpaceOnUse" color-interpolation-filters="sRGB">
<feFlood flood-opacity="0" result="BackgroundImageFix"/>
<feBlend mode="normal" in="SourceGraphic" in2="BackgroundImageFix" result="shape"/>
<feGaussianBlur stdDeviation="15" result="effect1_foregroundBlur_3_43"/>
</filter>
<filter id="filter2_g_3_43" x="119.021" y="152.84" width="407.23" height="109.312" filterUnits="userSpaceOnUse" color-interpolation-filters="sRGB">
<feFlood flood-opacity="0" result="BackgroundImageFix"/>
<feBlend mode="normal" in="SourceGraphic" in2="BackgroundImageFix" result="shape"/>
<feTurbulence type="fractalNoise" baseFrequency="1.6666666269302368 1.6666666269302368" numOctaves="3" seed="3083" />
<feDisplacementMap in="shape" scale="12" xChannelSelector="R" yChannelSelector="G" result="displacedImage" width="100%" height="100%" />
<feMerge result="effect1_texture_3_43">
<feMergeNode in="displacedImage"/>
</feMerge>
</filter>
<linearGradient id="paint0_linear_3_43" x1="326" y1="0" x2="326" y2="419" gradientUnits="userSpaceOnUse">
<stop offset="0.144231" stop-color="#001F3F"/>
<stop offset="0.461538" stop-color="#005BFF"/>
<stop offset="0.692308" stop-color="#00D9FF"/>
<stop offset="0.877702" stop-color="#F4F7FA"/>
</linearGradient>
<linearGradient id="paint1_linear_3_43" x1="152.286" y1="223" x2="509.633" y2="224.652" gradientUnits="userSpaceOnUse">
<stop offset="0.073374" stop-color="#000103"/>
</linearGradient>
<clipPath id="clip0_3_43">
<rect width="652" height="419" fill="white"/>
</clipPath>
</defs>
</svg>
