<svg width="408" height="111" viewBox="0 0 408 111" fill="none" xmlns="http://www.w3.org/2000/svg">
<g filter="url(#filter0_g_9_2)">
<mask id="path-1-outside-1_9_2" maskUnits="userSpaceOnUse" x="6" y="6" width="396" height="99" fill="black">
<rect fill="white" x="6" y="6" width="396" height="99"/>
<path d="M46.677 99.72C46.2503 99.72 45.8663 99.592 45.525 99.336C45.1837 99.08 45.013 98.5253 45.013 97.672L43.733 19.592C43.733 18.9947 43.5197 18.696 43.093 18.696C42.7517 18.696 42.4957 18.952 42.325 19.464L23.509 89.992C22.9117 92.3813 22.869 94.216 23.381 95.496C23.9783 96.6907 25.301 97.4587 27.349 97.8L28.885 98.056C29.909 98.1413 30.421 98.6107 30.421 99.464C30.421 100.488 29.6103 101 27.989 101H9.94099C8.66099 101 8.02099 100.573 8.02099 99.72C8.02099 98.7813 8.70366 98.2267 10.069 98.056L11.861 97.8C14.165 97.4587 15.8717 96.6907 16.981 95.496C18.0903 94.216 18.9437 92.3813 19.541 89.992L38.869 17.288C39.2957 15.496 39.2957 14.3013 38.869 13.704C38.4423 13.1067 37.2903 12.6373 35.413 12.296L33.237 11.912C31.8717 11.656 31.189 11.1013 31.189 10.248C31.189 9.30933 31.957 8.84 33.493 8.84H48.853C51.3277 8.84 52.565 10.12 52.565 12.68L53.333 76.296C53.333 76.8933 53.5037 77.2347 53.845 77.32C54.2717 77.32 54.613 77.064 54.869 76.552L85.845 12.04C86.869 9.90666 88.4903 8.84 90.709 8.84H106.197C107.221 8.84 107.733 9.26666 107.733 10.12C107.733 10.9733 107.008 11.528 105.557 11.784L102.485 12.296C100.608 12.6373 99.3277 13.1067 98.645 13.704C97.9623 14.3013 97.4077 15.496 96.981 17.288L82.133 92.552C81.7917 94.344 81.7917 95.5387 82.133 96.136C82.5597 96.7333 83.6263 97.2027 85.333 97.544L87.509 97.928C88.3623 98.0133 88.917 98.2267 89.173 98.568C89.429 98.824 89.557 99.1227 89.557 99.464C89.557 100.488 88.789 101 87.253 101H64.469C63.2743 101 62.677 100.573 62.677 99.72C62.677 98.8667 63.3597 98.312 64.725 98.056L67.797 97.544C69.6743 97.2027 70.9543 96.7333 71.637 96.136C72.405 95.5387 72.9597 94.344 73.301 92.552L87.765 19.976C87.9357 19.3787 87.8077 19.0373 87.381 18.952C86.9543 18.7813 86.613 18.952 86.357 19.464L48.981 97.672C48.6397 98.5253 48.2557 99.08 47.829 99.336C47.4877 99.592 47.1037 99.72 46.677 99.72ZM113.882 102.152C110.81 102.152 108.421 100.829 106.714 98.184C105.007 95.5387 104.154 91.656 104.154 86.536C104.154 81.672 104.837 76.808 106.202 71.944C107.567 66.9947 109.445 62.3013 111.834 57.864C114.223 53.4267 116.911 49.5013 119.898 46.088C122.97 42.6747 126.17 39.9867 129.498 38.024C132.911 35.976 136.282 34.952 139.61 34.952C141.231 34.952 142.767 35.2933 144.218 35.976C145.669 36.5733 146.863 37.5547 147.802 38.92C148.314 39.688 148.826 40.072 149.338 40.072C149.85 40.072 150.362 39.688 150.874 38.92C151.813 37.5547 152.581 36.7013 153.178 36.36C153.775 35.9333 154.33 35.72 154.842 35.72C155.951 35.72 156.378 36.3173 156.122 37.512L144.73 86.536C143.45 92.0827 144.303 94.856 147.29 94.856C149.253 94.856 151.002 93.5333 152.538 90.888C154.159 88.2427 155.781 84.1467 157.402 78.6C157.658 77.6613 158.213 77.192 159.066 77.192C159.663 77.192 160.047 77.448 160.218 77.96C160.389 78.472 160.389 79.0693 160.218 79.752C158.597 87.7733 156.421 93.5333 153.69 97.032C150.959 100.445 147.674 102.152 143.834 102.152C140.506 102.152 138.117 100.744 136.666 97.928C135.301 95.112 135.173 91.272 136.282 86.408L137.946 79.368C138.117 78.7707 137.989 78.4293 137.562 78.344C137.221 78.2587 136.922 78.472 136.666 78.984C131.973 87.6027 127.791 93.6187 124.122 97.032C120.538 100.445 117.125 102.152 113.882 102.152ZM117.082 95.624C119.13 95.624 121.391 94.3867 123.866 91.912C126.341 89.4373 128.773 86.2373 131.162 82.312C133.637 78.3867 135.898 74.1627 137.946 69.64C139.994 65.1173 141.615 60.7653 142.81 56.584C144.09 52.4027 144.73 48.8613 144.73 45.96C144.73 40.7547 142.895 38.152 139.226 38.152C137.007 38.152 134.661 39.176 132.186 41.224C129.711 43.1867 127.322 45.8747 125.018 49.288C122.799 52.7013 120.751 56.584 118.874 60.936C117.082 65.2027 115.631 69.6827 114.522 74.376C113.413 78.984 112.858 83.5067 112.858 87.944C112.858 90.9307 113.199 92.9787 113.882 94.088C114.65 95.112 115.717 95.624 117.082 95.624ZM175.147 101C173.952 101 173.483 100.445 173.739 99.336L185.899 48.264C186.326 46.3867 186.368 44.936 186.027 43.912C185.771 42.8027 185.003 42.248 183.723 42.248C182.187 42.248 180.48 43.4 178.603 45.704C176.811 47.9227 174.763 52.1893 172.459 58.504C172.118 59.6133 171.52 60.168 170.667 60.168C169.387 60.168 169.046 59.4 169.643 57.864C171.52 51.976 173.483 47.368 175.531 44.04C177.664 40.712 179.798 38.3653 181.931 37C184.064 35.6347 186.027 34.952 187.819 34.952C190.635 34.952 192.64 36.0187 193.835 38.152C195.03 40.2 195.072 43.6133 193.963 48.392L192.555 54.408C192.47 55.0053 192.598 55.3467 192.939 55.432C193.28 55.5173 193.579 55.304 193.835 54.792C197.078 47.368 200.022 42.2053 202.667 39.304C205.312 36.4027 208.342 34.952 211.755 34.952C214.059 34.952 215.766 35.592 216.875 36.872C218.07 38.0667 218.667 39.7307 218.667 41.864C218.667 43.9973 218.155 45.704 217.131 46.984C216.107 48.264 214.784 48.904 213.163 48.904C211.798 48.904 210.816 48.5627 210.219 47.88C209.622 47.1973 209.152 46.4293 208.811 45.576C208.555 44.6373 208.256 43.8267 207.915 43.144C207.574 42.4613 207.019 42.12 206.251 42.12C204.971 42.12 203.307 43.7413 201.259 46.984C199.211 50.2267 196.992 54.6213 194.603 60.168C192.299 65.6293 190.038 71.7733 187.819 78.6C185.686 85.4267 183.808 92.424 182.187 99.592C181.931 100.531 181.334 101 180.395 101H175.147ZM226.112 101C224.917 101 224.448 100.445 224.704 99.336L236.864 48.264C237.291 46.3867 237.333 44.936 236.992 43.912C236.736 42.8027 235.968 42.248 234.688 42.248C233.152 42.248 231.445 43.4 229.568 45.704C227.776 47.9227 225.728 52.1893 223.424 58.504C223.083 59.6133 222.485 60.168 221.632 60.168C220.352 60.168 220.011 59.4 220.608 57.864C222.485 51.976 224.448 47.368 226.496 44.04C228.629 40.712 230.763 38.3653 232.896 37C235.029 35.6347 236.992 34.952 238.784 34.952C241.6 34.952 243.605 36.0187 244.8 38.152C245.995 40.2 246.037 43.6133 244.928 48.392L243.52 54.408C243.435 55.0053 243.563 55.3467 243.904 55.432C244.245 55.5173 244.544 55.304 244.8 54.792C248.043 47.368 250.987 42.2053 253.632 39.304C256.277 36.4027 259.307 34.952 262.72 34.952C265.024 34.952 266.731 35.592 267.84 36.872C269.035 38.0667 269.632 39.7307 269.632 41.864C269.632 43.9973 269.12 45.704 268.096 46.984C267.072 48.264 265.749 48.904 264.128 48.904C262.763 48.904 261.781 48.5627 261.184 47.88C260.587 47.1973 260.117 46.4293 259.776 45.576C259.52 44.6373 259.221 43.8267 258.88 43.144C258.539 42.4613 257.984 42.12 257.216 42.12C255.936 42.12 254.272 43.7413 252.224 46.984C250.176 50.2267 247.957 54.6213 245.568 60.168C243.264 65.6293 241.003 71.7733 238.784 78.6C236.651 85.4267 234.773 92.424 233.152 99.592C232.896 100.531 232.299 101 231.36 101H226.112ZM286.347 102.152C281.056 102.152 276.875 99.976 273.803 95.624C270.731 91.1867 269.195 85.2133 269.195 77.704C269.195 72.1573 270.091 66.824 271.883 61.704C273.675 56.584 276.022 52.0187 278.923 48.008C281.91 43.9973 285.195 40.84 288.779 38.536C292.448 36.1467 296.118 34.952 299.787 34.952C305.078 34.952 309.259 37.128 312.331 41.48C315.403 45.832 316.939 51.8053 316.939 59.4C316.939 64.9467 316.043 70.28 314.251 75.4C312.459 80.52 310.07 85.0853 307.083 89.096C304.182 93.1067 300.896 96.3067 297.227 98.696C293.643 101 290.016 102.152 286.347 102.152ZM286.091 99.08C288.822 99.08 291.467 97.7573 294.027 95.112C296.672 92.4667 299.062 88.968 301.195 84.616C303.328 80.264 305.035 75.4427 306.315 70.152C307.595 64.776 308.235 59.4 308.235 54.024C308.235 43.3573 305.462 38.024 299.915 38.024C297.27 38.024 294.624 39.3467 291.979 41.992C289.334 44.552 286.944 48.008 284.811 52.36C282.763 56.712 281.099 61.576 279.819 66.952C278.539 72.2427 277.899 77.576 277.899 82.952C277.899 93.704 280.63 99.08 286.091 99.08ZM341.011 102.152C337.512 102.152 334.824 100.787 332.947 98.056C331.07 95.3253 330.728 91.6133 331.923 86.92L342.163 48.264C343.272 44.2533 342.59 42.248 340.115 42.248C338.323 42.248 336.531 43.528 334.739 46.088C333.032 48.648 331.155 52.8293 329.107 58.632C328.766 59.656 328.168 60.168 327.315 60.168C326.888 60.168 326.547 59.9973 326.291 59.656C326.035 59.2293 325.992 58.7173 326.163 58.12C331.112 42.6747 337.299 34.952 344.723 34.952C347.624 34.952 349.587 36.1467 350.611 38.536C351.635 40.9253 351.592 44.2107 350.483 48.392L339.731 89.224C338.963 92.1253 338.92 94.2587 339.603 95.624C340.286 96.9893 341.31 97.672 342.675 97.672C346.856 97.672 351.507 92.552 356.627 82.312C361.832 71.9867 366.398 56.9253 370.323 37.128C370.579 36.1893 371.176 35.72 372.115 35.72H377.107C378.302 35.72 378.771 36.2747 378.515 37.384L368.275 89.224C367.678 92.04 367.72 94.1733 368.403 95.624C369.171 96.9893 370.366 97.672 371.987 97.672C374.462 97.672 376.979 96.4773 379.539 94.088C382.099 91.6987 384.403 88.584 386.451 84.744C388.584 80.904 390.291 76.68 391.571 72.072C392.851 67.464 393.491 62.9413 393.491 58.504C393.491 54.92 393.192 52.104 392.595 50.056C392.083 47.9227 391.528 46.1307 390.931 44.68C390.334 43.2293 390.035 41.6507 390.035 39.944C390.035 36.616 391.486 34.952 394.387 34.952C396.435 34.952 397.758 36.104 398.355 38.408C398.952 40.6267 399.251 43.9973 399.251 48.52C399.251 55.0053 398.44 61.448 396.819 67.848C395.283 74.1627 393.15 79.9227 390.419 85.128C387.774 90.248 384.702 94.3867 381.203 97.544C377.79 100.616 374.163 102.152 370.323 102.152C366.654 102.152 363.838 100.744 361.875 97.928C359.912 95.0267 359.486 90.8453 360.595 85.384C360.766 84.7867 360.638 84.4453 360.211 84.36C359.87 84.2747 359.571 84.488 359.315 85C356.926 89.7787 354.238 93.832 351.251 97.16C348.264 100.488 344.851 102.152 341.011 102.152Z"/>
</mask>
<path d="M46.677 99.72C46.2503 99.72 45.8663 99.592 45.525 99.336C45.1837 99.08 45.013 98.5253 45.013 97.672L43.733 19.592C43.733 18.9947 43.5197 18.696 43.093 18.696C42.7517 18.696 42.4957 18.952 42.325 19.464L23.509 89.992C22.9117 92.3813 22.869 94.216 23.381 95.496C23.9783 96.6907 25.301 97.4587 27.349 97.8L28.885 98.056C29.909 98.1413 30.421 98.6107 30.421 99.464C30.421 100.488 29.6103 101 27.989 101H9.94099C8.66099 101 8.02099 100.573 8.02099 99.72C8.02099 98.7813 8.70366 98.2267 10.069 98.056L11.861 97.8C14.165 97.4587 15.8717 96.6907 16.981 95.496C18.0903 94.216 18.9437 92.3813 19.541 89.992L38.869 17.288C39.2957 15.496 39.2957 14.3013 38.869 13.704C38.4423 13.1067 37.2903 12.6373 35.413 12.296L33.237 11.912C31.8717 11.656 31.189 11.1013 31.189 10.248C31.189 9.30933 31.957 8.84 33.493 8.84H48.853C51.3277 8.84 52.565 10.12 52.565 12.68L53.333 76.296C53.333 76.8933 53.5037 77.2347 53.845 77.32C54.2717 77.32 54.613 77.064 54.869 76.552L85.845 12.04C86.869 9.90666 88.4903 8.84 90.709 8.84H106.197C107.221 8.84 107.733 9.26666 107.733 10.12C107.733 10.9733 107.008 11.528 105.557 11.784L102.485 12.296C100.608 12.6373 99.3277 13.1067 98.645 13.704C97.9623 14.3013 97.4077 15.496 96.981 17.288L82.133 92.552C81.7917 94.344 81.7917 95.5387 82.133 96.136C82.5597 96.7333 83.6263 97.2027 85.333 97.544L87.509 97.928C88.3623 98.0133 88.917 98.2267 89.173 98.568C89.429 98.824 89.557 99.1227 89.557 99.464C89.557 100.488 88.789 101 87.253 101H64.469C63.2743 101 62.677 100.573 62.677 99.72C62.677 98.8667 63.3597 98.312 64.725 98.056L67.797 97.544C69.6743 97.2027 70.9543 96.7333 71.637 96.136C72.405 95.5387 72.9597 94.344 73.301 92.552L87.765 19.976C87.9357 19.3787 87.8077 19.0373 87.381 18.952C86.9543 18.7813 86.613 18.952 86.357 19.464L48.981 97.672C48.6397 98.5253 48.2557 99.08 47.829 99.336C47.4877 99.592 47.1037 99.72 46.677 99.72ZM113.882 102.152C110.81 102.152 108.421 100.829 106.714 98.184C105.007 95.5387 104.154 91.656 104.154 86.536C104.154 81.672 104.837 76.808 106.202 71.944C107.567 66.9947 109.445 62.3013 111.834 57.864C114.223 53.4267 116.911 49.5013 119.898 46.088C122.97 42.6747 126.17 39.9867 129.498 38.024C132.911 35.976 136.282 34.952 139.61 34.952C141.231 34.952 142.767 35.2933 144.218 35.976C145.669 36.5733 146.863 37.5547 147.802 38.92C148.314 39.688 148.826 40.072 149.338 40.072C149.85 40.072 150.362 39.688 150.874 38.92C151.813 37.5547 152.581 36.7013 153.178 36.36C153.775 35.9333 154.33 35.72 154.842 35.72C155.951 35.72 156.378 36.3173 156.122 37.512L144.73 86.536C143.45 92.0827 144.303 94.856 147.29 94.856C149.253 94.856 151.002 93.5333 152.538 90.888C154.159 88.2427 155.781 84.1467 157.402 78.6C157.658 77.6613 158.213 77.192 159.066 77.192C159.663 77.192 160.047 77.448 160.218 77.96C160.389 78.472 160.389 79.0693 160.218 79.752C158.597 87.7733 156.421 93.5333 153.69 97.032C150.959 100.445 147.674 102.152 143.834 102.152C140.506 102.152 138.117 100.744 136.666 97.928C135.301 95.112 135.173 91.272 136.282 86.408L137.946 79.368C138.117 78.7707 137.989 78.4293 137.562 78.344C137.221 78.2587 136.922 78.472 136.666 78.984C131.973 87.6027 127.791 93.6187 124.122 97.032C120.538 100.445 117.125 102.152 113.882 102.152ZM117.082 95.624C119.13 95.624 121.391 94.3867 123.866 91.912C126.341 89.4373 128.773 86.2373 131.162 82.312C133.637 78.3867 135.898 74.1627 137.946 69.64C139.994 65.1173 141.615 60.7653 142.81 56.584C144.09 52.4027 144.73 48.8613 144.73 45.96C144.73 40.7547 142.895 38.152 139.226 38.152C137.007 38.152 134.661 39.176 132.186 41.224C129.711 43.1867 127.322 45.8747 125.018 49.288C122.799 52.7013 120.751 56.584 118.874 60.936C117.082 65.2027 115.631 69.6827 114.522 74.376C113.413 78.984 112.858 83.5067 112.858 87.944C112.858 90.9307 113.199 92.9787 113.882 94.088C114.65 95.112 115.717 95.624 117.082 95.624ZM175.147 101C173.952 101 173.483 100.445 173.739 99.336L185.899 48.264C186.326 46.3867 186.368 44.936 186.027 43.912C185.771 42.8027 185.003 42.248 183.723 42.248C182.187 42.248 180.48 43.4 178.603 45.704C176.811 47.9227 174.763 52.1893 172.459 58.504C172.118 59.6133 171.52 60.168 170.667 60.168C169.387 60.168 169.046 59.4 169.643 57.864C171.52 51.976 173.483 47.368 175.531 44.04C177.664 40.712 179.798 38.3653 181.931 37C184.064 35.6347 186.027 34.952 187.819 34.952C190.635 34.952 192.64 36.0187 193.835 38.152C195.03 40.2 195.072 43.6133 193.963 48.392L192.555 54.408C192.47 55.0053 192.598 55.3467 192.939 55.432C193.28 55.5173 193.579 55.304 193.835 54.792C197.078 47.368 200.022 42.2053 202.667 39.304C205.312 36.4027 208.342 34.952 211.755 34.952C214.059 34.952 215.766 35.592 216.875 36.872C218.07 38.0667 218.667 39.7307 218.667 41.864C218.667 43.9973 218.155 45.704 217.131 46.984C216.107 48.264 214.784 48.904 213.163 48.904C211.798 48.904 210.816 48.5627 210.219 47.88C209.622 47.1973 209.152 46.4293 208.811 45.576C208.555 44.6373 208.256 43.8267 207.915 43.144C207.574 42.4613 207.019 42.12 206.251 42.12C204.971 42.12 203.307 43.7413 201.259 46.984C199.211 50.2267 196.992 54.6213 194.603 60.168C192.299 65.6293 190.038 71.7733 187.819 78.6C185.686 85.4267 183.808 92.424 182.187 99.592C181.931 100.531 181.334 101 180.395 101H175.147ZM226.112 101C224.917 101 224.448 100.445 224.704 99.336L236.864 48.264C237.291 46.3867 237.333 44.936 236.992 43.912C236.736 42.8027 235.968 42.248 234.688 42.248C233.152 42.248 231.445 43.4 229.568 45.704C227.776 47.9227 225.728 52.1893 223.424 58.504C223.083 59.6133 222.485 60.168 221.632 60.168C220.352 60.168 220.011 59.4 220.608 57.864C222.485 51.976 224.448 47.368 226.496 44.04C228.629 40.712 230.763 38.3653 232.896 37C235.029 35.6347 236.992 34.952 238.784 34.952C241.6 34.952 243.605 36.0187 244.8 38.152C245.995 40.2 246.037 43.6133 244.928 48.392L243.52 54.408C243.435 55.0053 243.563 55.3467 243.904 55.432C244.245 55.5173 244.544 55.304 244.8 54.792C248.043 47.368 250.987 42.2053 253.632 39.304C256.277 36.4027 259.307 34.952 262.72 34.952C265.024 34.952 266.731 35.592 267.84 36.872C269.035 38.0667 269.632 39.7307 269.632 41.864C269.632 43.9973 269.12 45.704 268.096 46.984C267.072 48.264 265.749 48.904 264.128 48.904C262.763 48.904 261.781 48.5627 261.184 47.88C260.587 47.1973 260.117 46.4293 259.776 45.576C259.52 44.6373 259.221 43.8267 258.88 43.144C258.539 42.4613 257.984 42.12 257.216 42.12C255.936 42.12 254.272 43.7413 252.224 46.984C250.176 50.2267 247.957 54.6213 245.568 60.168C243.264 65.6293 241.003 71.7733 238.784 78.6C236.651 85.4267 234.773 92.424 233.152 99.592C232.896 100.531 232.299 101 231.36 101H226.112ZM286.347 102.152C281.056 102.152 276.875 99.976 273.803 95.624C270.731 91.1867 269.195 85.2133 269.195 77.704C269.195 72.1573 270.091 66.824 271.883 61.704C273.675 56.584 276.022 52.0187 278.923 48.008C281.91 43.9973 285.195 40.84 288.779 38.536C292.448 36.1467 296.118 34.952 299.787 34.952C305.078 34.952 309.259 37.128 312.331 41.48C315.403 45.832 316.939 51.8053 316.939 59.4C316.939 64.9467 316.043 70.28 314.251 75.4C312.459 80.52 310.07 85.0853 307.083 89.096C304.182 93.1067 300.896 96.3067 297.227 98.696C293.643 101 290.016 102.152 286.347 102.152ZM286.091 99.08C288.822 99.08 291.467 97.7573 294.027 95.112C296.672 92.4667 299.062 88.968 301.195 84.616C303.328 80.264 305.035 75.4427 306.315 70.152C307.595 64.776 308.235 59.4 308.235 54.024C308.235 43.3573 305.462 38.024 299.915 38.024C297.27 38.024 294.624 39.3467 291.979 41.992C289.334 44.552 286.944 48.008 284.811 52.36C282.763 56.712 281.099 61.576 279.819 66.952C278.539 72.2427 277.899 77.576 277.899 82.952C277.899 93.704 280.63 99.08 286.091 99.08ZM341.011 102.152C337.512 102.152 334.824 100.787 332.947 98.056C331.07 95.3253 330.728 91.6133 331.923 86.92L342.163 48.264C343.272 44.2533 342.59 42.248 340.115 42.248C338.323 42.248 336.531 43.528 334.739 46.088C333.032 48.648 331.155 52.8293 329.107 58.632C328.766 59.656 328.168 60.168 327.315 60.168C326.888 60.168 326.547 59.9973 326.291 59.656C326.035 59.2293 325.992 58.7173 326.163 58.12C331.112 42.6747 337.299 34.952 344.723 34.952C347.624 34.952 349.587 36.1467 350.611 38.536C351.635 40.9253 351.592 44.2107 350.483 48.392L339.731 89.224C338.963 92.1253 338.92 94.2587 339.603 95.624C340.286 96.9893 341.31 97.672 342.675 97.672C346.856 97.672 351.507 92.552 356.627 82.312C361.832 71.9867 366.398 56.9253 370.323 37.128C370.579 36.1893 371.176 35.72 372.115 35.72H377.107C378.302 35.72 378.771 36.2747 378.515 37.384L368.275 89.224C367.678 92.04 367.72 94.1733 368.403 95.624C369.171 96.9893 370.366 97.672 371.987 97.672C374.462 97.672 376.979 96.4773 379.539 94.088C382.099 91.6987 384.403 88.584 386.451 84.744C388.584 80.904 390.291 76.68 391.571 72.072C392.851 67.464 393.491 62.9413 393.491 58.504C393.491 54.92 393.192 52.104 392.595 50.056C392.083 47.9227 391.528 46.1307 390.931 44.68C390.334 43.2293 390.035 41.6507 390.035 39.944C390.035 36.616 391.486 34.952 394.387 34.952C396.435 34.952 397.758 36.104 398.355 38.408C398.952 40.6267 399.251 43.9973 399.251 48.52C399.251 55.0053 398.44 61.448 396.819 67.848C395.283 74.1627 393.15 79.9227 390.419 85.128C387.774 90.248 384.702 94.3867 381.203 97.544C377.79 100.616 374.163 102.152 370.323 102.152C366.654 102.152 363.838 100.744 361.875 97.928C359.912 95.0267 359.486 90.8453 360.595 85.384C360.766 84.7867 360.638 84.4453 360.211 84.36C359.87 84.2747 359.571 84.488 359.315 85C356.926 89.7787 354.238 93.832 351.251 97.16C348.264 100.488 344.851 102.152 341.011 102.152Z" fill="white"/>
<path d="M45.525 99.336L44.325 100.936L44.325 100.936L45.525 99.336ZM45.013 97.672H47.013V97.6556L47.0127 97.6392L45.013 97.672ZM43.733 19.592H41.733V19.6084L41.7333 19.6248L43.733 19.592ZM42.325 19.464L40.4276 18.8315L40.4083 18.8895L40.3926 18.9485L42.325 19.464ZM23.509 89.992L21.5766 89.4765L21.5725 89.4917L21.5687 89.5069L23.509 89.992ZM23.381 95.496L21.524 96.2388L21.5549 96.316L21.5921 96.3904L23.381 95.496ZM27.349 97.8L27.0202 99.7728L27.0202 99.7728L27.349 97.8ZM28.885 98.056L28.5562 100.029L28.6371 100.042L28.7189 100.049L28.885 98.056ZM10.069 98.056L10.3171 100.041L10.3345 100.038L10.3518 100.036L10.069 98.056ZM11.861 97.8L12.1438 99.7799L12.1541 99.7784L11.861 97.8ZM16.981 95.496L18.4466 96.8569L18.4699 96.8318L18.4924 96.8059L16.981 95.496ZM19.541 89.992L17.6081 89.4782L17.6043 89.4925L17.6007 89.5069L19.541 89.992ZM38.869 17.288L40.8019 17.8018L40.8086 17.7766L40.8146 17.7512L38.869 17.288ZM38.869 13.704L40.4965 12.5415L40.4965 12.5415L38.869 13.704ZM35.413 12.296L35.7708 10.3282L35.7606 10.3264L35.413 12.296ZM33.237 11.912L32.8684 13.8777L32.8789 13.8797L32.8894 13.8816L33.237 11.912ZM52.565 12.68H50.565V12.6921L50.5651 12.7041L52.565 12.68ZM53.333 76.296H55.333V76.2839L55.3329 76.2719L53.333 76.296ZM53.845 77.32L53.3599 79.2603L53.5988 79.32H53.845V77.32ZM54.869 76.552L56.6579 77.4464L56.665 77.4321L56.6719 77.4177L54.869 76.552ZM85.845 12.04L87.6479 12.9057L87.648 12.9055L85.845 12.04ZM105.557 11.784L105.886 13.7568L105.895 13.7552L105.905 13.7536L105.557 11.784ZM102.485 12.296L102.156 10.3232L102.142 10.3256L102.127 10.3283L102.485 12.296ZM98.645 13.704L97.328 12.1988L97.328 12.1988L98.645 13.704ZM96.981 17.288L95.0354 16.8248L95.0264 16.8627L95.0188 16.9009L96.981 17.288ZM82.133 92.552L80.1708 92.1649L80.1683 92.1778L82.133 92.552ZM82.133 96.136L80.3965 97.1283L80.4467 97.2161L80.5055 97.2985L82.133 96.136ZM85.333 97.544L84.9408 99.5052L84.9631 99.5096L84.9854 99.5136L85.333 97.544ZM87.509 97.928L87.1614 99.8976L87.2353 99.9106L87.31 99.9181L87.509 97.928ZM89.173 98.568L87.573 99.768L87.6583 99.8817L87.7588 99.9822L89.173 98.568ZM64.725 98.056L64.3962 96.0832L64.3763 96.0865L64.3564 96.0903L64.725 98.056ZM67.797 97.544L68.1258 99.5168L68.1403 99.5144L68.1548 99.5117L67.797 97.544ZM71.637 96.136L70.4091 94.5573L70.3635 94.5928L70.32 94.6308L71.637 96.136ZM73.301 92.552L71.3396 92.1611L71.3379 92.1694L71.3363 92.1778L73.301 92.552ZM87.765 19.976L85.8419 19.4266L85.8195 19.505L85.8036 19.5851L87.765 19.976ZM87.381 18.952L86.6382 20.809L86.8087 20.8771L86.9888 20.9132L87.381 18.952ZM86.357 19.464L84.5681 18.5696L84.5602 18.5855L84.5525 18.6016L86.357 19.464ZM48.981 97.672L47.1765 96.8096L47.1483 96.8686L47.124 96.9292L48.981 97.672ZM47.829 99.336L46.8 97.621L46.7115 97.6741L46.629 97.736L47.829 99.336ZM46.677 99.72V97.72C46.6707 97.72 46.6711 97.7196 46.6769 97.7205C46.6829 97.7214 46.6915 97.7233 46.7014 97.7266C46.7114 97.7299 46.7194 97.7336 46.7248 97.7364C46.73 97.7392 46.7301 97.7398 46.725 97.736L45.525 99.336L44.325 100.936C45.0125 101.452 45.8176 101.72 46.677 101.72V99.72ZM45.525 99.336L46.725 97.736C46.9952 97.9386 47.0576 98.1561 47.0526 98.1398C47.0514 98.1362 47.0405 98.0984 47.0305 98.0153C47.0205 97.9333 47.013 97.8205 47.013 97.672H45.013H43.013C43.013 98.2135 43.0649 98.7815 43.2294 99.3162C43.3951 99.8545 43.7135 100.477 44.325 100.936L45.525 99.336ZM45.013 97.672L47.0127 97.6392L45.7327 19.5592L43.733 19.592L41.7333 19.6248L43.0133 97.7048L45.013 97.672ZM43.733 19.592H45.733C45.733 19.1156 45.6588 18.3992 45.2005 17.7575C44.6535 16.9918 43.832 16.696 43.093 16.696V18.696V20.696C42.9672 20.696 42.7614 20.6736 42.5272 20.5644C42.2825 20.4502 42.0842 20.2767 41.9455 20.0825C41.7005 19.7395 41.733 19.471 41.733 19.592H43.733ZM43.093 18.696V16.696C41.4232 16.696 40.6854 18.0582 40.4276 18.8315L42.325 19.464L44.2224 20.0965C44.2537 20.0024 44.2319 20.1295 44.0592 20.3022C43.9638 20.3976 43.8253 20.5032 43.6408 20.5823C43.4541 20.6623 43.2646 20.696 43.093 20.696V18.696ZM42.325 19.464L40.3926 18.9485L21.5766 89.4765L23.509 89.992L25.4414 90.5075L44.2574 19.9795L42.325 19.464ZM23.509 89.992L21.5687 89.5069C20.9399 92.0222 20.7746 94.3652 21.524 96.2388L23.381 95.496L25.2379 94.7532C24.9634 94.0668 24.8834 92.7405 25.4493 90.4771L23.509 89.992ZM23.381 95.496L21.5921 96.3904C22.6068 98.4196 24.7004 99.3862 27.0202 99.7728L27.349 97.8L27.6778 95.8272C25.9016 95.5312 25.3499 94.9617 25.1698 94.6016L23.381 95.496ZM27.349 97.8L27.0202 99.7728L28.5562 100.029L28.885 98.056L29.2138 96.0832L27.6778 95.8272L27.349 97.8ZM28.885 98.056L28.7189 100.049C28.9923 100.072 28.8801 100.125 28.6855 99.9463C28.5818 99.8512 28.5045 99.7334 28.4599 99.618C28.4186 99.5115 28.421 99.4487 28.421 99.464H30.421H32.421C32.421 98.6148 32.1495 97.6954 31.3884 96.9977C30.6819 96.3501 29.8016 96.1255 29.0511 96.0629L28.885 98.056ZM30.421 99.464H28.421C28.421 99.4529 28.4247 99.3457 28.5002 99.2025C28.5788 99.0536 28.6834 98.9639 28.745 98.925C28.7931 98.8946 28.7776 98.9181 28.641 98.9469C28.5062 98.9753 28.2952 99 27.989 99V101V103C28.9456 103 30.0044 102.861 30.881 102.307C31.9124 101.656 32.421 100.606 32.421 99.464H30.421ZM27.989 101V99H9.94099V101V103H27.989V101ZM9.94099 101V99C9.72581 99 9.59721 98.9815 9.53485 98.9676C9.47175 98.9536 9.51656 98.9533 9.61039 99.0159C9.71757 99.0873 9.84257 99.211 9.92985 99.3856C10.013 99.5519 10.021 99.6821 10.021 99.72H8.02099H6.02099C6.02099 100.729 6.44718 101.714 7.39159 102.344C8.19289 102.878 9.14194 103 9.94099 103V101ZM8.02099 99.72H10.021C10.021 99.7312 10.0179 99.8103 9.96794 99.9195C9.91627 100.033 9.84498 100.111 9.79418 100.152C9.75137 100.187 9.75135 100.173 9.84069 100.141C9.93045 100.109 10.0828 100.07 10.3171 100.041L10.069 98.056L9.82092 96.0714C8.95894 96.1792 8.02428 96.4364 7.27181 97.0478C6.42819 97.7332 6.02099 98.6948 6.02099 99.72H8.02099ZM10.069 98.056L10.3518 100.036L12.1438 99.7799L11.861 97.8L11.5782 95.8201L9.78615 96.0761L10.069 98.056ZM11.861 97.8L12.1541 99.7784C14.7196 99.3983 16.9195 98.5015 18.4466 96.8569L16.981 95.496L15.5154 94.1351C14.8238 94.8799 13.6104 95.519 11.5679 95.8216L11.861 97.8ZM16.981 95.496L18.4924 96.8059C19.8794 95.2054 20.8398 93.0429 21.4813 90.4771L19.541 89.992L17.6007 89.5069C17.0475 91.7198 16.3012 93.2266 15.4696 94.1861L16.981 95.496ZM19.541 89.992L21.4739 90.5058L40.8019 17.8018L38.869 17.288L36.9361 16.7742L17.6081 89.4782L19.541 89.992ZM38.869 17.288L40.8146 17.7512C41.0469 16.7758 41.189 15.8614 41.189 15.048C41.189 14.273 41.0615 13.3325 40.4965 12.5415L38.869 13.704L37.2415 14.8665C37.1032 14.6728 37.189 14.6284 37.189 15.048C37.189 15.4293 37.1178 16.0082 36.9234 16.8248L38.869 17.288ZM38.869 13.704L40.4965 12.5415C39.9586 11.7885 39.1499 11.3412 38.4396 11.0518C37.687 10.7452 36.7815 10.512 35.7708 10.3283L35.413 12.296L35.0552 14.2637C35.9218 14.4213 36.5309 14.5934 36.9304 14.7562C37.3721 14.9361 37.3527 15.0221 37.2415 14.8665L38.869 13.704ZM35.413 12.296L35.7606 10.3264L33.5846 9.94243L33.237 11.912L32.8894 13.8816L35.0654 14.2656L35.413 12.296ZM33.237 11.912L33.6056 9.94625C33.3589 9.90001 33.1882 9.84836 33.0771 9.80438C32.9652 9.76007 32.9405 9.73413 32.9622 9.75177C32.9902 9.77453 33.0593 9.84125 33.1166 9.95945C33.1748 10.0794 33.189 10.1869 33.189 10.248H31.189H29.189C29.189 11.2981 29.6477 12.2126 30.4398 12.8562C31.1475 13.4312 32.0295 13.7204 32.8684 13.8777L33.237 11.912ZM31.189 10.248H33.189C33.189 10.2907 33.1784 10.4254 33.0888 10.5897C32.9971 10.7578 32.8777 10.8559 32.8079 10.8986C32.7514 10.9331 32.7579 10.9135 32.8842 10.8877C33.008 10.8625 33.2048 10.84 33.493 10.84V8.84V6.84C32.5864 6.84 31.5707 6.96684 30.7221 7.48543C29.7132 8.10199 29.189 9.11831 29.189 10.248H31.189ZM33.493 8.84V10.84H48.853V8.84V6.84H33.493V8.84ZM48.853 8.84V10.84C49.7645 10.84 50.0849 11.072 50.199 11.19C50.3253 11.3207 50.565 11.6916 50.565 12.68H52.565H54.565C54.565 11.1084 54.186 9.55927 53.075 8.40995C51.9518 7.24802 50.4162 6.84 48.853 6.84V8.84ZM52.565 12.68L50.5651 12.7041L51.3331 76.3201L53.333 76.296L55.3329 76.2719L54.5648 12.6558L52.565 12.68ZM53.333 76.296H51.333C51.333 76.7472 51.3913 77.3328 51.6721 77.8944C51.9936 78.5373 52.5707 79.063 53.3599 79.2603L53.845 77.32L54.3301 75.3797C54.5201 75.4272 54.7212 75.5214 54.9014 75.6716C55.078 75.8187 55.187 75.9798 55.2499 76.1056C55.36 76.3259 55.333 76.4422 55.333 76.296H53.333ZM53.845 77.32V79.32C55.2902 79.32 56.1981 78.3659 56.6579 77.4464L54.869 76.552L53.0801 75.6576C53.0457 75.7264 53.0733 75.6388 53.221 75.528C53.2983 75.47 53.3978 75.4142 53.5165 75.3746C53.6353 75.3351 53.7484 75.32 53.845 75.32V77.32ZM54.869 76.552L56.6719 77.4177L87.6479 12.9057L85.845 12.04L84.0421 11.1743L53.0661 75.6863L54.869 76.552ZM85.845 12.04L87.648 12.9055C88.0373 12.0944 88.4812 11.6049 88.9282 11.3108C89.3675 11.0218 89.9328 10.84 90.709 10.84V8.84V6.84C89.2665 6.84 87.9118 7.19151 86.7298 7.96916C85.5555 8.74171 84.6766 9.85226 84.0419 11.1745L85.845 12.04ZM90.709 8.84V10.84H106.197V8.84V6.84H90.709V8.84ZM106.197 8.84V10.84C106.481 10.84 106.321 10.9066 106.069 10.6964C105.933 10.5831 105.835 10.4401 105.78 10.3028C105.73 10.1777 105.733 10.1025 105.733 10.12H107.733H109.733C109.733 9.27946 109.463 8.31859 108.629 7.62355C107.865 6.98671 106.937 6.84 106.197 6.84V8.84ZM107.733 10.12H105.733C105.733 10.04 105.753 9.917 105.819 9.78808C105.883 9.66347 105.956 9.60098 105.974 9.58728C105.986 9.5783 105.945 9.61178 105.811 9.66183C105.678 9.71129 105.483 9.7662 105.209 9.81443L105.557 11.784L105.905 13.7536C106.773 13.6003 107.677 13.3207 108.404 12.7647C109.221 12.1397 109.733 11.2185 109.733 10.12H107.733ZM105.557 11.784L105.228 9.81121L102.156 10.3232L102.485 12.296L102.814 14.2688L105.886 13.7568L105.557 11.784ZM102.485 12.296L102.127 10.3283C100.207 10.6773 98.4501 11.217 97.328 12.1988L98.645 13.704L99.962 15.2092C100.205 14.9964 101.008 14.5974 102.843 14.2637L102.485 12.296ZM98.645 13.704L97.328 12.1988C96.1437 13.2351 95.4764 14.9725 95.0354 16.8248L96.981 17.288L98.9266 17.7512C99.3389 16.0195 99.7809 15.3676 99.962 15.2091L98.645 13.704ZM96.981 17.288L95.0188 16.9009L80.1708 92.1649L82.133 92.552L84.0952 92.9391L98.9432 17.6751L96.981 17.288ZM82.133 92.552L80.1683 92.1778C79.985 93.1399 79.877 94.0219 79.877 94.792C79.877 95.5143 79.9687 96.3796 80.3965 97.1283L82.133 96.136L83.8695 95.1437C83.956 95.2951 83.877 95.2644 83.877 94.792C83.877 94.3675 83.9396 93.756 84.0977 92.9262L82.133 92.552ZM82.133 96.136L80.5055 97.2985C81.0165 98.0139 81.7605 98.4644 82.4475 98.7666C83.1612 99.0806 84.0077 99.3185 84.9408 99.5052L85.333 97.544L85.7252 95.5828C84.9516 95.4281 84.4115 95.2607 84.0585 95.1054C83.6788 94.9383 83.6761 94.8555 83.7605 94.9735L82.133 96.136ZM85.333 97.544L84.9854 99.5136L87.1614 99.8976L87.509 97.928L87.8566 95.9584L85.6806 95.5744L85.333 97.544ZM87.509 97.928L87.31 99.9181C87.464 99.9335 87.5853 99.9528 87.678 99.9725C87.7715 99.9923 87.8248 100.01 87.847 100.019C87.9057 100.041 87.7426 99.9941 87.573 99.768L89.173 98.568L90.773 97.368C89.9689 96.2959 88.6253 96.0297 87.708 95.9379L87.509 97.928ZM89.173 98.568L87.7588 99.9822C87.7274 99.9508 87.6698 99.8816 87.6227 99.7718C87.5747 99.6597 87.557 99.5503 87.557 99.464H89.557H91.557C91.557 98.5576 91.193 97.7596 90.5872 97.1538L89.173 98.568ZM89.557 99.464H87.557C87.557 99.4688 87.557 99.3759 87.6241 99.2416C87.6954 99.099 87.7964 99.002 87.8716 98.9519C87.9334 98.9107 87.9382 98.9269 87.8271 98.9516C87.7168 98.9761 87.5322 99 87.253 99V101V103C88.1801 103 89.2251 102.857 90.0904 102.28C91.0988 101.608 91.557 100.559 91.557 99.464H89.557ZM87.253 101V99H64.469V101V103H87.253V101ZM64.469 101V99C64.2829 99 64.1834 98.9828 64.1482 98.9744C64.114 98.9662 64.1804 98.976 64.2875 99.0525C64.407 99.1379 64.5245 99.2695 64.6014 99.4342C64.6733 99.5884 64.677 99.7009 64.677 99.72H62.677H60.677C60.677 100.672 61.0475 101.654 61.9625 102.307C62.7535 102.872 63.694 103 64.469 103V101ZM62.677 99.72H64.677C64.677 99.7811 64.6628 99.8886 64.6046 100.009C64.5473 100.127 64.4782 100.193 64.4502 100.216C64.4285 100.234 64.4531 100.208 64.5651 100.164C64.6762 100.12 64.8469 100.068 65.0936 100.022L64.725 98.056L64.3564 96.0903C63.5175 96.2475 62.6355 96.5368 61.9278 97.1118C61.1357 97.7553 60.677 98.6699 60.677 99.72H62.677ZM64.725 98.056L65.0538 100.029L68.1258 99.5168L67.797 97.544L67.4682 95.5712L64.3962 96.0832L64.725 98.056ZM67.797 97.544L68.1548 99.5117C70.0746 99.1627 71.8319 98.623 72.954 97.6412L71.637 96.136L70.32 94.6308C70.0768 94.8436 69.2741 95.2426 67.4392 95.5763L67.797 97.544ZM71.637 96.136L72.8649 97.7147C74.2345 96.6495 74.9034 94.8281 75.2657 92.9262L73.301 92.552L71.3363 92.1778C71.0159 93.8599 70.5755 94.4279 70.4091 94.5573L71.637 96.136ZM73.301 92.552L75.2624 92.9429L89.7264 20.3669L87.765 19.976L85.8036 19.5851L71.3396 92.1611L73.301 92.552ZM87.765 19.976L89.688 20.5254C89.8165 20.0759 89.9574 19.3372 89.6697 18.5697C89.3127 17.618 88.5114 17.1385 87.7732 16.9908L87.381 18.952L86.9888 20.9132C86.8662 20.8886 86.6514 20.823 86.4256 20.6492C86.1863 20.4652 86.0177 20.2231 85.9243 19.9742C85.7646 19.5481 85.8842 19.2788 85.8419 19.4266L87.765 19.976ZM87.381 18.952L88.1238 17.095C87.498 16.8447 86.6958 16.7705 85.9106 17.1631C85.2023 17.5173 84.7977 18.1105 84.5681 18.5696L86.357 19.464L88.1458 20.3584C88.1723 20.3055 88.0663 20.5574 87.6994 20.7409C87.5053 20.8379 87.2895 20.888 87.077 20.888C86.8738 20.888 86.7224 20.8426 86.6382 20.809L87.381 18.952ZM86.357 19.464L84.5525 18.6016L47.1765 96.8096L48.981 97.672L50.7855 98.5344L88.1615 20.3264L86.357 19.464ZM48.981 97.672L47.124 96.9292C46.9906 97.2629 46.8747 97.471 46.7926 97.5896C46.7081 97.7117 46.6992 97.6815 46.8 97.621L47.829 99.336L48.858 101.051C49.8644 100.447 50.454 99.3747 50.8379 98.4148L48.981 97.672ZM47.829 99.336L46.629 97.736C46.6239 97.7398 46.624 97.7392 46.6292 97.7364C46.6346 97.7336 46.6426 97.7299 46.6525 97.7266C46.6625 97.7233 46.6711 97.7214 46.6771 97.7205C46.6829 97.7196 46.6833 97.72 46.677 97.72V99.72V101.72C47.5364 101.72 48.3415 101.452 49.029 100.936L47.829 99.336ZM106.714 98.184L105.033 99.2683L105.033 99.2683L106.714 98.184ZM106.202 71.944L108.128 72.4845L108.13 72.4759L106.202 71.944ZM111.834 57.864L113.595 58.8122L113.595 58.8122L111.834 57.864ZM119.898 46.088L118.411 44.7501L118.402 44.7605L118.393 44.771L119.898 46.088ZM129.498 38.024L130.514 39.7467L130.52 39.7429L130.527 39.739L129.498 38.024ZM144.218 35.976L143.366 37.7856L143.411 37.8066L143.456 37.8254L144.218 35.976ZM147.802 38.92L149.466 37.8106L149.458 37.7987L149.45 37.7869L147.802 38.92ZM150.874 38.92L149.226 37.7869L149.218 37.7987L149.21 37.8106L150.874 38.92ZM153.178 36.36L154.17 38.0965L154.258 38.0463L154.34 37.9875L153.178 36.36ZM156.122 37.512L158.07 37.9647L158.074 37.9479L158.078 37.9311L156.122 37.512ZM144.73 86.536L142.782 86.0833L142.781 86.0863L144.73 86.536ZM152.538 90.888L150.833 89.8429L150.82 89.8632L150.808 89.8837L152.538 90.888ZM157.402 78.6L159.322 79.1611L159.327 79.1437L159.332 79.1262L157.402 78.6ZM160.218 77.96L162.115 77.3276L162.115 77.3275L160.218 77.96ZM160.218 79.752L158.278 79.2669L158.267 79.3111L158.258 79.3558L160.218 79.752ZM153.69 97.032L155.252 98.2814L155.259 98.272L155.267 98.2625L153.69 97.032ZM136.666 97.928L134.866 98.8005L134.877 98.8224L134.888 98.8439L136.666 97.928ZM136.282 86.408L134.336 85.9479L134.334 85.9556L134.332 85.9633L136.282 86.408ZM137.946 79.368L136.023 78.8186L136.01 78.863L136 78.9079L137.946 79.368ZM137.562 78.344L137.077 80.2843L137.123 80.2958L137.17 80.3052L137.562 78.344ZM136.666 78.984L138.422 79.9405L138.439 79.9097L138.455 79.8784L136.666 78.984ZM124.122 97.032L122.76 95.5676L122.751 95.5756L122.743 95.5837L124.122 97.032ZM131.162 82.312L129.47 81.2454L129.462 81.2587L129.454 81.2721L131.162 82.312ZM137.946 69.64L136.124 68.815L136.124 68.815L137.946 69.64ZM142.81 56.584L140.898 55.9986L140.892 56.0165L140.887 56.0346L142.81 56.584ZM132.186 41.224L133.429 42.791L133.445 42.7781L133.461 42.7648L132.186 41.224ZM125.018 49.288L123.36 48.1691L123.351 48.1835L123.341 48.198L125.018 49.288ZM118.874 60.936L117.038 60.1438L117.034 60.1527L117.03 60.1615L118.874 60.936ZM114.522 74.376L116.466 74.8441L116.468 74.8361L114.522 74.376ZM113.882 94.088L112.179 95.1362L112.227 95.2145L112.282 95.288L113.882 94.088ZM113.882 102.152V100.152C111.509 100.152 109.744 99.1913 108.395 97.0997L106.714 98.184L105.033 99.2683C107.097 102.467 110.11 104.152 113.882 104.152V102.152ZM106.714 98.184L108.395 97.0997C106.989 94.9218 106.154 91.4894 106.154 86.536H104.154H102.154C102.154 91.8226 103.025 96.1555 105.033 99.2683L106.714 98.184ZM104.154 86.536H106.154C106.154 81.8617 106.81 77.1794 108.128 72.4845L106.202 71.944L104.276 71.4035C102.864 76.4366 102.154 81.4823 102.154 86.536H104.154ZM106.202 71.944L108.13 72.4759C109.456 67.6684 111.278 63.115 113.595 58.8122L111.834 57.864L110.073 56.9158C107.611 61.4877 105.678 66.3209 104.274 71.4121L106.202 71.944ZM111.834 57.864L113.595 58.8122C115.921 54.4926 118.526 50.6937 121.403 47.405L119.898 46.088L118.393 44.771C115.297 48.309 112.526 52.3607 110.073 56.9158L111.834 57.864ZM119.898 46.088L121.385 47.4259C124.345 44.1364 127.391 41.5885 130.514 39.7467L129.498 38.024L128.482 36.3013C124.949 38.3848 121.595 41.2129 118.411 44.7501L119.898 46.088ZM129.498 38.024L130.527 39.739C133.691 37.8407 136.71 36.952 139.61 36.952V34.952V32.952C135.854 32.952 132.132 34.1113 128.469 36.309L129.498 38.024ZM139.61 34.952V36.952C140.94 36.952 142.185 37.2298 143.366 37.7856L144.218 35.976L145.07 34.1664C143.349 33.3569 141.522 32.952 139.61 32.952V34.952ZM144.218 35.976L143.456 37.8254C144.528 38.2665 145.422 38.9886 146.154 40.0531L147.802 38.92L149.45 37.7869C148.305 36.1208 146.809 34.8802 144.979 34.1266L144.218 35.976ZM147.802 38.92L146.138 40.0294C146.73 40.9182 147.764 42.072 149.338 42.072V40.072V38.072C149.466 38.072 149.575 38.0969 149.656 38.1273C149.734 38.1563 149.771 38.1848 149.77 38.184C149.768 38.1826 149.737 38.1587 149.681 38.0953C149.625 38.0323 149.552 37.9402 149.466 37.8106L147.802 38.92ZM149.338 40.072V42.072C150.912 42.072 151.946 40.9182 152.538 40.0294L150.874 38.92L149.21 37.8106C149.124 37.9402 149.051 38.0323 148.995 38.0953C148.939 38.1587 148.908 38.1826 148.906 38.184C148.905 38.1848 148.942 38.1563 149.02 38.1273C149.101 38.0969 149.21 38.072 149.338 38.072V40.072ZM150.874 38.92L152.522 40.0531C152.962 39.4136 153.334 38.9345 153.641 38.5939C153.793 38.425 153.917 38.3026 154.015 38.2172C154.063 38.1751 154.101 38.1452 154.129 38.1248C154.157 38.1043 154.17 38.0964 154.17 38.0965L153.178 36.36L152.186 34.6235C151.15 35.2154 150.159 36.4293 149.226 37.7869L150.874 38.92ZM153.178 36.36L154.34 37.9875C154.74 37.702 154.892 37.72 154.842 37.72V35.72V33.72C153.768 33.72 152.811 34.1646 152.016 34.7325L153.178 36.36ZM154.842 35.72V37.72C154.952 37.72 154.925 37.7364 154.821 37.696C154.696 37.6475 154.513 37.5357 154.367 37.3305C154.227 37.135 154.2 36.9654 154.195 36.9176C154.191 36.8801 154.202 36.9278 154.166 37.0929L156.122 37.512L158.078 37.9311C158.248 37.1344 158.324 35.989 157.621 35.0055C156.87 33.9528 155.698 33.72 154.842 33.72V35.72ZM156.122 37.512L154.174 37.0593L142.782 86.0833L144.73 86.536L146.678 86.9887L158.07 37.9647L156.122 37.512ZM144.73 86.536L142.781 86.0863C142.125 88.9309 141.909 91.4485 142.498 93.3642C142.81 94.3776 143.373 95.303 144.279 95.9574C145.18 96.6079 146.233 96.856 147.29 96.856V94.856V92.856C146.853 92.856 146.68 92.7575 146.621 92.7146C146.567 92.6757 146.436 92.5611 146.322 92.1878C146.058 91.3302 146.055 89.6878 146.679 86.9857L144.73 86.536ZM147.29 94.856V96.856C150.307 96.856 152.587 94.7861 154.268 91.8923L152.538 90.888L150.808 89.8837C149.417 92.2806 148.198 92.856 147.29 92.856V94.856ZM152.538 90.888L154.243 91.9331C156.005 89.0584 157.686 84.7585 159.322 79.1611L157.402 78.6L155.482 78.0389C153.876 83.5348 152.314 87.427 150.833 89.8429L152.538 90.888ZM157.402 78.6L159.332 79.1262C159.389 78.9173 159.422 78.9689 159.302 79.0708C159.242 79.1213 159.175 79.1573 159.114 79.1774C159.059 79.196 159.036 79.192 159.066 79.192V77.192V75.192C158.253 75.192 157.418 75.4253 156.718 76.0172C156.043 76.5885 155.671 77.344 155.472 78.0738L157.402 78.6ZM159.066 77.192V79.192C159.085 79.192 158.913 79.1953 158.693 79.0481C158.454 78.8891 158.351 78.684 158.321 78.5925L160.218 77.96L162.115 77.3275C161.914 76.724 161.534 76.1349 160.911 75.7199C160.307 75.3167 159.644 75.192 159.066 75.192V77.192ZM160.218 77.96L158.321 78.5924C158.34 78.6492 158.384 78.8431 158.278 79.2669L160.218 79.752L162.158 80.2371C162.394 79.2956 162.438 78.2948 162.115 77.3276L160.218 77.96ZM160.218 79.752L158.258 79.3558C156.654 87.2883 154.553 92.6758 152.113 95.8015L153.69 97.032L155.267 98.2625C158.288 94.3908 160.539 88.2584 162.178 80.1482L160.218 79.752ZM153.69 97.032L152.128 95.7826C149.718 98.7956 146.977 100.152 143.834 100.152V102.152V104.152C148.371 104.152 152.201 102.095 155.252 98.2814L153.69 97.032ZM143.834 102.152V100.152C142.455 100.152 141.392 99.8624 140.561 99.3729C139.736 98.8867 139.022 98.1333 138.444 97.0121L136.666 97.928L134.888 98.8439C135.761 100.539 136.966 101.897 138.531 102.819C140.089 103.738 141.884 104.152 143.834 104.152V102.152ZM136.666 97.928L138.466 97.0555C137.386 94.8293 137.168 91.5196 138.232 86.8527L136.282 86.408L134.332 85.9633C133.178 91.0244 133.215 95.3947 134.866 98.8005L136.666 97.928ZM136.282 86.408L138.228 86.8681L139.892 79.828L137.946 79.368L136 78.9079L134.336 85.9479L136.282 86.408ZM137.946 79.368L139.869 79.9174C139.997 79.4679 140.138 78.7292 139.851 77.9618C139.494 77.01 138.692 76.5305 137.954 76.3828L137.562 78.344L137.17 80.3052C137.047 80.2806 136.832 80.215 136.607 80.0412C136.367 79.8572 136.199 79.6151 136.105 79.3662C135.946 78.9401 136.065 78.6707 136.023 78.8186L137.946 79.368ZM137.562 78.344L138.047 76.4037C137.28 76.212 136.522 76.3821 135.92 76.8125C135.397 77.1859 135.077 77.6896 134.877 78.0896L136.666 78.984L138.455 79.8784C138.511 79.7664 138.469 79.9074 138.244 80.0675C138.118 80.158 137.936 80.2511 137.706 80.2972C137.474 80.3437 137.256 80.3291 137.077 80.2843L137.562 78.344ZM136.666 78.984L134.91 78.0275C130.24 86.602 126.184 92.3825 122.76 95.5676L124.122 97.032L125.484 98.4964C129.399 94.8549 133.705 88.6034 138.422 79.9405L136.666 78.984ZM124.122 97.032L122.743 95.5837C119.34 98.8245 116.397 100.152 113.882 100.152V102.152V104.152C117.852 104.152 121.736 102.066 125.501 98.4803L124.122 97.032ZM117.082 95.624V97.624C119.931 97.624 122.679 95.9273 125.28 93.3262L123.866 91.912L122.452 90.4978C120.104 92.846 118.329 93.624 117.082 93.624V95.624ZM123.866 91.912L125.28 93.3262C127.896 90.7102 130.422 87.3735 132.87 83.3519L131.162 82.312L129.454 81.2721C127.123 85.1011 124.785 88.1645 122.452 90.4978L123.866 91.912ZM131.162 82.312L132.854 83.3786C135.381 79.3706 137.685 75.0653 139.768 70.465L137.946 69.64L136.124 68.815C134.111 73.26 131.893 77.4027 129.47 81.2454L131.162 82.312ZM137.946 69.64L139.768 70.465C141.851 65.8653 143.508 61.4211 144.733 57.1334L142.81 56.584L140.887 56.0346C139.723 60.1096 138.137 64.3693 136.124 68.815L137.946 69.64ZM142.81 56.584L144.722 57.1694C146.034 52.8843 146.73 49.1331 146.73 45.96H144.73H142.73C142.73 48.5896 142.146 51.9211 140.898 55.9986L142.81 56.584ZM144.73 45.96H146.73C146.73 43.1834 146.252 40.7434 144.989 38.9517C143.635 37.032 141.597 36.152 139.226 36.152V38.152V40.152C140.524 40.152 141.238 40.5733 141.719 41.2563C142.291 42.0672 142.73 43.5313 142.73 45.96H144.73ZM139.226 38.152V36.152C136.372 36.152 133.588 37.4681 130.911 39.6832L132.186 41.224L133.461 42.7648C135.734 40.8839 137.642 40.152 139.226 40.152V38.152ZM132.186 41.224L130.943 39.657C128.268 41.7788 125.746 44.6346 123.36 48.1691L125.018 49.288L126.676 50.4069C128.898 47.1148 131.155 44.5945 133.429 42.791L132.186 41.224ZM125.018 49.288L123.341 48.198C121.052 51.7198 118.953 55.7046 117.038 60.1438L118.874 60.936L120.71 61.7282C122.55 57.4634 124.547 53.6828 126.695 50.378L125.018 49.288ZM118.874 60.936L117.03 60.1615C115.194 64.5342 113.709 69.1197 112.576 73.9159L114.522 74.376L116.468 74.8361C117.553 70.2457 118.97 65.8712 120.718 61.7105L118.874 60.936ZM114.522 74.376L112.578 73.9079C111.434 78.6588 110.858 83.3387 110.858 87.944H112.858H114.858C114.858 83.6747 115.392 79.3092 116.466 74.8441L114.522 74.376ZM112.858 87.944H110.858C110.858 89.5041 110.946 90.8804 111.141 92.0488C111.332 93.194 111.645 94.2697 112.179 95.1362L113.882 94.088L115.585 93.0398C115.436 92.797 115.237 92.294 115.087 91.3912C114.94 90.5116 114.858 89.3706 114.858 87.944H112.858ZM113.882 94.088L112.282 95.288C113.456 96.8535 115.136 97.624 117.082 97.624V95.624V93.624C116.297 93.624 115.844 93.3705 115.482 92.888L113.882 94.088ZM173.739 99.336L171.793 98.8727L171.79 98.8863L173.739 99.336ZM185.899 48.264L187.845 48.7272L187.847 48.7173L187.849 48.7072L185.899 48.264ZM186.027 43.912L184.078 44.3617L184.1 44.4543L184.13 44.5445L186.027 43.912ZM178.603 45.704L177.053 44.4406L177.047 44.4473L178.603 45.704ZM172.459 58.504L170.58 57.8185L170.563 57.8667L170.547 57.9158L172.459 58.504ZM169.643 57.864L171.507 58.5889L171.53 58.5309L171.548 58.4715L169.643 57.864ZM175.531 44.04L173.847 42.9607L173.837 42.9761L173.828 42.9918L175.531 44.04ZM181.931 37L183.009 38.6845L183.009 38.6845L181.931 37ZM193.835 38.152L192.09 39.1292L192.099 39.1445L192.107 39.1597L193.835 38.152ZM193.963 48.392L195.91 48.8478L195.911 48.8443L193.963 48.392ZM192.555 54.408L190.608 53.9522L190.588 54.038L190.575 54.1252L192.555 54.408ZM192.939 55.432L192.454 57.3723L192.454 57.3723L192.939 55.432ZM193.835 54.792L195.624 55.6864L195.647 55.64L195.668 55.5925L193.835 54.792ZM202.667 39.304L204.145 40.6515L204.145 40.6515L202.667 39.304ZM216.875 36.872L215.364 38.1819L215.41 38.2358L215.461 38.2862L216.875 36.872ZM217.131 46.984L215.569 45.7346L215.569 45.7346L217.131 46.984ZM210.219 47.88L211.724 46.563L211.724 46.563L210.219 47.88ZM208.811 45.576L206.881 46.1022L206.912 46.2126L206.954 46.3188L208.811 45.576ZM207.915 43.144L209.704 42.2496L209.704 42.2496L207.915 43.144ZM201.259 46.984L199.568 45.916L199.568 45.916L201.259 46.984ZM194.603 60.168L192.766 59.3768L192.763 59.3837L192.76 59.3906L194.603 60.168ZM187.819 78.6L185.917 77.9818L185.913 77.9926L185.91 78.0034L187.819 78.6ZM182.187 99.592L184.117 100.118L184.128 100.076L184.138 100.033L182.187 99.592ZM175.147 101V99C174.991 99 174.965 98.9804 175.019 98.9986C175.087 99.0212 175.261 99.0978 175.426 99.2921C175.594 99.4913 175.652 99.6955 175.667 99.8097C175.679 99.9039 175.659 99.9093 175.688 99.7857L173.739 99.336L171.79 98.8863C171.602 99.7007 171.542 100.894 172.372 101.876C173.174 102.824 174.331 103 175.147 103V101ZM173.739 99.336L175.685 99.7992L187.845 48.7272L185.899 48.264L183.953 47.8008L171.793 98.8728L173.739 99.336ZM185.899 48.264L187.849 48.7072C188.302 46.7149 188.44 44.8277 187.924 43.2795L186.027 43.912L184.13 44.5445C184.296 45.0443 184.349 46.0585 183.949 47.8208L185.899 48.264ZM186.027 43.912L187.976 43.4623C187.762 42.5356 187.282 41.6582 186.43 41.0426C185.604 40.4459 184.638 40.248 183.723 40.248V42.248V44.248C184.088 44.248 184.146 44.3274 184.088 44.2854C184.06 44.265 184.041 44.2413 184.036 44.2322C184.033 44.2276 184.055 44.2617 184.078 44.3617L186.027 43.912ZM183.723 42.248V40.248C181.214 40.248 178.986 42.0673 177.053 44.4407L178.603 45.704L180.153 46.9673C181.974 44.7327 183.16 44.248 183.723 44.248V42.248ZM178.603 45.704L177.047 44.4473C175.026 46.9499 172.885 51.5016 170.58 57.8185L172.459 58.504L174.338 59.1895C176.641 52.877 178.596 48.8955 180.159 46.9607L178.603 45.704ZM172.459 58.504L170.547 57.9158C170.496 58.0841 170.447 58.1897 170.413 58.2494C170.38 58.3078 170.369 58.3098 170.394 58.2864C170.423 58.2595 170.475 58.2226 170.545 58.1959C170.613 58.1698 170.66 58.168 170.667 58.168V60.168V62.168C171.572 62.168 172.429 61.8557 173.116 61.2176C173.758 60.6209 174.138 59.8482 174.371 59.0922L172.459 58.504ZM170.667 60.168V58.168C170.526 58.168 170.585 58.1436 170.739 58.2165C170.824 58.2568 170.932 58.3241 171.037 58.4298C171.144 58.5369 171.225 58.6587 171.279 58.7797C171.382 59.012 171.352 59.1562 171.359 59.0929C171.365 59.0331 171.396 58.8731 171.507 58.5889L169.643 57.864L167.779 57.1391C167.45 57.9851 167.104 59.2368 167.623 60.4043C168.27 61.8585 169.705 62.168 170.667 62.168V60.168ZM169.643 57.864L171.548 58.4715C173.402 52.6598 175.306 48.2222 177.234 45.0882L175.531 44.04L173.828 42.9918C171.66 46.5138 169.639 51.2922 167.737 57.2565L169.643 57.864ZM175.531 44.04L177.215 45.1193C179.271 41.9122 181.217 39.8314 183.009 38.6845L181.931 37L180.853 35.3155C178.378 36.8993 176.058 39.5118 173.847 42.9607L175.531 44.04ZM181.931 37L183.009 38.6845C184.948 37.4438 186.536 36.952 187.819 36.952V34.952V32.952C185.518 32.952 183.181 33.8255 180.853 35.3155L181.931 37ZM187.819 34.952V36.952C190.043 36.952 191.309 37.7349 192.09 39.1292L193.835 38.152L195.58 37.1748C193.971 34.3024 191.227 32.952 187.819 32.952V34.952ZM193.835 38.152L192.107 39.1597C192.471 39.7823 192.744 40.7692 192.763 42.273C192.782 43.7661 192.547 45.645 192.015 47.9397L193.963 48.392L195.911 48.8443C196.488 46.3603 196.787 44.1432 196.763 42.223C196.739 40.3134 196.394 38.5697 195.563 37.1443L193.835 38.152ZM193.963 48.392L192.016 47.9362L190.608 53.9522L192.555 54.408L194.502 54.8638L195.91 48.8478L193.963 48.392ZM192.555 54.408L190.575 54.1252C190.513 54.5633 190.479 55.1871 190.714 55.8142C190.999 56.5741 191.618 57.1634 192.454 57.3723L192.939 55.432L193.424 53.4917C193.623 53.5416 193.857 53.6478 194.068 53.8401C194.278 54.0304 194.397 54.2423 194.46 54.4098C194.567 54.6955 194.512 54.8501 194.535 54.6908L192.555 54.408ZM192.939 55.432L192.454 57.3723C193.221 57.564 193.979 57.3939 194.581 56.9635C195.104 56.59 195.424 56.0864 195.624 55.6864L193.835 54.792L192.046 53.8976C191.99 54.0096 192.032 53.8686 192.257 53.7085C192.383 53.618 192.565 53.5249 192.795 53.4788C193.027 53.4323 193.245 53.4469 193.424 53.4917L192.939 55.432ZM193.835 54.792L195.668 55.5925C198.896 48.2026 201.733 43.2966 204.145 40.6515L202.667 39.304L201.189 37.9565C198.31 41.114 195.26 46.5334 192.002 53.9915L193.835 54.792ZM202.667 39.304L204.145 40.6515C206.474 38.0971 208.991 36.952 211.755 36.952V34.952V32.952C207.692 32.952 204.151 34.7083 201.189 37.9565L202.667 39.304ZM211.755 34.952V36.952C213.698 36.952 214.757 37.4825 215.364 38.1819L216.875 36.872L218.386 35.5621C216.774 33.7015 214.42 32.952 211.755 32.952V34.952ZM216.875 36.872L215.461 38.2862C216.188 39.0135 216.667 40.1144 216.667 41.864H218.667H220.667C220.667 39.3469 219.951 37.1199 218.289 35.4578L216.875 36.872ZM218.667 41.864H216.667C216.667 43.6814 216.234 44.9039 215.569 45.7346L217.131 46.984L218.693 48.2334C220.076 46.5041 220.667 44.3133 220.667 41.864H218.667ZM217.131 46.984L215.569 45.7346C214.92 46.5463 214.169 46.904 213.163 46.904V48.904V50.904C215.4 50.904 217.294 49.9817 218.693 48.2334L217.131 46.984ZM213.163 48.904V46.904C212.081 46.904 211.784 46.631 211.724 46.563L210.219 47.88L208.714 49.197C209.849 50.4943 211.515 50.904 213.163 50.904V48.904ZM210.219 47.88L211.724 46.563C211.278 46.0527 210.926 45.4795 210.668 44.8332L208.811 45.576L206.954 46.3188C207.378 47.3792 207.966 48.3419 208.714 49.197L210.219 47.88ZM208.811 45.576L210.741 45.0498C210.459 44.0168 210.118 43.077 209.704 42.2496L207.915 43.144L206.126 44.0384C206.395 44.5764 206.651 45.2578 206.881 46.1022L208.811 45.576ZM207.915 43.144L209.704 42.2496C209.396 41.633 208.937 41.0702 208.291 40.6727C207.646 40.2756 206.938 40.12 206.251 40.12V42.12V44.12C206.295 44.12 206.304 44.1249 206.287 44.1206C206.269 44.1157 206.234 44.1037 206.195 44.0793C206.155 44.0549 206.128 44.0292 206.114 44.013C206.101 43.9983 206.108 44.0019 206.126 44.0384L207.915 43.144ZM206.251 42.12V40.12C204.802 40.12 203.577 40.9978 202.647 41.9035C201.654 42.8713 200.629 44.2359 199.568 45.916L201.259 46.984L202.95 48.052C203.937 46.4894 204.768 45.422 205.439 44.7685C206.173 44.0529 206.42 44.12 206.251 44.12V42.12ZM201.259 46.984L199.568 45.916C197.442 49.2822 195.176 53.782 192.766 59.3768L194.603 60.168L196.44 60.9592C198.808 55.4607 200.98 51.1712 202.95 48.052L201.259 46.984ZM194.603 60.168L192.76 59.3906C190.43 64.9136 188.15 71.1121 185.917 77.9818L187.819 78.6L189.721 79.2182C191.926 72.4346 194.168 66.345 196.446 60.9454L194.603 60.168ZM187.819 78.6L185.91 78.0034C183.76 84.8827 181.869 91.9319 180.236 99.1508L182.187 99.592L184.138 100.033C185.748 92.9161 187.611 85.9706 189.728 79.1965L187.819 78.6ZM182.187 99.592L180.257 99.0658C180.234 99.1526 180.215 99.1803 180.221 99.1714C180.228 99.1589 180.256 99.1187 180.311 99.0754C180.367 99.0315 180.42 99.0086 180.451 98.9993C180.477 98.9913 180.464 99 180.395 99V101V103C181.204 103 182.055 102.792 182.783 102.221C183.503 101.654 183.907 100.885 184.117 100.118L182.187 99.592ZM180.395 101V99H175.147V101V103H180.395V101ZM224.704 99.336L222.758 98.8727L222.755 98.8863L224.704 99.336ZM236.864 48.264L238.81 48.7272L238.812 48.7173L238.814 48.7072L236.864 48.264ZM236.992 43.912L235.043 44.3617L235.065 44.4543L235.095 44.5445L236.992 43.912ZM229.568 45.704L228.018 44.4406L228.012 44.4473L229.568 45.704ZM223.424 58.504L221.545 57.8185L221.528 57.8667L221.512 57.9158L223.424 58.504ZM220.608 57.864L222.472 58.5889L222.495 58.5309L222.513 58.4715L220.608 57.864ZM226.496 44.04L224.812 42.9607L224.802 42.9761L224.793 42.9918L226.496 44.04ZM232.896 37L233.974 38.6845L233.974 38.6845L232.896 37ZM244.8 38.152L243.055 39.1292L243.064 39.1445L243.072 39.1597L244.8 38.152ZM244.928 48.392L246.875 48.8478L246.876 48.8443L244.928 48.392ZM243.52 54.408L241.573 53.9522L241.553 54.038L241.54 54.1252L243.52 54.408ZM243.904 55.432L243.419 57.3723L243.419 57.3723L243.904 55.432ZM244.8 54.792L246.589 55.6864L246.612 55.64L246.633 55.5925L244.8 54.792ZM253.632 39.304L255.11 40.6515L255.11 40.6515L253.632 39.304ZM267.84 36.872L266.329 38.1819L266.375 38.2358L266.426 38.2862L267.84 36.872ZM268.096 46.984L266.534 45.7346L266.534 45.7346L268.096 46.984ZM261.184 47.88L262.689 46.563L262.689 46.563L261.184 47.88ZM259.776 45.576L257.846 46.1022L257.877 46.2126L257.919 46.3188L259.776 45.576ZM258.88 43.144L260.669 42.2496L260.669 42.2496L258.88 43.144ZM252.224 46.984L250.533 45.916L250.533 45.916L252.224 46.984ZM245.568 60.168L243.731 59.3768L243.728 59.3837L243.725 59.3906L245.568 60.168ZM238.784 78.6L236.882 77.9818L236.878 77.9926L236.875 78.0034L238.784 78.6ZM233.152 99.592L235.082 100.118L235.093 100.076L235.103 100.033L233.152 99.592ZM226.112 101V99C225.956 99 225.93 98.9804 225.984 98.9986C226.052 99.0212 226.226 99.0978 226.391 99.2921C226.559 99.4913 226.617 99.6955 226.632 99.8097C226.644 99.9039 226.624 99.9093 226.653 99.7857L224.704 99.336L222.755 98.8863C222.567 99.7007 222.507 100.894 223.337 101.876C224.139 102.824 225.296 103 226.112 103V101ZM224.704 99.336L226.65 99.7992L238.81 48.7272L236.864 48.264L234.918 47.8008L222.758 98.8728L224.704 99.336ZM236.864 48.264L238.814 48.7072C239.267 46.7149 239.405 44.8277 238.889 43.2795L236.992 43.912L235.095 44.5445C235.261 45.0443 235.314 46.0585 234.914 47.8208L236.864 48.264ZM236.992 43.912L238.941 43.4623C238.727 42.5356 238.247 41.6582 237.395 41.0426C236.569 40.4459 235.603 40.248 234.688 40.248V42.248V44.248C235.053 44.248 235.111 44.3274 235.053 44.2854C235.025 44.265 235.006 44.2413 235.001 44.2322C234.998 44.2276 235.02 44.2617 235.043 44.3617L236.992 43.912ZM234.688 42.248V40.248C232.179 40.248 229.951 42.0673 228.018 44.4407L229.568 45.704L231.118 46.9673C232.939 44.7327 234.125 44.248 234.688 44.248V42.248ZM229.568 45.704L228.012 44.4473C225.991 46.9499 223.85 51.5016 221.545 57.8185L223.424 58.504L225.303 59.1895C227.606 52.877 229.561 48.8955 231.124 46.9607L229.568 45.704ZM223.424 58.504L221.512 57.9158C221.461 58.0841 221.412 58.1897 221.378 58.2494C221.345 58.3078 221.334 58.3098 221.359 58.2864C221.388 58.2595 221.44 58.2226 221.51 58.1959C221.578 58.1698 221.625 58.168 221.632 58.168V60.168V62.168C222.537 62.168 223.394 61.8557 224.081 61.2176C224.723 60.6209 225.103 59.8482 225.336 59.0922L223.424 58.504ZM221.632 60.168V58.168C221.491 58.168 221.55 58.1436 221.704 58.2165C221.789 58.2568 221.897 58.3241 222.002 58.4298C222.109 58.5369 222.19 58.6587 222.244 58.7797C222.347 59.012 222.317 59.1562 222.324 59.0929C222.33 59.0331 222.361 58.8731 222.472 58.5889L220.608 57.864L218.744 57.1391C218.415 57.9851 218.07 59.2368 218.588 60.4043C219.235 61.8585 220.67 62.168 221.632 62.168V60.168ZM220.608 57.864L222.513 58.4715C224.367 52.6598 226.271 48.2222 228.199 45.0882L226.496 44.04L224.793 42.9918C222.625 46.5138 220.604 51.2922 218.703 57.2565L220.608 57.864ZM226.496 44.04L228.18 45.1193C230.236 41.9122 232.182 39.8314 233.974 38.6845L232.896 37L231.818 35.3155C229.343 36.8993 227.023 39.5118 224.812 42.9607L226.496 44.04ZM232.896 37L233.974 38.6845C235.913 37.4438 237.501 36.952 238.784 36.952V34.952V32.952C236.483 32.952 234.146 33.8255 231.818 35.3155L232.896 37ZM238.784 34.952V36.952C241.008 36.952 242.274 37.7349 243.055 39.1292L244.8 38.152L246.545 37.1748C244.936 34.3024 242.192 32.952 238.784 32.952V34.952ZM244.8 38.152L243.072 39.1597C243.436 39.7823 243.709 40.7692 243.728 42.273C243.747 43.7661 243.513 45.645 242.98 47.9397L244.928 48.392L246.876 48.8443C247.453 46.3603 247.752 44.1432 247.728 42.223C247.704 40.3134 247.359 38.5697 246.528 37.1443L244.8 38.152ZM244.928 48.392L242.981 47.9362L241.573 53.9522L243.52 54.408L245.467 54.8638L246.875 48.8478L244.928 48.392ZM243.52 54.408L241.54 54.1252C241.478 54.5633 241.444 55.1871 241.679 55.8142C241.964 56.5741 242.583 57.1634 243.419 57.3723L243.904 55.432L244.389 53.4917C244.588 53.5416 244.822 53.6478 245.033 53.8401C245.243 54.0304 245.362 54.2423 245.425 54.4098C245.532 54.6955 245.477 54.8501 245.5 54.6908L243.52 54.408ZM243.904 55.432L243.419 57.3723C244.186 57.564 244.944 57.3939 245.546 56.9635C246.069 56.59 246.389 56.0864 246.589 55.6864L244.8 54.792L243.011 53.8976C242.955 54.0096 242.997 53.8686 243.222 53.7085C243.348 53.618 243.53 53.5249 243.76 53.4788C243.992 53.4323 244.21 53.4469 244.389 53.4917L243.904 55.432ZM244.8 54.792L246.633 55.5925C249.861 48.2026 252.698 43.2966 255.11 40.6515L253.632 39.304L252.154 37.9565C249.275 41.114 246.225 46.5334 242.967 53.9915L244.8 54.792ZM253.632 39.304L255.11 40.6515C257.439 38.0971 259.956 36.952 262.72 36.952V34.952V32.952C258.657 32.952 255.116 34.7083 252.154 37.9565L253.632 39.304ZM262.72 34.952V36.952C264.663 36.952 265.722 37.4825 266.329 38.1819L267.84 36.872L269.351 35.5621C267.739 33.7015 265.385 32.952 262.72 32.952V34.952ZM267.84 36.872L266.426 38.2862C267.153 39.0135 267.632 40.1144 267.632 41.864H269.632H271.632C271.632 39.3469 270.916 37.1199 269.254 35.4578L267.84 36.872ZM269.632 41.864H267.632C267.632 43.6814 267.199 44.9039 266.534 45.7346L268.096 46.984L269.658 48.2334C271.041 46.5041 271.632 44.3133 271.632 41.864H269.632ZM268.096 46.984L266.534 45.7346C265.885 46.5463 265.134 46.904 264.128 46.904V48.904V50.904C266.365 50.904 268.259 49.9817 269.658 48.2334L268.096 46.984ZM264.128 48.904V46.904C263.046 46.904 262.749 46.631 262.689 46.563L261.184 47.88L259.679 49.197C260.814 50.4943 262.48 50.904 264.128 50.904V48.904ZM261.184 47.88L262.689 46.563C262.243 46.0527 261.891 45.4795 261.633 44.8332L259.776 45.576L257.919 46.3188C258.343 47.3792 258.931 48.3419 259.679 49.197L261.184 47.88ZM259.776 45.576L261.706 45.0498C261.424 44.0168 261.083 43.077 260.669 42.2496L258.88 43.144L257.091 44.0384C257.36 44.5764 257.616 45.2578 257.846 46.1022L259.776 45.576ZM258.88 43.144L260.669 42.2496C260.361 41.633 259.902 41.0702 259.256 40.6727C258.611 40.2756 257.903 40.12 257.216 40.12V42.12V44.12C257.26 44.12 257.269 44.1249 257.252 44.1206C257.234 44.1157 257.199 44.1037 257.16 44.0793C257.12 44.0549 257.093 44.0292 257.079 44.013C257.066 43.9983 257.073 44.0019 257.091 44.0384L258.88 43.144ZM257.216 42.12V40.12C255.767 40.12 254.542 40.9978 253.612 41.9035C252.619 42.8713 251.594 44.2359 250.533 45.916L252.224 46.984L253.915 48.052C254.902 46.4894 255.733 45.422 256.404 44.7685C257.138 44.0529 257.385 44.12 257.216 44.12V42.12ZM252.224 46.984L250.533 45.916C248.407 49.2822 246.141 53.782 243.731 59.3768L245.568 60.168L247.405 60.9592C249.773 55.4607 251.945 51.1712 253.915 48.052L252.224 46.984ZM245.568 60.168L243.725 59.3906C241.395 64.9136 239.115 71.1121 236.882 77.9818L238.784 78.6L240.686 79.2182C242.891 72.4346 245.133 66.345 247.411 60.9454L245.568 60.168ZM238.784 78.6L236.875 78.0034C234.725 84.8827 232.834 91.9319 231.201 99.1508L233.152 99.592L235.103 100.033C236.713 92.9161 238.576 85.9706 240.693 79.1965L238.784 78.6ZM233.152 99.592L231.222 99.0658C231.199 99.1526 231.18 99.1803 231.186 99.1714C231.193 99.1589 231.221 99.1187 231.276 99.0754C231.332 99.0315 231.385 99.0086 231.416 98.9993C231.442 98.9913 231.429 99 231.36 99V101V103C232.169 103 233.02 102.792 233.748 102.221C234.468 101.654 234.872 100.885 235.082 100.118L233.152 99.592ZM231.36 101V99H226.112V101V103H231.36V101ZM273.803 95.624L272.159 96.7624L272.164 96.7699L272.169 96.7774L273.803 95.624ZM271.883 61.704L269.995 61.0433L269.995 61.0433L271.883 61.704ZM278.923 48.008L277.319 46.8135L277.311 46.8246L277.303 46.8358L278.923 48.008ZM288.779 38.536L289.861 40.2184L289.87 40.212L288.779 38.536ZM312.331 41.48L313.965 40.3266L313.965 40.3266L312.331 41.48ZM314.251 75.4L316.139 76.0607L316.139 76.0607L314.251 75.4ZM307.083 89.096L305.479 87.9015L305.471 87.9126L305.463 87.9238L307.083 89.096ZM297.227 98.696L298.309 100.378L298.318 100.372L297.227 98.696ZM294.027 95.112L292.613 93.6978L292.601 93.7094L292.59 93.7212L294.027 95.112ZM306.315 70.152L308.259 70.6223L308.261 70.6152L306.315 70.152ZM291.979 41.992L293.37 43.4292L293.382 43.4178L293.393 43.4062L291.979 41.992ZM284.811 52.36L283.015 51.4797L283.008 51.494L283.001 51.5084L284.811 52.36ZM279.819 66.952L281.763 67.4223L281.765 67.4152L279.819 66.952ZM286.347 102.152V100.152C281.712 100.152 278.137 98.2961 275.437 94.4706L273.803 95.624L272.169 96.7774C275.613 101.656 280.401 104.152 286.347 104.152V102.152ZM273.803 95.624L275.447 94.4856C272.682 90.4904 271.195 84.9608 271.195 77.704H269.195H267.195C267.195 85.4658 268.781 91.8829 272.159 96.7624L273.803 95.624ZM269.195 77.704H271.195C271.195 72.3772 272.055 67.2675 273.771 62.3647L271.883 61.704L269.995 61.0433C268.127 66.3805 267.195 71.9375 267.195 77.704H269.195ZM271.883 61.704L273.771 62.3647C275.505 57.4099 277.766 53.02 280.543 49.1802L278.923 48.008L277.303 46.8358C274.278 51.0173 271.845 55.7581 269.995 61.0433L271.883 61.704ZM278.923 48.008L280.527 49.2025C283.395 45.3517 286.51 42.372 289.861 40.2184L288.779 38.536L287.697 36.8536C283.88 39.308 280.425 42.6429 277.319 46.8135L278.923 48.008ZM288.779 38.536L289.87 40.212C293.279 37.9926 296.575 36.952 299.787 36.952V34.952V32.952C295.661 32.952 291.618 34.3007 287.688 36.86L288.779 38.536ZM299.787 34.952V36.952C304.423 36.952 307.997 38.8079 310.697 42.6334L312.331 41.48L313.965 40.3266C310.521 35.4481 305.733 32.952 299.787 32.952V34.952ZM312.331 41.48L310.697 42.6334C313.449 46.532 314.939 52.0491 314.939 59.4H316.939H318.939C318.939 51.5615 317.357 45.132 313.965 40.3266L312.331 41.48ZM316.939 59.4H314.939C314.939 64.7268 314.079 69.8365 312.363 74.7393L314.251 75.4L316.139 76.0607C318.007 70.7235 318.939 65.1665 318.939 59.4H316.939ZM314.251 75.4L312.363 74.7393C310.633 79.6842 308.335 84.0665 305.479 87.9015L307.083 89.096L308.687 90.2905C311.805 86.1041 314.285 81.3558 316.139 76.0607L314.251 75.4ZM307.083 89.096L305.463 87.9238C302.687 91.7612 299.574 94.781 296.136 97.02L297.227 98.696L298.318 100.372C302.219 97.8323 305.677 94.4521 308.703 90.2682L307.083 89.096ZM297.227 98.696L296.145 97.0136C292.831 99.1444 289.574 100.152 286.347 100.152V102.152V104.152C290.458 104.152 294.455 102.856 298.309 100.378L297.227 98.696ZM286.091 99.08V101.08C289.532 101.08 292.663 99.3973 295.464 96.5028L294.027 95.112L292.59 93.7212C290.271 96.1173 288.112 97.08 286.091 97.08V99.08ZM294.027 95.112L295.441 96.5262C298.281 93.6869 300.788 89.9908 302.991 85.4963L301.195 84.616L299.399 83.7357C297.336 87.9452 295.064 91.2465 292.613 93.6978L294.027 95.112ZM301.195 84.616L302.991 85.4963C305.196 80.9986 306.949 76.0376 308.259 70.6223L306.315 70.152L304.371 69.6817C303.121 74.8478 301.461 79.5294 299.399 83.7357L301.195 84.616ZM306.315 70.152L308.261 70.6152C309.576 65.0917 310.235 59.5603 310.235 54.024H308.235H306.235C306.235 59.2397 305.614 64.4603 304.369 69.6888L306.315 70.152ZM308.235 54.024H310.235C310.235 48.5824 309.539 44.1956 307.929 41.1013C307.11 39.5248 306.026 38.2324 304.634 37.3402C303.234 36.4425 301.636 36.024 299.915 36.024V38.024V40.024C300.967 40.024 301.796 40.2722 302.476 40.7078C303.164 41.1489 303.814 41.8565 304.381 42.9467C305.545 45.1857 306.235 48.7989 306.235 54.024H308.235ZM299.915 38.024V36.024C296.552 36.024 293.428 37.7145 290.565 40.5778L291.979 41.992L293.393 43.4062C295.821 40.9789 297.987 40.024 299.915 40.024V38.024ZM291.979 41.992L290.588 40.5548C287.733 43.3175 285.22 46.982 283.015 51.4797L284.811 52.36L286.607 53.2403C288.669 49.034 290.934 45.7865 293.37 43.4292L291.979 41.992ZM284.811 52.36L283.001 51.5084C280.887 56.0016 279.181 60.9983 277.873 66.4888L279.819 66.952L281.765 67.4152C283.017 62.1537 284.639 57.4224 286.621 53.2116L284.811 52.36ZM279.819 66.952L277.875 66.4817C276.558 71.9244 275.899 77.4156 275.899 82.952H277.899H279.899C279.899 77.7364 280.52 72.5609 281.763 67.4223L279.819 66.952ZM277.899 82.952H275.899C275.899 88.4326 276.584 92.8439 278.164 95.9537C278.968 97.5374 280.034 98.8413 281.41 99.7441C282.796 100.654 284.382 101.08 286.091 101.08V99.08V97.08C285.069 97.08 284.266 96.8339 283.604 96.3999C282.932 95.9587 282.291 95.2466 281.73 94.1423C280.579 91.8761 279.899 88.2234 279.899 82.952H277.899ZM332.947 98.056L334.595 96.9229L332.947 98.056ZM331.923 86.92L329.99 86.4079L329.987 86.4172L329.985 86.4266L331.923 86.92ZM342.163 48.264L340.235 47.7308L340.232 47.7413L340.23 47.7519L342.163 48.264ZM334.739 46.088L333.101 44.9411L333.088 44.9597L333.075 44.9786L334.739 46.088ZM329.107 58.632L327.221 57.9664L327.215 57.9829L327.21 57.9995L329.107 58.632ZM326.291 59.656L324.576 60.685L324.629 60.7735L324.691 60.856L326.291 59.656ZM326.163 58.12L324.258 57.5097L324.249 57.54L324.24 57.5706L326.163 58.12ZM350.611 38.536L352.449 37.7482L352.449 37.7482L350.611 38.536ZM350.483 48.392L348.55 47.8791L348.549 47.8827L350.483 48.392ZM339.731 89.224L341.664 89.7358L341.665 89.7333L339.731 89.224ZM339.603 95.624L337.814 96.5184L337.814 96.5184L339.603 95.624ZM356.627 82.312L354.841 81.4117L354.838 81.4176L356.627 82.312ZM370.323 37.128L368.393 36.6018L368.375 36.6698L368.361 36.739L370.323 37.128ZM378.515 37.384L376.566 36.9343L376.559 36.9652L376.553 36.9964L378.515 37.384ZM368.275 89.224L370.231 89.639L370.234 89.6253L370.237 89.6116L368.275 89.224ZM368.403 95.624L366.593 96.4756L366.624 96.5413L366.66 96.6045L368.403 95.624ZM386.451 84.744L384.703 83.7727L384.694 83.7877L384.686 83.8028L386.451 84.744ZM391.571 72.072L389.644 71.5367L389.644 71.5367L391.571 72.072ZM392.595 50.056L390.65 50.5227L390.661 50.5697L390.675 50.616L392.595 50.056ZM390.931 44.68L389.082 45.4415L389.082 45.4415L390.931 44.68ZM398.355 38.408L396.419 38.9099L396.421 38.9189L396.424 38.9279L398.355 38.408ZM396.819 67.848L394.88 67.3568L394.878 67.3661L394.876 67.3753L396.819 67.848ZM390.419 85.128L388.648 84.1989L388.642 84.21L390.419 85.128ZM381.203 97.544L382.541 99.0306L382.543 99.0288L381.203 97.544ZM361.875 97.928L360.218 99.0486L360.226 99.0602L360.234 99.0716L361.875 97.928ZM360.595 85.384L358.672 84.8346L358.651 84.9095L358.635 84.9859L360.595 85.384ZM360.211 84.36L359.726 86.3003L359.772 86.3118L359.819 86.3212L360.211 84.36ZM359.315 85L357.526 84.1056L357.526 84.1056L359.315 85ZM351.251 97.16L352.739 98.4958L352.739 98.4958L351.251 97.16ZM341.011 102.152V100.152C338.127 100.152 336.075 99.0759 334.595 96.9229L332.947 98.056L331.299 99.1891C333.573 102.497 336.897 104.152 341.011 104.152V102.152ZM332.947 98.056L334.595 96.9229C333.172 94.8526 332.742 91.811 333.861 87.4134L331.923 86.92L329.985 86.4266C328.715 91.4157 328.968 95.7981 331.299 99.1891L332.947 98.056ZM331.923 86.92L333.856 87.4321L344.096 48.7761L342.163 48.264L340.23 47.7519L329.99 86.4079L331.923 86.92ZM342.163 48.264L344.091 48.7972C344.666 46.7166 344.922 44.7111 344.376 43.1075C344.079 42.2353 343.537 41.4628 342.707 40.9357C341.904 40.4255 340.993 40.248 340.115 40.248V42.248V44.248C340.474 44.248 340.577 44.3212 340.563 44.3123C340.522 44.2865 340.545 44.266 340.59 44.3965C340.726 44.7982 340.769 45.8007 340.235 47.7308L342.163 48.264ZM340.115 42.248V40.248C337.307 40.248 334.993 42.2371 333.101 44.9411L334.739 46.088L336.377 47.2349C338.069 44.8189 339.339 44.248 340.115 44.248V42.248ZM334.739 46.088L333.075 44.9786C331.224 47.7543 329.281 52.1302 327.221 57.9664L329.107 58.632L330.993 59.2976C333.029 53.5285 334.84 49.5417 336.403 47.1974L334.739 46.088ZM329.107 58.632L327.21 57.9995C327.163 58.1394 327.121 58.2208 327.096 58.2611C327.073 58.2996 327.071 58.2919 327.101 58.2655C327.135 58.2365 327.184 58.2061 327.241 58.186C327.296 58.1668 327.326 58.168 327.315 58.168V60.168V62.168C328.176 62.168 329.012 61.8964 329.705 61.3025C330.363 60.7386 330.76 59.9975 331.004 59.2645L329.107 58.632ZM327.315 60.168V58.168C327.375 58.168 327.495 58.182 327.633 58.2511C327.772 58.3203 327.855 58.4079 327.891 58.456L326.291 59.656L324.691 60.856C325.325 61.7009 326.259 62.168 327.315 62.168V60.168ZM326.291 59.656L328.006 58.627C328.021 58.6519 328.035 58.6816 328.045 58.7136C328.055 58.7453 328.059 58.7708 328.06 58.7859C328.063 58.8152 328.054 58.783 328.086 58.6694L326.163 58.12L324.24 57.5706C323.958 58.5589 323.968 59.6708 324.576 60.685L326.291 59.656ZM326.163 58.12L328.068 58.7303C330.509 51.1109 333.202 45.582 336.076 41.9944C338.925 38.4378 341.806 36.952 344.723 36.952V34.952V32.952C340.216 32.952 336.292 35.3275 332.954 39.4936C329.641 43.6286 326.766 49.6838 324.258 57.5097L326.163 58.12ZM344.723 34.952V36.952C345.902 36.952 346.736 37.1939 347.331 37.5564C347.911 37.9096 348.402 38.4593 348.773 39.3238L350.611 38.536L352.449 37.7482C351.796 36.2233 350.793 34.9811 349.411 34.1396C348.044 33.3074 346.445 32.952 344.723 32.952V34.952ZM350.611 38.536L348.773 39.3238C349.537 41.1079 349.614 43.8672 348.55 47.8791L350.483 48.392L352.416 48.9049C353.57 44.5542 353.733 40.7428 352.449 37.7482L350.611 38.536ZM350.483 48.392L348.549 47.8827L337.797 88.7147L339.731 89.224L341.665 89.7333L352.417 48.9013L350.483 48.392ZM339.731 89.224L337.798 88.7122C337.009 91.6931 336.783 94.4567 337.814 96.5184L339.603 95.624L341.392 94.7296C341.057 94.0606 340.917 92.5576 341.664 89.7358L339.731 89.224ZM339.603 95.624L337.814 96.5184C338.274 97.4384 338.91 98.2485 339.774 98.8241C340.65 99.4081 341.642 99.672 342.675 99.672V97.672V95.672C342.342 95.672 342.14 95.5946 341.992 95.4959C341.832 95.3889 341.615 95.175 341.392 94.7296L339.603 95.624ZM342.675 97.672V99.672C345.607 99.672 348.314 97.8912 350.779 95.1767C353.282 92.4221 355.82 88.398 358.416 83.2064L356.627 82.312L354.838 81.4176C352.314 86.466 349.967 90.1219 347.819 92.4873C345.634 94.8928 343.924 95.672 342.675 95.672V97.672ZM356.627 82.312L358.413 83.2123C363.739 72.6484 368.346 57.3809 372.285 37.517L370.323 37.128L368.361 36.739C364.449 56.4697 359.926 71.3249 354.841 81.4117L356.627 82.312ZM370.323 37.128L372.253 37.6542C372.276 37.5674 372.295 37.5397 372.289 37.5486C372.282 37.5611 372.254 37.6013 372.199 37.6446C372.143 37.6885 372.09 37.7114 372.059 37.7207C372.033 37.7287 372.046 37.72 372.115 37.72V35.72V33.72C371.306 33.72 370.455 33.9277 369.727 34.4994C369.007 35.0655 368.603 35.8352 368.393 36.6018L370.323 37.128ZM372.115 35.72V37.72H377.107V35.72V33.72H372.115V35.72ZM377.107 35.72V37.72C377.263 37.72 377.289 37.7396 377.235 37.7214C377.167 37.6988 376.993 37.6222 376.828 37.4279C376.66 37.2287 376.602 37.0245 376.587 36.9103C376.575 36.8161 376.595 36.8107 376.566 36.9343L378.515 37.384L380.464 37.8337C380.652 37.0193 380.712 35.8258 379.882 34.8441C379.08 33.8963 377.923 33.72 377.107 33.72V35.72ZM378.515 37.384L376.553 36.9964L366.313 88.8364L368.275 89.224L370.237 89.6116L380.477 37.7716L378.515 37.384ZM368.275 89.224L366.319 88.809C365.694 91.7525 365.627 94.422 366.593 96.4756L368.403 95.624L370.213 94.7724C369.814 93.9247 369.661 92.3275 370.231 89.639L368.275 89.224ZM368.403 95.624L366.66 96.6045C367.797 98.6265 369.674 99.672 371.987 99.672V97.672V95.672C371.057 95.672 370.545 95.3522 370.146 94.6435L368.403 95.624ZM371.987 97.672V99.672C375.145 99.672 378.127 98.1416 380.904 95.5501L379.539 94.088L378.174 92.6259C375.831 94.8131 373.778 95.672 371.987 95.672V97.672ZM379.539 94.088L380.904 95.5501C383.658 92.9789 386.088 89.6744 388.216 85.6852L386.451 84.744L384.686 83.8028C382.718 87.4936 380.54 90.4184 378.174 92.6259L379.539 94.088ZM386.451 84.744L388.199 85.7153C390.416 81.7259 392.18 77.3538 393.498 72.6073L391.571 72.072L389.644 71.5367C388.402 76.0062 386.753 80.0821 384.703 83.7727L386.451 84.744ZM391.571 72.072L393.498 72.6073C394.823 67.8385 395.491 63.1357 395.491 58.504H393.491H391.491C391.491 62.7469 390.879 67.0895 389.644 71.5367L391.571 72.072ZM393.491 58.504H395.491C395.491 54.8404 395.189 51.8077 394.515 49.496L392.595 50.056L390.675 50.616C391.195 52.4003 391.491 54.9996 391.491 58.504H393.491ZM392.595 50.056L394.54 49.5893C394.012 47.3917 393.429 45.4941 392.78 43.9185L390.931 44.68L389.082 45.4415C389.628 46.7673 390.154 48.4536 390.65 50.5227L392.595 50.056ZM390.931 44.68L392.78 43.9185C392.291 42.7299 392.035 41.4125 392.035 39.944H390.035H388.035C388.035 41.8888 388.376 43.7288 389.082 45.4415L390.931 44.68ZM390.035 39.944H392.035C392.035 38.5261 392.35 37.8361 392.631 37.5143C392.865 37.2448 393.321 36.952 394.387 36.952V34.952V32.952C392.551 32.952 390.831 33.4911 389.615 34.8857C388.445 36.2279 388.035 38.0339 388.035 39.944H390.035ZM394.387 34.952V36.952C395.014 36.952 395.364 37.1173 395.601 37.3242C395.867 37.5558 396.186 38.0123 396.419 38.9099L398.355 38.408L400.291 37.9061C399.926 36.4997 399.285 35.2282 398.229 34.3078C397.143 33.3627 395.808 32.952 394.387 32.952V34.952ZM398.355 38.408L396.424 38.9279C396.95 40.8834 397.251 44.0381 397.251 48.52H399.251H401.251C401.251 43.9566 400.954 40.37 400.286 37.8881L398.355 38.408ZM399.251 48.52H397.251C397.251 54.8367 396.462 61.1145 394.88 67.3568L396.819 67.848L398.758 68.3392C400.419 61.7815 401.251 55.1739 401.251 48.52H399.251ZM396.819 67.848L394.876 67.3753C393.374 73.5479 391.295 79.1524 388.648 84.1989L390.419 85.128L392.19 86.0571C395.004 80.6929 397.192 74.7775 398.762 68.3207L396.819 67.848ZM390.419 85.128L388.642 84.21C386.083 89.1624 383.148 93.0944 379.863 96.0592L381.203 97.544L382.543 99.0288C386.255 95.6789 389.464 91.3336 392.196 86.046L390.419 85.128ZM381.203 97.544L379.865 96.0574C376.743 98.8672 373.576 100.152 370.323 100.152V102.152V104.152C374.75 104.152 378.836 102.365 382.541 99.0306L381.203 97.544ZM370.323 102.152V100.152C367.255 100.152 365.075 99.0216 363.516 96.7844L361.875 97.928L360.234 99.0716C362.6 102.466 366.053 104.152 370.323 104.152V102.152ZM361.875 97.928L363.532 96.8074C362.007 94.5534 361.491 91.018 362.555 85.7821L360.595 85.384L358.635 84.9859C357.48 90.6727 357.818 95.4999 360.218 99.0486L361.875 97.928ZM360.595 85.384L362.518 85.9334C362.646 85.4839 362.787 84.7452 362.5 83.9777C362.143 83.026 361.341 82.5465 360.603 82.3988L360.211 84.36L359.819 86.3212C359.696 86.2966 359.481 86.231 359.256 86.0572C359.016 85.8732 358.848 85.6311 358.754 85.3822C358.595 84.9561 358.714 84.6867 358.672 84.8346L360.595 85.384ZM360.211 84.36L360.696 82.4197C359.929 82.228 359.171 82.3981 358.569 82.8285C358.046 83.2019 357.726 83.7056 357.526 84.1056L359.315 85L361.104 85.8944C361.16 85.7824 361.118 85.9234 360.893 86.0835C360.767 86.174 360.585 86.2671 360.355 86.3132C360.123 86.3597 359.905 86.3451 359.726 86.3003L360.211 84.36ZM359.315 85L357.526 84.1056C355.202 88.7544 352.609 92.6521 349.763 95.8242L351.251 97.16L352.739 98.4958C355.866 95.0119 358.65 90.8029 361.104 85.8944L359.315 85ZM351.251 97.16L349.763 95.8242C347.087 98.8059 344.188 100.152 341.011 100.152V102.152V104.152C345.514 104.152 349.442 102.17 352.739 98.4958L351.251 97.16Z" fill="url(#paint0_linear_9_2)" mask="url(#path-1-outside-1_9_2)"/>
</g>
<defs>
<filter id="filter0_g_9_2" x="0.0209961" y="0.839966" width="407.23" height="109.312" filterUnits="userSpaceOnUse" color-interpolation-filters="sRGB">
<feFlood flood-opacity="0" result="BackgroundImageFix"/>
<feBlend mode="normal" in="SourceGraphic" in2="BackgroundImageFix" result="shape"/>
<feTurbulence type="fractalNoise" baseFrequency="1.6666666269302368 1.6666666269302368" numOctaves="3" seed="3083" />
<feDisplacementMap in="shape" scale="12" xChannelSelector="R" yChannelSelector="G" result="displacedImage" width="100%" height="100%" />
<feMerge result="effect1_texture_9_2">
<feMergeNode in="displacedImage"/>
</feMerge>
</filter>
<linearGradient id="paint0_linear_9_2" x1="33.2865" y1="71" x2="390.633" y2="72.6521" gradientUnits="userSpaceOnUse">
<stop offset="0.073374" stop-color="#000103"/>
</linearGradient>
</defs>
</svg>
